{"glyphs":{"0":{"ha":739,"x_min":96,"x_max":643,"o":"m 506 762 q 519 749 518 760 l 519 113 q 506 99 517 100 l 233 99 q 220 113 221 102 l 220 749 q 233 762 222 761 l 506 762 m 96 152 q 208 -3 96 22 q 277 -9 239 -9 l 463 -9 q 636 92 610 -9 q 643 152 643 119 l 643 709 q 532 864 643 840 q 463 871 500 871 l 277 871 q 103 769 129 871 q 96 709 96 742 l 96 152 z "},"1":{"ha":581,"x_min":34,"x_max":544,"o":"m 544 98 l 389 98 l 389 861 l 278 861 l 34 703 l 84 620 l 269 734 l 269 98 l 75 98 l 75 0 l 544 0 l 544 98 z "},"2":{"ha":621,"x_min":57,"x_max":567,"o":"m 57 258 l 57 0 l 566 0 l 566 104 l 179 104 l 179 259 q 194 302 179 292 q 202 307 198 305 l 456 433 q 556 514 536 472 q 567 576 567 538 l 567 694 q 389 867 567 869 q 387 867 388 867 l 76 861 l 76 757 l 429 757 q 445 739 444 754 l 445 564 q 427 540 444 547 l 168 411 q 79 350 98 376 q 57 258 57 317 z "},"3":{"ha":621,"x_min":34,"x_max":530,"o":"m 530 172 l 530 308 q 452 446 529 414 q 524 575 522 484 l 524 692 q 331 867 521 869 l 38 861 l 38 758 l 382 758 q 399 741 397 755 l 399 513 q 382 496 399 496 l 113 496 l 113 392 l 389 392 q 406 374 404 389 l 406 122 q 389 104 403 106 l 34 104 l 34 0 l 334 -5 q 524 113 491 -8 q 530 172 530 141 z "},"4":{"ha":730,"x_min":23,"x_max":682,"o":"m 555 0 l 555 199 l 682 199 l 682 300 l 555 300 l 555 861 l 441 864 q 342 842 370 865 q 278 749 315 819 l 23 285 l 23 199 l 434 199 l 434 0 l 555 0 m 385 745 q 403 757 392 757 l 434 757 l 434 300 l 145 300 l 385 745 z "},"5":{"ha":624,"x_min":54,"x_max":555,"o":"m 184 528 l 184 757 l 525 757 l 525 861 l 64 861 l 64 423 l 414 423 q 431 406 430 420 l 431 122 q 414 104 429 106 l 54 104 l 54 0 l 363 -5 q 555 170 553 -7 l 555 357 q 359 528 552 526 l 184 528 z "},"6":{"ha":684,"x_min":98,"x_max":625,"o":"m 433 -4 q 625 170 624 -1 l 625 362 q 514 522 625 496 q 437 530 480 530 l 221 530 l 221 739 q 239 757 224 755 l 585 757 l 585 861 l 293 867 q 103 745 134 869 q 98 689 98 718 l 98 163 q 221 1 98 26 q 289 -4 251 -4 l 433 -4 m 239 104 q 221 122 222 107 l 221 427 l 484 427 q 500 411 499 425 l 500 122 q 484 104 498 106 l 239 104 z "},"7":{"ha":563,"x_min":23,"x_max":532,"o":"m 221 -3 l 532 749 q 422 863 529 861 l 23 861 l 23 762 l 389 764 q 397 745 404 761 l 91 -3 l 221 -3 z "},"8":{"ha":739,"x_min":91,"x_max":648,"o":"m 452 -5 q 647 142 629 -5 q 648 172 648 157 l 648 308 q 570 446 647 414 q 642 575 640 484 l 642 692 q 449 867 639 865 l 290 867 q 98 692 99 864 l 98 575 q 170 446 99 483 q 91 308 92 412 l 91 172 q 236 -1 91 22 q 288 -5 260 -5 l 452 -5 m 216 122 l 216 376 q 233 393 218 392 l 506 393 q 524 376 522 391 l 524 122 q 506 104 521 106 l 233 104 q 216 122 217 107 m 222 513 l 222 741 q 240 758 225 757 l 499 758 q 517 741 515 755 l 517 513 q 499 495 514 496 l 240 495 q 222 513 224 498 z "},"9":{"ha":684,"x_min":58,"x_max":586,"o":"m 586 172 l 586 699 q 463 860 586 836 q 395 865 433 865 l 250 865 q 58 692 60 863 l 58 492 q 170 331 58 357 q 245 323 203 323 l 463 323 l 463 122 q 445 104 460 106 l 90 104 l 90 0 l 391 -5 q 581 117 549 -8 q 586 172 586 144 m 199 426 q 182 444 183 429 l 182 739 q 199 757 184 755 l 444 757 q 463 739 461 754 l 463 426 l 199 426 z "},"A":{"ha":720,"x_min":16,"x_max":707,"o":"m 707 0 l 499 861 l 374 864 q 258 829 288 865 q 218 732 237 802 l 16 0 l 129 0 l 187 222 l 533 222 l 586 0 l 707 0 m 327 745 q 340 757 331 755 l 408 757 l 511 326 l 214 326 l 327 745 z "},"Æ":{"ha":1058,"x_min":4,"x_max":1010,"o":"m 122 0 l 227 247 l 526 247 l 526 0 l 1010 0 l 1010 104 l 647 104 l 647 382 l 979 382 l 979 486 l 647 486 l 647 757 l 1004 757 l 1004 861 l 480 863 q 369 829 399 863 q 319 732 350 807 l 4 0 l 122 0 m 438 743 q 453 757 444 755 l 526 757 l 526 350 l 270 350 l 438 743 z "},"Á":{"ha":720,"x_min":16,"x_max":707,"o":"m 707 0 l 499 861 l 374 864 q 258 829 288 865 q 218 732 237 802 l 16 0 l 129 0 l 187 222 l 533 222 l 586 0 l 707 0 m 327 745 q 340 757 331 755 l 408 757 l 511 326 l 214 326 l 327 745 m 330 925 l 415 1118 l 537 1116 l 418 925 l 330 925 z "},"Ă":{"ha":720,"x_min":16,"x_max":707,"o":"m 707 0 l 499 861 l 374 864 q 258 829 288 865 q 218 732 237 802 l 16 0 l 129 0 l 187 222 l 533 222 l 586 0 l 707 0 m 327 745 q 340 757 331 755 l 408 757 l 511 326 l 214 326 l 327 745 m 227 1099 q 279 955 227 987 q 395 932 319 932 q 538 998 509 932 q 555 1099 555 1036 l 477 1099 q 448 1016 477 1032 q 395 1006 427 1006 q 311 1051 323 1006 q 305 1099 305 1069 l 227 1099 z "},"Â":{"ha":720,"x_min":16,"x_max":707,"o":"m 707 0 l 499 861 l 374 864 q 258 829 288 865 q 218 732 237 802 l 16 0 l 129 0 l 187 222 l 533 222 l 586 0 l 707 0 m 327 745 q 340 757 331 755 l 408 757 l 511 326 l 214 326 l 327 745 m 438 1111 l 315 1111 l 186 925 l 285 925 l 376 1057 l 456 925 l 560 925 l 438 1111 z "},"Ä":{"ha":720,"x_min":16,"x_max":707,"o":"m 707 0 l 499 861 l 374 864 q 258 829 288 865 q 218 732 237 802 l 16 0 l 129 0 l 187 222 l 533 222 l 586 0 l 707 0 m 327 745 q 340 757 331 755 l 408 757 l 511 326 l 214 326 l 327 745 m 315 955 l 315 1077 l 206 1077 l 206 955 l 315 955 m 555 955 l 555 1077 l 446 1077 l 446 955 l 555 955 z "},"À":{"ha":720,"x_min":16,"x_max":707,"o":"m 707 0 l 499 861 l 374 864 q 258 829 288 865 q 218 732 237 802 l 16 0 l 129 0 l 187 222 l 533 222 l 586 0 l 707 0 m 327 745 q 340 757 331 755 l 408 757 l 511 326 l 214 326 l 327 745 m 218 1116 l 342 1118 l 433 925 l 347 925 l 218 1116 z "},"Ā":{"ha":720,"x_min":16,"x_max":707,"o":"m 707 0 l 499 861 l 374 864 q 258 829 288 865 q 218 732 237 802 l 16 0 l 129 0 l 187 222 l 533 222 l 586 0 l 707 0 m 327 745 q 340 757 331 755 l 408 757 l 511 326 l 214 326 l 327 745 m 553 1048 l 203 1048 l 203 962 l 553 962 l 553 1048 z "},"Ą":{"ha":720,"x_min":16,"x_max":731,"o":"m 707 0 l 499 861 l 374 864 q 258 829 288 865 q 218 732 237 802 l 16 0 l 129 0 l 187 222 l 533 222 l 586 0 l 623 0 l 549 -66 q 514 -156 514 -99 l 514 -186 q 586 -277 514 -262 q 651 -282 612 -282 l 731 -282 l 731 -199 l 618 -199 q 609 -190 610 -197 l 609 -123 q 620 -100 610 -110 l 707 0 m 327 745 q 340 757 331 755 l 408 757 l 511 326 l 214 326 l 327 745 z "},"Å":{"ha":720,"x_min":16,"x_max":707,"o":"m 707 0 l 499 861 l 374 864 q 258 829 288 865 q 218 732 237 802 l 16 0 l 129 0 l 187 222 l 533 222 l 586 0 l 707 0 m 327 745 q 340 757 331 755 l 408 757 l 511 326 l 214 326 l 327 745 m 509 1027 q 456 1138 509 1116 q 378 1150 427 1150 q 264 1100 286 1150 q 254 1027 254 1073 q 307 914 254 937 q 378 903 334 903 q 499 963 477 903 q 509 1027 509 989 m 317 1027 q 336 1089 317 1080 q 378 1096 351 1096 q 439 1072 430 1096 q 445 1027 445 1057 q 419 963 445 974 q 378 958 404 958 q 320 989 328 958 q 317 1027 317 1002 z "},"Ã":{"ha":720,"x_min":16,"x_max":707,"o":"m 707 0 l 499 861 l 374 864 q 258 829 288 865 q 218 732 237 802 l 16 0 l 129 0 l 187 222 l 533 222 l 586 0 l 707 0 m 327 745 q 340 757 331 755 l 408 757 l 511 326 l 214 326 l 327 745 m 266 956 q 297 1009 267 1008 q 381 981 315 1009 q 468 958 434 958 q 557 1047 544 958 q 560 1093 560 1069 l 483 1093 q 446 1042 475 1046 q 361 1070 425 1042 q 275 1093 309 1093 q 195 1027 210 1093 q 189 958 189 1000 l 266 956 z "},"B":{"ha":743,"x_min":96,"x_max":662,"o":"m 662 172 l 662 302 q 578 442 661 410 q 642 568 642 480 l 642 692 q 450 867 642 868 l 96 861 l 96 0 l 467 -5 q 658 125 632 -7 q 662 172 662 146 m 521 388 q 538 372 537 385 l 538 118 q 521 100 536 102 l 217 100 l 217 388 l 521 388 m 500 764 q 518 746 517 761 l 518 506 q 500 488 515 490 l 217 488 l 217 764 l 500 764 z "},"C":{"ha":587,"x_min":81,"x_max":560,"o":"m 560 109 l 218 109 q 205 122 206 111 l 205 739 q 218 753 208 751 l 560 753 l 560 861 l 263 861 q 87 754 111 861 q 81 700 81 730 l 81 161 q 198 5 81 28 q 263 0 227 0 l 560 0 l 560 109 z "},"Ć":{"ha":587,"x_min":81,"x_max":560,"o":"m 560 109 l 218 109 q 205 122 206 111 l 205 739 q 218 753 208 751 l 560 753 l 560 861 l 263 861 q 87 754 111 861 q 81 700 81 730 l 81 161 q 198 5 81 28 q 263 0 227 0 l 560 0 l 560 109 m 297 925 l 382 1118 l 505 1116 l 385 925 l 297 925 z "},"Č":{"ha":587,"x_min":81,"x_max":560,"o":"m 560 109 l 218 109 q 205 122 206 111 l 205 739 q 218 753 208 751 l 560 753 l 560 861 l 263 861 q 87 754 111 861 q 81 700 81 730 l 81 161 q 198 5 81 28 q 263 0 227 0 l 560 0 l 560 109 m 298 932 l 422 932 l 551 1118 l 452 1118 l 361 986 l 281 1118 l 176 1118 l 298 932 z "},"Ç":{"ha":587,"x_min":81,"x_max":560,"o":"m 560 109 l 218 109 q 205 122 206 111 l 205 739 q 218 753 208 751 l 560 753 l 560 861 l 263 861 q 87 754 111 861 q 81 700 81 730 l 81 161 q 198 5 81 28 q 263 0 227 0 l 293 0 l 264 -129 l 377 -129 q 387 -138 385 -132 l 387 -201 q 377 -210 384 -209 l 248 -210 l 248 -282 l 346 -282 q 467 -174 465 -279 l 467 -151 q 382 -65 467 -73 q 358 -64 370 -64 l 342 -64 l 354 0 l 560 0 l 560 109 z "},"D":{"ha":745,"x_min":96,"x_max":662,"o":"m 521 762 q 538 745 537 760 l 538 117 q 521 99 536 100 l 217 99 l 217 762 l 521 762 m 96 -1 l 467 -7 q 659 129 640 -8 q 662 170 662 148 l 662 692 q 538 863 662 838 q 471 868 507 868 l 96 861 l 96 -1 z "},"Ď":{"ha":745,"x_min":96,"x_max":662,"o":"m 521 762 q 538 745 537 760 l 538 117 q 521 99 536 100 l 217 99 l 217 762 l 521 762 m 96 -1 l 467 -7 q 659 129 640 -8 q 662 170 662 148 l 662 692 q 538 863 662 838 q 471 868 507 868 l 96 861 l 96 -1 m 313 932 l 437 932 l 566 1118 l 467 1118 l 376 986 l 296 1118 l 191 1118 l 313 932 z "},"Đ":{"ha":745,"x_min":23,"x_max":662,"o":"m 521 762 q 538 745 537 760 l 538 117 q 521 99 536 100 l 217 99 l 217 388 l 374 388 l 374 484 l 217 484 l 217 762 l 521 762 m 96 -1 l 467 -7 q 659 129 640 -8 q 662 170 662 148 l 662 692 q 538 863 662 838 q 471 868 507 868 l 96 861 l 96 484 l 23 484 l 23 388 l 96 388 l 96 -1 z "},"E":{"ha":628,"x_min":96,"x_max":583,"o":"m 583 0 l 583 104 l 217 104 l 217 387 l 553 387 l 553 490 l 217 490 l 217 757 l 576 757 l 576 861 l 96 861 l 96 0 l 583 0 z "},"É":{"ha":628,"x_min":96,"x_max":583,"o":"m 583 0 l 583 104 l 217 104 l 217 387 l 553 387 l 553 490 l 217 490 l 217 757 l 576 757 l 576 861 l 96 861 l 96 0 l 583 0 m 293 925 l 378 1118 l 500 1116 l 381 925 l 293 925 z "},"Ě":{"ha":628,"x_min":96,"x_max":583,"o":"m 583 0 l 583 104 l 217 104 l 217 387 l 553 387 l 553 490 l 217 490 l 217 757 l 576 757 l 576 861 l 96 861 l 96 0 l 583 0 m 288 932 l 411 932 l 540 1118 l 441 1118 l 350 986 l 270 1118 l 165 1118 l 288 932 z "},"Ê":{"ha":628,"x_min":96,"x_max":583,"o":"m 583 0 l 583 104 l 217 104 l 217 387 l 553 387 l 553 490 l 217 490 l 217 757 l 576 757 l 576 861 l 96 861 l 96 0 l 583 0 m 401 1111 l 278 1111 l 149 925 l 248 925 l 339 1057 l 419 925 l 524 925 l 401 1111 z "},"Ë":{"ha":628,"x_min":96,"x_max":583,"o":"m 583 0 l 583 104 l 217 104 l 217 387 l 553 387 l 553 490 l 217 490 l 217 757 l 576 757 l 576 861 l 96 861 l 96 0 l 583 0 m 278 955 l 278 1077 l 170 1077 l 170 955 l 278 955 m 518 955 l 518 1077 l 410 1077 l 410 955 l 518 955 z "},"Ė":{"ha":628,"x_min":96,"x_max":583,"o":"m 583 0 l 583 104 l 217 104 l 217 387 l 553 387 l 553 490 l 217 490 l 217 757 l 576 757 l 576 861 l 96 861 l 96 0 l 583 0 m 399 951 l 399 1085 l 285 1085 l 285 951 l 399 951 z "},"È":{"ha":628,"x_min":96,"x_max":583,"o":"m 583 0 l 583 104 l 217 104 l 217 387 l 553 387 l 553 490 l 217 490 l 217 757 l 576 757 l 576 861 l 96 861 l 96 0 l 583 0 m 182 1116 l 305 1118 l 396 925 l 311 925 l 182 1116 z "},"Ē":{"ha":628,"x_min":96,"x_max":583,"o":"m 583 0 l 583 104 l 217 104 l 217 387 l 553 387 l 553 490 l 217 490 l 217 757 l 576 757 l 576 861 l 96 861 l 96 0 l 583 0 m 517 1048 l 167 1048 l 167 962 l 517 962 l 517 1048 z "},"Ę":{"ha":628,"x_min":96,"x_max":608,"o":"m 583 0 l 583 104 l 217 104 l 217 387 l 553 387 l 553 490 l 217 490 l 217 757 l 576 757 l 576 861 l 96 861 l 96 0 l 499 0 l 426 -66 q 391 -156 391 -99 l 391 -186 q 463 -277 391 -262 q 528 -282 488 -282 l 608 -282 l 608 -199 l 495 -199 q 486 -190 487 -197 l 486 -123 q 496 -100 487 -110 l 583 0 z "},"Ð":{"ha":745,"x_min":23,"x_max":662,"o":"m 521 762 q 538 745 537 760 l 538 117 q 521 99 536 100 l 217 99 l 217 388 l 374 388 l 374 484 l 217 484 l 217 762 l 521 762 m 96 -1 l 467 -7 q 659 129 640 -8 q 662 170 662 148 l 662 692 q 538 863 662 838 q 471 868 507 868 l 96 861 l 96 484 l 23 484 l 23 388 l 96 388 l 96 -1 z "},"€":{"ha":635,"x_min":50,"x_max":594,"o":"m 594 705 l 594 814 l 309 814 q 138 716 165 814 q 130 652 130 688 l 130 524 l 50 524 l 50 450 l 130 450 l 130 372 l 50 372 l 50 298 l 130 298 l 130 161 q 236 8 130 33 q 309 0 267 0 l 594 0 l 594 109 l 266 109 q 252 122 254 111 l 252 298 l 446 298 l 446 372 l 252 372 l 252 450 l 446 450 l 446 524 l 252 524 l 252 692 q 266 705 255 704 l 594 705 z "},"F":{"ha":583,"x_min":96,"x_max":567,"o":"m 543 477 l 217 477 l 217 757 l 567 757 l 567 861 l 96 861 l 96 0 l 217 0 l 217 373 l 543 373 l 543 477 z "},"G":{"ha":722,"x_min":83,"x_max":652,"o":"m 471 -9 q 647 98 623 -9 q 652 152 652 122 l 652 456 l 388 456 l 388 354 l 534 354 l 534 113 q 521 99 532 100 l 220 99 q 206 113 208 102 l 206 749 q 220 762 209 761 l 637 762 l 637 871 l 263 871 q 90 769 115 871 q 83 709 83 742 l 83 152 q 194 -3 83 22 q 263 -9 225 -9 l 471 -9 z "},"Ğ":{"ha":722,"x_min":83,"x_max":652,"o":"m 471 -9 q 647 98 623 -9 q 652 152 652 122 l 652 456 l 388 456 l 388 354 l 534 354 l 534 113 q 521 99 532 100 l 220 99 q 206 113 208 102 l 206 749 q 220 762 209 761 l 637 762 l 637 871 l 263 871 q 90 769 115 871 q 83 709 83 742 l 83 152 q 194 -3 83 22 q 263 -9 225 -9 l 471 -9 m 224 1099 q 277 955 224 987 q 392 932 316 932 q 536 998 506 932 q 552 1099 552 1036 l 475 1099 q 445 1016 475 1032 q 392 1006 425 1006 q 308 1051 320 1006 q 302 1099 302 1069 l 224 1099 z "},"H":{"ha":787,"x_min":96,"x_max":690,"o":"m 571 0 l 690 0 l 690 861 l 571 861 l 571 490 l 217 490 l 217 861 l 96 861 l 96 0 l 217 0 l 217 385 l 571 385 l 571 0 z "},"I":{"ha":347,"x_min":114,"x_max":235,"o":"m 235 0 l 235 861 l 114 861 l 114 0 l 235 0 z "},"Í":{"ha":347,"x_min":114,"x_max":328,"o":"m 235 0 l 235 861 l 114 861 l 114 0 l 235 0 m 121 925 l 206 1118 l 328 1116 l 209 925 l 121 925 z "},"Î":{"ha":347,"x_min":-19,"x_max":355,"o":"m 235 0 l 235 861 l 114 861 l 114 0 l 235 0 m 233 1111 l 110 1111 l -19 925 l 80 925 l 171 1057 l 251 925 l 355 925 l 233 1111 z "},"Ï":{"ha":347,"x_min":3,"x_max":351,"o":"m 235 0 l 235 861 l 114 861 l 114 0 l 235 0 m 111 955 l 111 1077 l 3 1077 l 3 955 l 111 955 m 351 955 l 351 1077 l 243 1077 l 243 955 l 351 955 z "},"İ":{"ha":347,"x_min":114,"x_max":235,"o":"m 235 0 l 235 861 l 114 861 l 114 0 l 235 0 m 231 951 l 231 1085 l 117 1085 l 117 951 l 231 951 z "},"Ì":{"ha":347,"x_min":14,"x_max":235,"o":"m 235 0 l 235 861 l 114 861 l 114 0 l 235 0 m 14 1116 l 137 1118 l 228 925 l 142 925 l 14 1116 z "},"Ī":{"ha":347,"x_min":-1,"x_max":349,"o":"m 235 0 l 235 861 l 114 861 l 114 0 l 235 0 m 349 1048 l -1 1048 l -1 962 l 349 962 l 349 1048 z "},"Į":{"ha":347,"x_min":42,"x_max":259,"o":"m 235 0 l 235 861 l 114 861 l 114 0 l 151 0 l 77 -66 q 42 -156 42 -99 l 42 -186 q 114 -277 42 -262 q 179 -282 140 -282 l 259 -282 l 259 -199 l 146 -199 q 137 -190 138 -197 l 137 -123 q 148 -100 138 -110 l 235 0 z "},"J":{"ha":378,"x_min":12,"x_max":281,"o":"m 281 861 l 160 861 l 160 113 q 146 99 157 100 l 12 99 l 12 -9 l 111 -9 q 270 75 241 -9 q 281 149 281 106 l 281 861 z "},"K":{"ha":745,"x_min":103,"x_max":736,"o":"m 414 384 q 427 372 422 384 l 427 370 l 608 0 l 736 0 l 575 326 q 510 425 537 406 q 488 437 499 433 q 553 518 524 453 q 566 547 559 530 l 703 861 l 582 861 l 427 502 q 414 488 419 490 l 224 488 l 224 861 l 103 861 l 103 0 l 224 0 l 224 384 l 414 384 z "},"L":{"ha":543,"x_min":96,"x_max":536,"o":"m 536 104 l 217 104 l 217 861 l 96 861 l 96 0 l 536 0 l 536 104 z "},"Ĺ":{"ha":543,"x_min":96,"x_max":536,"o":"m 536 104 l 217 104 l 217 861 l 96 861 l 96 0 l 536 0 l 536 104 m 102 925 l 187 1118 l 309 1116 l 190 925 l 102 925 z "},"Ľ":{"ha":543,"x_min":96,"x_max":536,"o":"m 536 104 l 217 104 l 217 861 l 96 861 l 96 0 l 536 0 l 536 104 m 414 583 q 487 743 487 658 l 487 861 l 373 861 l 373 722 l 412 722 q 373 614 408 665 l 414 583 z "},"Ł":{"ha":543,"x_min":96,"x_max":536,"o":"m 536 104 l 217 104 l 217 861 l 96 861 l 96 0 l 536 0 l 536 104 z "},"M":{"ha":886,"x_min":91,"x_max":799,"o":"m 718 861 l 681 861 l 445 406 l 237 810 q 184 859 216 853 q 157 861 172 861 l 91 861 l 91 0 l 198 0 l 198 670 l 401 269 l 472 269 l 682 673 l 682 0 l 799 0 l 799 779 q 749 859 799 848 q 718 861 734 861 z "},"N":{"ha":779,"x_min":90,"x_max":689,"o":"m 605 0 l 689 0 l 689 861 l 583 861 l 583 224 l 174 861 l 90 861 l 90 0 l 195 0 l 195 636 l 605 0 z "},"Ń":{"ha":779,"x_min":90,"x_max":689,"o":"m 605 0 l 689 0 l 689 861 l 583 861 l 583 224 l 174 861 l 90 861 l 90 0 l 195 0 l 195 636 l 605 0 m 335 925 l 420 1118 l 543 1116 l 423 925 l 335 925 z "},"Ň":{"ha":779,"x_min":90,"x_max":689,"o":"m 605 0 l 689 0 l 689 861 l 583 861 l 583 224 l 174 861 l 90 861 l 90 0 l 195 0 l 195 636 l 605 0 m 331 932 l 454 932 l 583 1118 l 484 1118 l 393 986 l 313 1118 l 209 1118 l 331 932 z "},"Ñ":{"ha":779,"x_min":90,"x_max":689,"o":"m 605 0 l 689 0 l 689 861 l 583 861 l 583 224 l 174 861 l 90 861 l 90 0 l 195 0 l 195 636 l 605 0 m 273 956 q 304 1009 274 1008 q 388 981 321 1009 q 475 958 441 958 q 564 1047 551 958 q 567 1093 567 1069 l 490 1093 q 453 1042 481 1046 q 368 1070 431 1042 q 282 1093 316 1093 q 202 1027 217 1093 q 195 958 195 1000 l 273 956 z "},"O":{"ha":762,"x_min":83,"x_max":681,"o":"m 543 762 q 556 749 555 760 l 556 113 q 543 99 553 100 l 220 99 q 206 113 208 102 l 206 749 q 220 762 209 761 l 543 762 m 83 152 q 194 -3 83 22 q 263 -9 225 -9 l 499 -9 q 675 98 651 -9 q 681 152 681 122 l 681 709 q 564 865 681 842 q 499 871 534 871 l 263 871 q 90 769 115 871 q 83 709 83 742 l 83 152 z "},"Œ":{"ha":1073,"x_min":75,"x_max":1025,"o":"m 1025 0 l 1025 104 l 661 104 l 661 387 l 994 387 l 994 490 l 661 490 l 661 757 l 1019 757 l 1019 861 l 255 865 q 81 764 107 867 q 75 704 75 736 l 75 157 q 186 1 75 24 q 255 -4 217 -4 l 1025 0 m 212 104 q 198 118 199 107 l 198 743 q 212 757 201 755 l 540 757 l 540 104 l 212 104 z "},"Ó":{"ha":762,"x_min":83,"x_max":681,"o":"m 543 762 q 556 749 555 760 l 556 113 q 543 99 553 100 l 220 99 q 206 113 208 102 l 206 749 q 220 762 209 761 l 543 762 m 83 152 q 194 -3 83 22 q 263 -9 225 -9 l 499 -9 q 675 98 651 -9 q 681 152 681 122 l 681 709 q 564 865 681 842 q 499 871 534 871 l 263 871 q 90 769 115 871 q 83 709 83 742 l 83 152 m 335 925 l 420 1118 l 543 1116 l 423 925 l 335 925 z "},"Ô":{"ha":762,"x_min":83,"x_max":681,"o":"m 543 762 q 556 749 555 760 l 556 113 q 543 99 553 100 l 220 99 q 206 113 208 102 l 206 749 q 220 762 209 761 l 543 762 m 83 152 q 194 -3 83 22 q 263 -9 225 -9 l 499 -9 q 675 98 651 -9 q 681 152 681 122 l 681 709 q 564 865 681 842 q 499 871 534 871 l 263 871 q 90 769 115 871 q 83 709 83 742 l 83 152 m 444 1111 l 320 1111 l 191 925 l 290 925 l 381 1057 l 461 925 l 566 925 l 444 1111 z "},"Ö":{"ha":762,"x_min":83,"x_max":681,"o":"m 543 762 q 556 749 555 760 l 556 113 q 543 99 553 100 l 220 99 q 206 113 208 102 l 206 749 q 220 762 209 761 l 543 762 m 83 152 q 194 -3 83 22 q 263 -9 225 -9 l 499 -9 q 675 98 651 -9 q 681 152 681 122 l 681 709 q 564 865 681 842 q 499 871 534 871 l 263 871 q 90 769 115 871 q 83 709 83 742 l 83 152 m 321 955 l 321 1077 l 213 1077 l 213 955 l 321 955 m 562 955 l 562 1077 l 453 1077 l 453 955 l 562 955 z "},"Ò":{"ha":762,"x_min":83,"x_max":681,"o":"m 543 762 q 556 749 555 760 l 556 113 q 543 99 553 100 l 220 99 q 206 113 208 102 l 206 749 q 220 762 209 761 l 543 762 m 83 152 q 194 -3 83 22 q 263 -9 225 -9 l 499 -9 q 675 98 651 -9 q 681 152 681 122 l 681 709 q 564 865 681 842 q 499 871 534 871 l 263 871 q 90 769 115 871 q 83 709 83 742 l 83 152 m 224 1116 l 347 1118 l 438 925 l 353 925 l 224 1116 z "},"Ő":{"ha":762,"x_min":83,"x_max":681,"o":"m 543 762 q 556 749 555 760 l 556 113 q 543 99 553 100 l 220 99 q 206 113 208 102 l 206 749 q 220 762 209 761 l 543 762 m 83 152 q 194 -3 83 22 q 263 -9 225 -9 l 499 -9 q 675 98 651 -9 q 681 152 681 122 l 681 709 q 564 865 681 842 q 499 871 534 871 l 263 871 q 90 769 115 871 q 83 709 83 742 l 83 152 m 245 925 l 328 1118 l 448 1116 l 331 925 l 245 925 m 430 925 l 515 1118 l 636 1116 l 515 925 l 430 925 z "},"Ō":{"ha":762,"x_min":83,"x_max":681,"o":"m 543 762 q 556 749 555 760 l 556 113 q 543 99 553 100 l 220 99 q 206 113 208 102 l 206 749 q 220 762 209 761 l 543 762 m 83 152 q 194 -3 83 22 q 263 -9 225 -9 l 499 -9 q 675 98 651 -9 q 681 152 681 122 l 681 709 q 564 865 681 842 q 499 871 534 871 l 263 871 q 90 769 115 871 q 83 709 83 742 l 83 152 m 559 1048 l 209 1048 l 209 962 l 559 962 l 559 1048 z "},"Ø":{"ha":762,"x_min":83,"x_max":681,"o":"m 583 928 l 553 867 q 499 871 528 871 l 263 871 q 90 769 115 871 q 83 709 83 742 l 83 152 q 141 18 84 54 l 99 -71 l 179 -71 l 210 -5 q 263 -9 235 -9 l 499 -9 q 675 98 651 -9 q 681 152 681 122 l 681 709 q 623 844 680 806 l 663 928 l 583 928 m 206 749 q 220 762 209 761 l 503 762 l 206 151 l 206 749 m 556 113 q 543 99 553 100 l 262 99 l 556 707 l 556 113 z "},"Õ":{"ha":762,"x_min":83,"x_max":681,"o":"m 543 762 q 556 749 555 760 l 556 113 q 543 99 553 100 l 220 99 q 206 113 208 102 l 206 749 q 220 762 209 761 l 543 762 m 83 152 q 194 -3 83 22 q 263 -9 225 -9 l 499 -9 q 675 98 651 -9 q 681 152 681 122 l 681 709 q 564 865 681 842 q 499 871 534 871 l 263 871 q 90 769 115 871 q 83 709 83 742 l 83 152 m 273 956 q 304 1009 274 1008 q 388 981 321 1009 q 475 958 441 958 q 564 1047 551 958 q 567 1093 567 1069 l 490 1093 q 453 1042 481 1046 q 368 1070 431 1042 q 282 1093 316 1093 q 202 1027 217 1093 q 195 958 195 1000 l 273 956 z "},"P":{"ha":686,"x_min":99,"x_max":651,"o":"m 220 0 l 220 327 l 460 327 q 648 468 628 327 q 651 505 651 486 l 651 692 q 460 867 651 868 l 99 861 l 99 0 l 220 0 m 510 761 q 528 745 526 758 l 528 449 q 510 431 525 433 l 220 431 l 220 761 l 510 761 z "},"Q":{"ha":766,"x_min":83,"x_max":681,"o":"m 543 762 q 556 749 555 760 l 556 113 q 543 99 553 100 l 220 99 q 206 113 208 102 l 206 749 q 220 762 209 761 l 543 762 m 83 152 q 194 -3 83 22 q 263 -9 225 -9 l 381 -9 l 418 -157 l 533 -157 l 490 -9 l 499 -9 q 675 98 651 -9 q 681 152 681 122 l 681 709 q 564 865 681 842 q 499 871 534 871 l 263 871 q 90 769 115 871 q 83 709 83 742 l 83 152 z "},"R":{"ha":727,"x_min":99,"x_max":681,"o":"m 220 0 l 220 346 l 425 346 q 446 330 441 343 l 559 0 l 681 0 l 585 275 q 534 357 563 336 q 654 525 652 392 l 654 692 q 461 867 651 868 l 99 861 l 99 0 l 220 0 m 511 761 q 529 745 528 758 l 529 467 q 511 449 526 450 l 220 449 l 220 761 l 511 761 z "},"Ŕ":{"ha":727,"x_min":99,"x_max":681,"o":"m 220 0 l 220 346 l 425 346 q 446 330 441 343 l 559 0 l 681 0 l 585 275 q 534 357 563 336 q 654 525 652 392 l 654 692 q 461 867 651 868 l 99 861 l 99 0 l 220 0 m 511 761 q 529 745 528 758 l 529 467 q 511 449 526 450 l 220 449 l 220 761 l 511 761 m 302 925 l 388 1118 l 510 1116 l 391 925 l 302 925 z "},"Ř":{"ha":727,"x_min":99,"x_max":681,"o":"m 220 0 l 220 346 l 425 346 q 446 330 441 343 l 559 0 l 681 0 l 585 275 q 534 357 563 336 q 654 525 652 392 l 654 692 q 461 867 651 868 l 99 861 l 99 0 l 220 0 m 511 761 q 529 745 528 758 l 529 467 q 511 449 526 450 l 220 449 l 220 761 l 511 761 m 298 932 l 422 932 l 551 1118 l 452 1118 l 361 986 l 281 1118 l 176 1118 l 298 932 z "},"S":{"ha":646,"x_min":56,"x_max":595,"o":"m 197 487 q 179 505 180 490 l 179 739 q 197 757 182 755 l 571 757 l 571 861 l 251 867 q 61 745 92 869 q 56 689 56 718 l 56 548 q 206 380 56 396 q 247 378 227 378 l 454 378 q 472 361 471 376 l 472 122 q 454 104 469 106 l 69 104 l 69 0 l 404 -5 q 595 170 594 -7 l 595 316 q 400 487 593 486 l 197 487 z "},"Ś":{"ha":646,"x_min":56,"x_max":595,"o":"m 197 487 q 179 505 180 490 l 179 739 q 197 757 182 755 l 571 757 l 571 861 l 251 867 q 61 745 92 869 q 56 689 56 718 l 56 548 q 206 380 56 396 q 247 378 227 378 l 454 378 q 472 361 471 376 l 472 122 q 454 104 469 106 l 69 104 l 69 0 l 404 -5 q 595 170 594 -7 l 595 316 q 400 487 593 486 l 197 487 m 275 925 l 361 1118 l 483 1116 l 363 925 l 275 925 z "},"Š":{"ha":646,"x_min":56,"x_max":595,"o":"m 197 487 q 179 505 180 490 l 179 739 q 197 757 182 755 l 571 757 l 571 861 l 251 867 q 61 745 92 869 q 56 689 56 718 l 56 548 q 206 380 56 396 q 247 378 227 378 l 454 378 q 472 361 471 376 l 472 122 q 454 104 469 106 l 69 104 l 69 0 l 404 -5 q 595 170 594 -7 l 595 316 q 400 487 593 486 l 197 487 m 271 932 l 395 932 l 524 1118 l 425 1118 l 334 986 l 254 1118 l 149 1118 l 271 932 z "},"T":{"ha":562,"x_min":7,"x_max":555,"o":"m 340 0 l 340 757 l 555 757 l 555 861 l 7 861 l 7 757 l 220 757 l 220 0 l 340 0 z "},"Ť":{"ha":562,"x_min":7,"x_max":555,"o":"m 340 0 l 340 757 l 555 757 l 555 861 l 7 861 l 7 757 l 220 757 l 220 0 l 340 0 m 227 926 l 350 926 l 479 1112 l 380 1112 l 289 981 l 209 1112 l 104 1112 l 227 926 z "},"Þ":{"ha":712,"x_min":99,"x_max":651,"o":"m 220 0 l 220 179 l 460 179 q 648 320 628 179 q 651 357 651 338 l 651 543 q 460 716 648 715 l 220 716 l 220 861 l 99 861 l 99 0 l 220 0 m 510 610 q 528 593 526 608 l 528 301 q 510 283 525 285 l 220 283 l 220 610 l 510 610 z "},"U":{"ha":761,"x_min":83,"x_max":678,"o":"m 496 -9 q 673 98 648 -9 q 678 152 678 122 l 678 861 l 553 861 l 553 113 q 540 99 551 100 l 220 99 q 206 113 208 102 l 206 861 l 83 861 l 83 152 q 194 -3 83 22 q 263 -9 225 -9 l 496 -9 z "},"Ú":{"ha":761,"x_min":83,"x_max":678,"o":"m 496 -9 q 673 98 648 -9 q 678 152 678 122 l 678 861 l 553 861 l 553 113 q 540 99 551 100 l 220 99 q 206 113 208 102 l 206 861 l 83 861 l 83 152 q 194 -3 83 22 q 263 -9 225 -9 l 496 -9 m 332 925 l 418 1118 l 540 1116 l 420 925 l 332 925 z "},"Û":{"ha":761,"x_min":83,"x_max":678,"o":"m 496 -9 q 673 98 648 -9 q 678 152 678 122 l 678 861 l 553 861 l 553 113 q 540 99 551 100 l 220 99 q 206 113 208 102 l 206 861 l 83 861 l 83 152 q 194 -3 83 22 q 263 -9 225 -9 l 496 -9 m 441 1111 l 317 1111 l 189 925 l 288 925 l 378 1057 l 458 925 l 563 925 l 441 1111 z "},"Ü":{"ha":761,"x_min":83,"x_max":678,"o":"m 496 -9 q 673 98 648 -9 q 678 152 678 122 l 678 861 l 553 861 l 553 113 q 540 99 551 100 l 220 99 q 206 113 208 102 l 206 861 l 83 861 l 83 152 q 194 -3 83 22 q 263 -9 225 -9 l 496 -9 m 319 955 l 319 1077 l 210 1077 l 210 955 l 319 955 m 559 955 l 559 1077 l 450 1077 l 450 955 l 559 955 z "},"Ù":{"ha":761,"x_min":83,"x_max":678,"o":"m 496 -9 q 673 98 648 -9 q 678 152 678 122 l 678 861 l 553 861 l 553 113 q 540 99 551 100 l 220 99 q 206 113 208 102 l 206 861 l 83 861 l 83 152 q 194 -3 83 22 q 263 -9 225 -9 l 496 -9 m 221 1116 l 345 1118 l 435 925 l 350 925 l 221 1116 z "},"Ű":{"ha":761,"x_min":83,"x_max":678,"o":"m 496 -9 q 673 98 648 -9 q 678 152 678 122 l 678 861 l 553 861 l 553 113 q 540 99 551 100 l 220 99 q 206 113 208 102 l 206 861 l 83 861 l 83 152 q 194 -3 83 22 q 263 -9 225 -9 l 496 -9 m 243 925 l 326 1118 l 445 1116 l 328 925 l 243 925 m 427 925 l 513 1118 l 633 1116 l 513 925 l 427 925 z "},"Ū":{"ha":761,"x_min":83,"x_max":678,"o":"m 496 -9 q 673 98 648 -9 q 678 152 678 122 l 678 861 l 553 861 l 553 113 q 540 99 551 100 l 220 99 q 206 113 208 102 l 206 861 l 83 861 l 83 152 q 194 -3 83 22 q 263 -9 225 -9 l 496 -9 m 556 1048 l 206 1048 l 206 962 l 556 962 l 556 1048 z "},"Ų":{"ha":761,"x_min":83,"x_max":678,"o":"m 496 -9 q 673 98 648 -9 q 678 152 678 122 l 678 861 l 553 861 l 553 113 q 540 99 551 100 l 220 99 q 206 113 208 102 l 206 861 l 83 861 l 83 152 q 194 -3 83 22 q 263 -9 225 -9 l 370 -9 l 305 -68 q 270 -157 270 -100 l 270 -187 q 342 -278 270 -263 q 407 -283 368 -283 l 487 -283 l 487 -201 l 374 -201 q 365 -191 366 -198 l 365 -125 q 376 -102 366 -111 l 456 -9 l 496 -9 z "},"Ů":{"ha":761,"x_min":83,"x_max":678,"o":"m 496 -9 q 673 98 648 -9 q 678 152 678 122 l 678 861 l 553 861 l 553 113 q 540 99 551 100 l 220 99 q 206 113 208 102 l 206 861 l 83 861 l 83 152 q 194 -3 83 22 q 263 -9 225 -9 l 496 -9 m 513 1027 q 460 1138 513 1116 q 382 1150 431 1150 q 269 1100 290 1150 q 258 1027 258 1073 q 311 914 258 937 q 382 903 338 903 q 503 963 481 903 q 513 1027 513 989 m 321 1027 q 340 1089 321 1080 q 382 1096 355 1096 q 444 1072 434 1096 q 449 1027 449 1057 q 423 963 449 974 q 382 958 408 958 q 324 989 332 958 q 321 1027 321 1002 z "},"V":{"ha":701,"x_min":12,"x_max":690,"o":"m 498 133 l 690 861 l 578 861 l 384 118 q 370 104 380 106 l 312 104 l 132 861 l 12 861 l 220 0 l 347 -3 q 454 28 427 -4 q 498 133 476 54 z "},"W":{"ha":1051,"x_min":92,"x_max":959,"o":"m 392 -9 q 525 64 496 -8 q 658 -9 552 -8 l 807 -9 q 948 60 921 -9 q 959 133 959 90 l 958 861 l 836 861 l 837 113 q 823 99 834 100 l 598 99 q 585 113 586 102 l 585 861 l 467 861 l 467 113 q 453 99 464 100 l 228 99 q 214 113 216 102 l 214 861 l 92 861 l 92 132 q 168 0 92 26 q 248 -9 199 -9 l 392 -9 z "},"X":{"ha":751,"x_min":11,"x_max":742,"o":"m 433 500 q 416 488 427 488 l 339 488 q 323 500 330 488 l 156 863 l 27 863 l 175 547 q 241 444 213 464 q 255 435 248 438 q 193 362 224 420 q 175 326 190 355 l 11 1 l 134 1 l 317 370 q 334 382 324 382 l 411 382 q 427 370 423 380 l 610 0 l 742 0 l 574 324 q 507 425 533 406 q 492 434 499 430 q 555 510 525 450 q 572 547 560 521 l 724 861 l 602 861 l 433 500 z "},"Y":{"ha":718,"x_min":15,"x_max":701,"o":"m 418 0 l 418 311 q 500 362 473 317 q 532 431 513 384 l 701 861 l 579 861 l 411 426 q 395 412 406 414 l 328 412 q 312 426 317 415 l 142 863 l 15 863 l 183 431 q 250 328 216 350 q 297 312 270 316 l 297 0 l 418 0 z "},"Ý":{"ha":718,"x_min":15,"x_max":701,"o":"m 418 0 l 418 311 q 500 362 473 317 q 532 431 513 384 l 701 861 l 579 861 l 411 426 q 395 412 406 414 l 328 412 q 312 426 317 415 l 142 863 l 15 863 l 183 431 q 250 328 216 350 q 297 312 270 316 l 297 0 l 418 0 m 309 925 l 395 1118 l 517 1116 l 397 925 l 309 925 z "},"Ÿ":{"ha":718,"x_min":15,"x_max":701,"o":"m 418 0 l 418 311 q 500 362 473 317 q 532 431 513 384 l 701 861 l 579 861 l 411 426 q 395 412 406 414 l 328 412 q 312 426 317 415 l 142 863 l 15 863 l 183 431 q 250 328 216 350 q 297 312 270 316 l 297 0 l 418 0 m 296 955 l 296 1077 l 187 1077 l 187 955 l 296 955 m 536 955 l 536 1077 l 427 1077 l 427 955 l 536 955 z "},"Z":{"ha":648,"x_min":41,"x_max":613,"o":"m 602 98 l 197 98 q 187 113 182 98 q 190 118 189 115 l 613 749 q 503 863 610 861 l 73 861 l 73 764 l 463 764 q 475 750 480 764 q 472 746 473 747 l 41 102 q 146 0 43 1 l 601 0 l 602 98 z "},"Ź":{"ha":648,"x_min":41,"x_max":613,"o":"m 602 98 l 197 98 q 187 113 182 98 q 190 118 189 115 l 613 749 q 503 863 610 861 l 73 861 l 73 764 l 463 764 q 475 750 480 764 q 472 746 473 747 l 41 102 q 146 0 43 1 l 601 0 l 602 98 m 279 925 l 365 1118 l 487 1116 l 368 925 l 279 925 z "},"Ž":{"ha":648,"x_min":41,"x_max":613,"o":"m 602 98 l 197 98 q 187 113 182 98 q 190 118 189 115 l 613 749 q 503 863 610 861 l 73 861 l 73 764 l 463 764 q 475 750 480 764 q 472 746 473 747 l 41 102 q 146 0 43 1 l 601 0 l 602 98 m 274 932 l 397 932 l 526 1118 l 427 1118 l 336 986 l 256 1118 l 152 1118 l 274 932 z "},"Ż":{"ha":648,"x_min":41,"x_max":613,"o":"m 602 98 l 197 98 q 187 113 182 98 q 190 118 189 115 l 613 749 q 503 863 610 861 l 73 861 l 73 764 l 463 764 q 475 750 480 764 q 472 746 473 747 l 41 102 q 146 0 43 1 l 601 0 l 602 98 m 385 951 l 385 1085 l 271 1085 l 271 951 l 385 951 z "},"a":{"ha":570,"x_min":42,"x_max":505,"o":"m 388 85 l 171 85 q 157 99 159 88 l 157 288 q 171 301 160 300 l 388 301 l 388 85 m 275 -9 q 391 68 372 -8 l 401 0 l 505 0 l 505 513 q 430 652 505 625 q 338 666 393 666 l 80 665 l 80 568 l 374 568 q 388 555 387 566 l 388 387 l 206 387 q 58 326 88 387 q 42 239 42 293 l 42 133 q 115 0 42 26 q 194 -9 146 -9 l 275 -9 z "},"á":{"ha":570,"x_min":42,"x_max":505,"o":"m 388 85 l 171 85 q 157 99 159 88 l 157 288 q 171 301 160 300 l 388 301 l 388 85 m 275 -9 q 391 68 372 -8 l 401 0 l 505 0 l 505 513 q 430 652 505 625 q 338 666 393 666 l 80 665 l 80 568 l 374 568 q 388 555 387 566 l 388 387 l 206 387 q 58 326 88 387 q 42 239 42 293 l 42 133 q 115 0 42 26 q 194 -9 146 -9 l 275 -9 m 236 750 l 321 943 l 444 941 l 324 750 l 236 750 z "},"ă":{"ha":570,"x_min":42,"x_max":505,"o":"m 388 85 l 171 85 q 157 99 159 88 l 157 288 q 171 301 160 300 l 388 301 l 388 85 m 275 -9 q 391 68 372 -8 l 401 0 l 505 0 l 505 513 q 430 652 505 625 q 338 666 393 666 l 80 665 l 80 568 l 374 568 q 388 555 387 566 l 388 387 l 206 387 q 58 326 88 387 q 42 239 42 293 l 42 133 q 115 0 42 26 q 194 -9 146 -9 l 275 -9 m 134 924 q 187 780 134 812 q 302 757 227 757 q 446 823 416 757 q 463 924 463 861 l 385 924 q 355 841 385 857 q 302 831 335 831 q 218 876 231 831 q 213 924 213 894 l 134 924 z "},"â":{"ha":570,"x_min":42,"x_max":505,"o":"m 388 85 l 171 85 q 157 99 159 88 l 157 288 q 171 301 160 300 l 388 301 l 388 85 m 275 -9 q 391 68 372 -8 l 401 0 l 505 0 l 505 513 q 430 652 505 625 q 338 666 393 666 l 80 665 l 80 568 l 374 568 q 388 555 387 566 l 388 387 l 206 387 q 58 326 88 387 q 42 239 42 293 l 42 133 q 115 0 42 26 q 194 -9 146 -9 l 275 -9 m 345 936 l 221 936 l 92 750 l 191 750 l 282 882 l 362 750 l 467 750 l 345 936 z "},"´":{"ha":384,"x_min":84,"x_max":292,"o":"m 84 750 l 170 943 l 292 941 l 172 750 l 84 750 z "},"ä":{"ha":570,"x_min":42,"x_max":505,"o":"m 388 85 l 171 85 q 157 99 159 88 l 157 288 q 171 301 160 300 l 388 301 l 388 85 m 275 -9 q 391 68 372 -8 l 401 0 l 505 0 l 505 513 q 430 652 505 625 q 338 666 393 666 l 80 665 l 80 568 l 374 568 q 388 555 387 566 l 388 387 l 206 387 q 58 326 88 387 q 42 239 42 293 l 42 133 q 115 0 42 26 q 194 -9 146 -9 l 275 -9 m 222 780 l 222 902 l 114 902 l 114 780 l 222 780 m 463 780 l 463 902 l 354 902 l 354 780 l 463 780 z "},"æ":{"ha":905,"x_min":42,"x_max":849,"o":"m 505 566 q 518 579 507 578 l 720 579 q 734 566 732 576 l 734 361 l 505 361 l 505 566 m 833 -7 l 833 90 l 518 90 q 505 103 506 92 l 505 275 l 849 275 l 849 524 q 783 659 849 632 q 685 674 747 674 l 564 674 q 449 637 472 674 q 445 629 446 632 q 327 665 412 665 l 80 665 l 80 567 l 376 567 q 389 553 388 564 l 389 370 l 206 370 q 58 312 90 370 q 42 222 42 278 l 42 133 q 115 0 42 26 q 194 -9 146 -9 l 285 -9 q 399 75 384 -8 q 560 -7 430 -7 l 833 -7 m 171 85 q 157 99 159 88 l 157 271 q 171 285 160 283 l 389 285 l 389 134 q 395 85 389 104 l 171 85 z "},"à":{"ha":570,"x_min":42,"x_max":505,"o":"m 388 85 l 171 85 q 157 99 159 88 l 157 288 q 171 301 160 300 l 388 301 l 388 85 m 275 -9 q 391 68 372 -8 l 401 0 l 505 0 l 505 513 q 430 652 505 625 q 338 666 393 666 l 80 665 l 80 568 l 374 568 q 388 555 387 566 l 388 387 l 206 387 q 58 326 88 387 q 42 239 42 293 l 42 133 q 115 0 42 26 q 194 -9 146 -9 l 275 -9 m 125 941 l 248 943 l 339 750 l 254 750 l 125 941 z "},"ā":{"ha":570,"x_min":42,"x_max":505,"o":"m 388 85 l 171 85 q 157 99 159 88 l 157 288 q 171 301 160 300 l 388 301 l 388 85 m 275 -9 q 391 68 372 -8 l 401 0 l 505 0 l 505 513 q 430 652 505 625 q 338 666 393 666 l 80 665 l 80 568 l 374 568 q 388 555 387 566 l 388 387 l 206 387 q 58 326 88 387 q 42 239 42 293 l 42 133 q 115 0 42 26 q 194 -9 146 -9 l 275 -9 m 460 873 l 110 873 l 110 787 l 460 787 l 460 873 z "},"&":{"ha":772,"x_min":91,"x_max":732,"o":"m 435 -5 q 628 138 609 -5 q 631 172 631 155 l 631 362 q 648 380 633 378 l 732 380 l 732 490 l 694 490 q 511 368 533 490 q 507 321 507 346 l 507 122 q 490 104 505 106 l 233 104 q 216 122 217 107 l 216 397 q 233 415 218 414 l 408 415 l 408 506 l 240 506 q 222 524 224 509 l 222 741 q 240 758 225 757 l 483 758 q 500 741 499 755 l 500 617 l 624 617 l 624 692 q 433 867 621 865 l 290 867 q 98 692 99 864 l 98 591 q 170 463 99 499 q 91 324 92 429 l 91 172 q 236 -1 91 22 q 288 -5 260 -5 l 435 -5 z "},"ං":{"ha":566,"x_min":30,"x_max":511,"o":"m 103 24 q 30 94 31 27 l 30 528 q 100 605 30 597 q 114 605 107 605 l 437 605 q 511 526 510 602 l 511 99 q 435 24 502 28 l 103 24 m 130 488 l 130 141 q 165 111 133 113 l 378 111 q 411 145 410 114 l 411 487 q 378 521 403 518 l 164 521 q 130 488 132 518 z "},"ą":{"ha":570,"x_min":42,"x_max":530,"o":"m 388 85 l 171 85 q 157 99 159 88 l 157 288 q 171 301 160 300 l 388 301 l 388 85 m 530 -282 l 530 -199 l 418 -199 q 408 -190 410 -197 l 408 -123 q 419 -100 410 -110 l 506 0 l 505 0 l 505 513 q 430 652 505 625 q 338 666 393 666 l 80 665 l 80 568 l 374 568 q 388 555 387 566 l 388 387 l 206 387 q 58 326 88 387 q 42 239 42 293 l 42 133 q 115 0 42 26 q 194 -9 146 -9 l 275 -9 q 391 68 372 -8 l 401 0 l 422 0 l 349 -66 q 313 -156 313 -99 l 313 -186 q 385 -277 313 -262 q 450 -282 411 -282 l 530 -282 z "},"≈":{"ha":575,"x_min":54,"x_max":521,"o":"m 140 396 q 184 450 145 449 q 297 414 206 450 q 411 382 372 382 q 515 473 496 382 q 521 547 521 505 l 437 547 q 388 477 434 479 q 275 515 366 477 q 160 547 199 547 q 61 458 79 547 q 54 396 56 431 l 140 396 m 138 178 q 184 248 140 247 q 296 210 206 248 q 411 179 370 179 q 515 271 496 179 q 521 331 519 298 l 437 331 q 388 274 433 275 q 275 312 366 274 q 160 343 199 343 q 62 262 81 343 q 54 178 54 228 l 138 178 z "},"å":{"ha":570,"x_min":42,"x_max":505,"o":"m 388 85 l 171 85 q 157 99 159 88 l 157 288 q 171 301 160 300 l 388 301 l 388 85 m 275 -9 q 391 68 372 -8 l 401 0 l 505 0 l 505 513 q 430 652 505 625 q 338 666 393 666 l 80 665 l 80 568 l 374 568 q 388 555 387 566 l 388 387 l 206 387 q 58 326 88 387 q 42 239 42 293 l 42 133 q 115 0 42 26 q 194 -9 146 -9 l 275 -9 m 416 852 q 363 963 416 941 q 286 975 335 975 q 172 925 194 975 q 161 852 161 898 q 214 739 161 762 q 286 728 241 728 q 407 788 385 728 q 416 852 416 814 m 225 852 q 244 914 225 905 q 286 921 259 921 q 347 897 338 921 q 353 852 353 882 q 327 788 353 799 q 286 783 312 783 q 228 814 236 783 q 225 852 225 827 z "},"^":{"ha":614,"x_min":62,"x_max":552,"o":"m 269 916 l 62 491 l 156 491 l 307 817 l 457 491 l 552 491 l 343 916 l 269 916 z "},"~":{"ha":575,"x_min":54,"x_max":521,"o":"m 138 298 q 184 369 140 368 q 296 331 206 369 q 411 300 370 300 q 515 395 498 300 q 521 465 521 425 l 437 465 q 388 395 435 396 q 275 433 366 395 q 160 464 199 464 q 61 382 80 464 q 54 300 54 349 l 138 298 z "},"*":{"ha":487,"x_min":43,"x_max":444,"o":"m 205 586 l 237 663 l 208 685 l 144 629 l 96 564 l 159 519 l 205 586 m 392 566 l 343 631 l 279 685 l 251 665 l 283 586 l 331 521 l 392 566 m 366 703 l 444 728 l 420 800 l 343 774 l 273 731 l 283 697 l 366 703 m 262 739 l 281 821 l 281 901 l 205 901 l 205 819 l 225 739 l 262 739 m 202 697 l 214 731 l 144 774 l 66 799 l 43 727 l 119 703 l 202 697 z "},"@":{"ha":888,"x_min":90,"x_max":814,"o":"m 620 -64 l 620 20 l 199 20 q 186 34 187 23 l 186 719 q 199 732 189 731 l 703 732 q 716 719 715 730 l 716 220 q 703 206 713 208 l 633 206 q 620 220 621 209 l 620 620 l 426 624 q 282 549 307 625 q 274 487 274 522 l 274 263 q 357 137 274 156 q 408 132 378 132 l 434 132 q 526 193 509 133 q 627 132 534 133 l 694 132 q 802 182 780 132 q 814 263 814 212 l 814 655 q 703 810 814 785 q 633 817 671 817 l 269 817 q 98 719 125 817 q 90 655 90 690 l 90 98 q 195 -56 90 -31 q 269 -64 227 -64 l 620 -64 m 370 225 l 370 534 q 384 547 373 545 l 525 545 l 525 225 q 511 213 522 213 l 384 213 q 370 225 372 216 z "},"ã":{"ha":570,"x_min":42,"x_max":505,"o":"m 388 85 l 171 85 q 157 99 159 88 l 157 288 q 171 301 160 300 l 388 301 l 388 85 m 275 -9 q 391 68 372 -8 l 401 0 l 505 0 l 505 513 q 430 652 505 625 q 338 666 393 666 l 80 665 l 80 568 l 374 568 q 388 555 387 566 l 388 387 l 206 387 q 58 326 88 387 q 42 239 42 293 l 42 133 q 115 0 42 26 q 194 -9 146 -9 l 275 -9 m 174 781 q 205 834 175 833 q 289 806 222 834 q 376 783 342 783 q 465 872 452 783 q 468 918 468 894 l 391 918 q 354 867 382 871 q 269 895 332 867 q 183 918 217 918 q 103 852 118 918 q 96 783 96 823 l 174 781 z "},"b":{"ha":608,"x_min":77,"x_max":545,"o":"m 381 -5 q 530 56 499 -8 q 545 142 545 90 l 545 532 q 472 665 545 639 q 393 674 441 674 l 307 674 q 194 608 217 673 l 194 916 l 77 916 l 77 0 l 381 -5 m 194 566 q 208 579 197 578 l 416 579 q 430 566 429 576 l 430 104 q 416 91 427 92 l 194 94 l 194 566 z "},"\\":{"ha":551,"x_min":7,"x_max":544,"o":"m 426 -130 l 544 -130 l 123 916 l 7 916 l 426 -130 z "},"|":{"ha":361,"x_min":132,"x_max":229,"o":"m 229 -77 l 229 916 l 132 916 l 132 -77 l 229 -77 z "},"{":{"ha":425,"x_min":71,"x_max":396,"o":"m 248 821 q 262 834 251 833 l 396 834 l 396 922 l 319 922 q 127 751 129 920 l 127 412 q 113 397 125 399 l 71 397 l 71 294 l 113 294 q 127 279 126 292 l 127 -60 q 319 -231 130 -229 l 396 -231 l 396 -142 l 262 -142 q 248 -129 250 -140 l 248 222 q 156 346 247 330 q 248 469 247 363 l 248 821 z "},"}":{"ha":425,"x_min":28,"x_max":354,"o":"m 176 821 q 163 834 174 833 l 28 834 l 28 922 l 106 922 q 297 751 296 920 l 297 412 q 312 397 300 399 l 354 397 l 354 294 l 312 294 q 297 279 298 292 l 297 -60 q 106 -231 294 -229 l 28 -231 l 28 -142 l 163 -142 q 176 -129 175 -140 l 176 222 q 269 346 178 330 q 176 469 178 363 l 176 821 z "},"[":{"ha":384,"x_min":84,"x_max":345,"o":"m 345 -231 l 345 -145 l 202 -145 l 202 837 l 345 837 l 345 922 l 84 922 l 84 -231 l 345 -231 z "},"]":{"ha":384,"x_min":39,"x_max":300,"o":"m 39 -231 l 39 -145 l 182 -145 l 182 837 l 39 837 l 39 922 l 300 922 l 300 -231 l 39 -231 z "},"˘":{"ha":472,"x_min":81,"x_max":410,"o":"m 81 924 q 134 780 81 812 q 250 757 174 757 q 393 823 363 757 q 410 924 410 861 l 332 924 q 302 841 332 857 q 250 831 282 831 q 165 876 178 831 q 160 924 160 894 l 81 924 z "},"¦":{"ha":377,"x_min":140,"x_max":237,"o":"m 237 -77 l 237 308 l 140 308 l 140 -77 l 237 -77 m 237 530 l 237 916 l 140 916 l 140 530 l 237 530 z "},"•":{"ha":399,"x_min":102,"x_max":296,"o":"m 102 336 q 189 259 104 260 l 210 259 q 296 336 292 266 l 296 427 q 210 505 285 500 l 189 505 q 102 427 103 502 l 102 336 z "},"c":{"ha":467,"x_min":62,"x_max":444,"o":"m 444 -9 l 444 88 l 193 88 q 180 102 182 91 l 180 563 q 193 576 183 575 l 444 576 l 444 674 l 237 674 q 77 604 109 674 q 62 518 62 570 l 62 146 q 142 3 62 31 q 237 -9 180 -9 l 444 -9 z "},"ć":{"ha":467,"x_min":62,"x_max":444,"o":"m 444 -9 l 444 88 l 193 88 q 180 102 182 91 l 180 563 q 193 576 183 575 l 444 576 l 444 674 l 237 674 q 77 604 109 674 q 62 518 62 570 l 62 146 q 142 3 62 31 q 237 -9 180 -9 l 444 -9 m 198 750 l 283 943 l 406 941 l 286 750 l 198 750 z "},"ˇ":{"ha":500,"x_min":68,"x_max":442,"o":"m 190 757 l 313 757 l 442 943 l 343 943 l 252 811 l 172 943 l 68 943 l 190 757 z "},"č":{"ha":467,"x_min":62,"x_max":465,"o":"m 444 -9 l 444 88 l 193 88 q 180 102 182 91 l 180 563 q 193 576 183 575 l 444 576 l 444 674 l 237 674 q 77 604 109 674 q 62 518 62 570 l 62 146 q 142 3 62 31 q 237 -9 180 -9 l 444 -9 m 213 757 l 336 757 l 465 943 l 366 943 l 275 811 l 195 943 l 91 943 l 213 757 z "},"ç":{"ha":467,"x_min":62,"x_max":444,"o":"m 444 -9 l 444 88 l 193 88 q 180 102 182 91 l 180 563 q 193 576 183 575 l 444 576 l 444 674 l 237 674 q 77 604 109 674 q 62 518 62 570 l 62 146 q 141 3 62 33 q 218 -9 172 -8 l 193 -129 l 305 -129 q 315 -138 313 -132 l 315 -201 q 305 -210 312 -209 l 176 -210 l 176 -282 l 274 -282 q 395 -174 393 -279 l 395 -151 q 311 -65 395 -73 q 286 -64 298 -64 l 270 -64 l 281 -9 l 444 -9 z "},"¸":{"ha":359,"x_min":76,"x_max":294,"o":"m 214 -201 q 205 -210 212 -209 l 76 -210 l 76 -282 l 174 -282 q 294 -174 293 -279 l 294 -151 q 210 -65 294 -73 q 186 -64 198 -64 l 170 -64 l 183 5 l 123 15 l 92 -129 l 205 -129 q 214 -138 213 -132 l 214 -201 z "},"¢":{"ha":473,"x_min":57,"x_max":445,"o":"m 445 87 l 445 184 l 187 184 q 174 198 175 187 l 174 647 q 187 661 176 659 l 445 661 l 445 757 l 316 757 l 316 872 l 221 872 l 221 757 q 69 680 98 754 q 57 601 57 647 l 57 243 q 141 99 57 126 q 221 87 175 88 l 221 -26 l 316 -26 l 316 87 l 445 87 z "},"ˆ":{"ha":500,"x_min":58,"x_max":433,"o":"m 311 936 l 187 936 l 58 750 l 157 750 l 248 882 l 328 750 l 433 750 l 311 936 z "},":":{"ha":286,"x_min":84,"x_max":203,"o":"m 203 35 l 203 180 l 84 180 l 84 35 l 203 35 m 203 391 l 203 536 l 84 536 l 84 391 l 203 391 z "},",":{"ha":237,"x_min":58,"x_max":175,"o":"m 58 3 l 99 3 q 58 -107 95 -53 l 99 -138 q 175 24 174 -61 l 175 145 l 58 145 l 58 3 z "},"©":{"ha":696,"x_min":91,"x_max":606,"o":"m 524 814 q 536 802 534 811 l 536 297 q 524 285 533 286 l 172 285 q 160 297 161 288 l 160 802 q 172 814 163 812 l 524 814 m 91 357 q 159 236 91 258 q 233 227 189 227 l 463 227 q 595 289 571 227 q 606 357 606 316 l 606 742 q 534 863 606 841 q 463 871 505 871 l 233 871 q 102 810 126 871 q 91 742 91 783 l 91 357 m 481 334 l 481 415 l 323 415 q 311 429 312 418 l 311 669 q 323 682 313 681 l 481 682 l 481 764 l 361 764 q 227 707 254 764 q 213 628 213 677 l 213 471 q 278 346 213 370 q 361 334 309 334 l 481 334 z "},"¤":{"ha":796,"x_min":57,"x_max":738,"o":"m 507 583 q 521 570 519 581 l 521 277 q 507 263 518 264 l 293 263 q 279 277 281 266 l 279 570 q 293 583 282 582 l 507 583 m 164 320 q 175 251 164 281 l 57 133 l 122 68 l 236 182 q 340 164 277 164 l 460 164 q 562 180 521 164 l 674 68 l 738 133 l 624 247 q 636 320 636 277 l 636 526 q 624 601 636 571 l 738 715 l 674 780 l 560 666 q 460 682 518 682 l 340 682 q 237 665 277 682 l 125 777 l 61 713 l 175 597 q 164 526 164 566 l 164 320 z "},"d":{"ha":606,"x_min":62,"x_max":532,"o":"m 414 916 l 414 667 l 227 669 q 79 609 109 670 q 62 521 62 575 l 62 133 q 136 0 62 26 q 214 -9 167 -9 l 301 -9 q 416 68 397 -8 l 429 0 l 532 0 l 532 916 l 414 916 m 414 99 q 400 85 411 87 l 191 85 q 178 99 179 88 l 178 562 q 191 575 180 574 l 414 572 l 414 99 z "},"†":{"ha":543,"x_min":33,"x_max":510,"o":"m 296 0 l 311 334 l 311 488 l 290 612 l 254 612 l 232 488 l 232 332 l 247 0 l 296 0 m 153 610 l 235 631 l 235 666 l 155 686 l 33 686 l 33 610 l 153 610 m 510 610 l 510 686 l 388 686 l 308 666 l 308 631 l 389 610 l 510 610 m 290 685 l 309 766 l 309 901 l 233 901 l 233 765 l 254 685 l 290 685 z "},"‡":{"ha":709,"x_min":33,"x_max":510,"o":"m 290 278 l 309 370 l 309 522 l 290 614 l 254 614 l 233 522 l 233 370 l 254 278 l 290 278 m 309 -8 l 309 125 l 290 205 l 254 205 l 233 125 l 233 -8 l 309 -8 m 155 203 l 235 224 l 235 260 l 153 279 l 33 279 l 33 203 l 155 203 m 510 203 l 510 279 l 389 279 l 308 260 l 308 224 l 388 203 l 510 203 m 195 627 l 235 655 l 194 684 l 102 689 l 33 640 l 84 613 l 195 627 m 510 613 l 510 689 l 388 689 l 308 669 l 308 633 l 389 613 l 510 613 m 290 688 l 309 769 l 309 901 l 233 901 l 233 768 l 254 688 l 290 688 z "},"ď":{"ha":703,"x_min":62,"x_max":707,"o":"m 414 916 l 414 667 l 227 669 q 79 609 109 670 q 62 521 62 575 l 62 133 q 136 0 62 26 q 214 -9 167 -9 l 301 -9 q 416 68 397 -8 l 429 0 l 532 0 l 532 916 l 414 916 m 414 99 q 400 85 411 87 l 191 85 q 178 99 179 88 l 178 562 q 191 575 180 574 l 414 572 l 414 99 m 597 784 l 635 784 q 597 682 632 732 l 635 652 q 705 804 705 724 l 705 917 l 597 917 l 597 784 z "},"đ":{"ha":606,"x_min":62,"x_max":587,"o":"m 414 916 l 414 844 l 274 844 l 274 761 l 414 761 l 414 667 l 227 669 q 79 609 109 670 q 62 521 62 575 l 62 133 q 136 0 62 26 q 214 -9 167 -9 l 301 -9 q 416 68 397 -8 l 429 0 l 532 0 l 532 761 l 587 761 l 587 844 l 532 844 l 532 916 l 414 916 m 414 99 q 400 85 411 87 l 191 85 q 178 99 179 88 l 178 562 q 191 575 180 574 l 414 572 l 414 99 z "},"°":{"ha":403,"x_min":39,"x_max":363,"o":"m 39 590 q 127 484 39 496 q 159 483 142 483 l 243 483 q 362 571 354 483 q 363 590 363 581 l 363 762 q 271 869 363 859 q 243 871 258 871 l 159 871 q 41 791 54 871 q 39 762 39 777 l 39 590 m 259 792 q 273 779 271 789 l 273 575 q 259 562 270 563 l 142 562 q 129 575 130 564 l 129 779 q 142 792 132 791 l 259 792 z "},"¨":{"ha":479,"x_min":68,"x_max":416,"o":"m 176 780 l 176 902 l 68 902 l 68 780 l 176 780 m 416 780 l 416 902 l 308 902 l 308 780 l 416 780 z "},"÷":{"ha":670,"x_min":73,"x_max":598,"o":"m 598 354 l 598 442 l 73 442 l 73 354 l 598 354 m 392 92 l 392 232 l 278 232 l 278 92 l 392 92 m 392 566 l 392 704 l 278 704 l 278 566 l 392 566 z "},"$":{"ha":654,"x_min":65,"x_max":578,"o":"m 205 475 q 189 491 189 475 l 189 686 q 205 704 191 703 l 552 704 l 552 810 l 378 812 l 378 947 l 275 947 l 275 814 l 259 814 q 72 694 103 817 q 65 636 65 667 l 65 534 q 194 370 65 393 q 256 366 222 366 l 438 366 q 454 349 453 363 l 454 146 q 438 129 452 130 l 81 129 l 81 23 l 275 20 l 275 -111 l 378 -111 l 378 19 l 387 19 q 578 194 576 18 l 578 307 q 387 475 575 473 l 205 475 z "},"˙":{"ha":222,"x_min":54,"x_max":168,"o":"m 168 776 l 168 910 l 54 910 l 54 776 l 168 776 z "},"ı":{"ha":293,"x_min":88,"x_max":205,"o":"m 205 0 l 205 665 l 88 665 l 88 0 l 205 0 z "},"◌":{"ha":757,"x_min":61,"x_max":684,"o":"m 138 130 q 175 165 142 164 q 212 130 210 163 q 175 95 208 96 q 138 130 138 98 m 81 222 q 117 258 85 256 q 151 221 151 255 q 115 186 148 187 q 81 222 81 189 m 227 72 q 263 107 231 106 q 298 72 298 104 q 262 37 294 38 q 227 72 227 39 m 331 50 q 366 85 334 84 q 400 50 400 83 q 365 15 396 16 q 331 50 331 18 m 61 326 q 98 361 65 359 q 133 326 133 358 q 98 290 129 292 q 61 326 62 293 m 83 431 q 118 467 87 465 q 152 435 153 467 q 152 430 152 431 q 118 395 148 396 q 83 431 83 397 m 437 72 q 473 107 441 106 q 509 72 509 104 q 472 37 505 38 q 437 72 437 39 m 146 521 q 183 555 151 553 q 217 519 220 552 q 180 486 213 487 q 146 521 146 488 m 529 130 q 564 165 533 164 q 598 130 598 163 q 563 95 594 96 q 529 125 528 95 q 529 130 529 129 m 236 581 q 273 616 240 614 q 308 579 307 613 q 271 544 304 545 q 236 581 236 547 m 587 222 q 625 258 594 256 q 661 221 661 255 q 623 186 656 187 q 587 222 587 189 m 342 601 q 377 636 346 635 q 411 600 411 633 q 376 564 408 566 q 342 595 343 564 q 342 601 342 600 m 610 326 q 647 361 614 359 q 682 326 682 358 q 647 290 678 292 q 610 326 612 293 m 446 581 q 483 616 450 614 q 518 579 517 613 q 481 544 514 545 q 446 581 446 547 m 593 430 q 629 465 595 464 q 665 429 665 463 q 628 393 661 395 q 593 430 593 396 m 533 521 q 571 555 537 553 q 606 519 606 552 q 570 486 602 487 q 533 521 534 488 z "},"e":{"ha":583,"x_min":65,"x_max":528,"o":"m 511 -7 l 511 90 l 195 90 q 182 103 183 92 l 182 259 l 528 259 l 528 524 q 461 659 528 632 q 363 674 426 674 l 224 674 q 83 620 114 674 q 65 524 65 586 l 65 149 q 145 5 65 34 q 240 -7 183 -7 l 511 -7 m 182 566 q 195 579 184 578 l 397 579 q 411 566 410 576 l 411 345 l 182 345 l 182 566 z "},"é":{"ha":583,"x_min":65,"x_max":528,"o":"m 511 -7 l 511 90 l 195 90 q 182 103 183 92 l 182 259 l 528 259 l 528 524 q 461 659 528 632 q 363 674 426 674 l 224 674 q 83 620 114 674 q 65 524 65 586 l 65 149 q 145 5 65 34 q 240 -7 183 -7 l 511 -7 m 182 566 q 195 579 184 578 l 397 579 q 411 566 410 576 l 411 345 l 182 345 l 182 566 m 247 750 l 332 943 l 454 941 l 335 750 l 247 750 z "},"ě":{"ha":583,"x_min":65,"x_max":528,"o":"m 511 -7 l 511 90 l 195 90 q 182 103 183 92 l 182 259 l 528 259 l 528 524 q 461 659 528 632 q 363 674 426 674 l 224 674 q 83 620 114 674 q 65 524 65 586 l 65 149 q 145 5 65 34 q 240 -7 183 -7 l 511 -7 m 182 566 q 195 579 184 578 l 397 579 q 411 566 410 576 l 411 345 l 182 345 l 182 566 m 241 757 l 365 757 l 494 943 l 395 943 l 304 811 l 224 943 l 119 943 l 241 757 z "},"ê":{"ha":583,"x_min":65,"x_max":528,"o":"m 511 -7 l 511 90 l 195 90 q 182 103 183 92 l 182 259 l 528 259 l 528 524 q 461 659 528 632 q 363 674 426 674 l 224 674 q 83 620 114 674 q 65 524 65 586 l 65 149 q 145 5 65 34 q 240 -7 183 -7 l 511 -7 m 182 566 q 195 579 184 578 l 397 579 q 411 566 410 576 l 411 345 l 182 345 l 182 566 m 355 936 l 232 936 l 103 750 l 202 750 l 293 882 l 373 750 l 477 750 l 355 936 z "},"ë":{"ha":583,"x_min":65,"x_max":528,"o":"m 511 -7 l 511 90 l 195 90 q 182 103 183 92 l 182 259 l 528 259 l 528 524 q 461 659 528 632 q 363 674 426 674 l 224 674 q 83 620 114 674 q 65 524 65 586 l 65 149 q 145 5 65 34 q 240 -7 183 -7 l 511 -7 m 182 566 q 195 579 184 578 l 397 579 q 411 566 410 576 l 411 345 l 182 345 l 182 566 m 232 780 l 232 902 l 123 902 l 123 780 l 232 780 m 472 780 l 472 902 l 363 902 l 363 780 l 472 780 z "},"ė":{"ha":583,"x_min":65,"x_max":528,"o":"m 511 -7 l 511 90 l 195 90 q 182 103 183 92 l 182 259 l 528 259 l 528 524 q 461 659 528 632 q 363 674 426 674 l 224 674 q 83 620 114 674 q 65 524 65 586 l 65 149 q 145 5 65 34 q 240 -7 183 -7 l 511 -7 m 182 566 q 195 579 184 578 l 397 579 q 411 566 410 576 l 411 345 l 182 345 l 182 566 m 353 776 l 353 910 l 239 910 l 239 776 l 353 776 z "},"è":{"ha":583,"x_min":65,"x_max":528,"o":"m 511 -7 l 511 90 l 195 90 q 182 103 183 92 l 182 259 l 528 259 l 528 524 q 461 659 528 632 q 363 674 426 674 l 224 674 q 83 620 114 674 q 65 524 65 586 l 65 149 q 145 5 65 34 q 240 -7 183 -7 l 511 -7 m 182 566 q 195 579 184 578 l 397 579 q 411 566 410 576 l 411 345 l 182 345 l 182 566 m 136 941 l 259 943 l 350 750 l 264 750 l 136 941 z "},"…":{"ha":780,"x_min":76,"x_max":704,"o":"m 449 0 l 449 140 l 332 140 l 332 0 l 449 0 m 704 0 l 704 140 l 587 140 l 587 0 l 704 0 m 193 0 l 193 140 l 76 140 l 76 0 l 193 0 z "},"ē":{"ha":583,"x_min":65,"x_max":528,"o":"m 511 -7 l 511 90 l 195 90 q 182 103 183 92 l 182 259 l 528 259 l 528 524 q 461 659 528 632 q 363 674 426 674 l 224 674 q 83 620 114 674 q 65 524 65 586 l 65 149 q 145 5 65 34 q 240 -7 183 -7 l 511 -7 m 182 566 q 195 579 184 578 l 397 579 q 411 566 410 576 l 411 345 l 182 345 l 182 566 m 471 873 l 121 873 l 121 787 l 471 787 l 471 873 z "},"—":{"ha":871,"x_min":-1,"x_max":872,"o":"m 872 435 l -1 435 l -1 339 l 872 339 l 872 435 z "},"–":{"ha":576,"x_min":27,"x_max":549,"o":"m 549 435 l 27 435 l 27 339 l 549 339 l 549 435 z "},"ę":{"ha":583,"x_min":65,"x_max":536,"o":"m 511 -7 l 511 90 l 195 90 q 182 103 183 92 l 182 259 l 528 259 l 528 524 q 461 659 528 632 q 363 674 426 674 l 224 674 q 83 620 114 674 q 65 524 65 586 l 65 149 q 145 5 65 34 q 240 -7 183 -7 l 427 -7 l 354 -73 q 319 -163 319 -106 l 319 -193 q 391 -283 319 -269 q 456 -289 416 -289 l 536 -289 l 536 -206 l 423 -206 q 414 -197 415 -203 l 414 -130 q 425 -107 415 -117 l 511 -7 m 182 566 q 195 579 184 578 l 397 579 q 411 566 410 576 l 411 345 l 182 345 l 182 566 z "},"=":{"ha":689,"x_min":73,"x_max":609,"o":"m 609 529 l 73 529 l 73 441 l 609 441 l 609 529 m 609 285 l 73 285 l 73 197 l 609 197 l 609 285 z "},"℮":{"ha":686,"x_min":64,"x_max":623,"o":"m 178 117 l 178 347 l 623 347 q 500 625 623 537 q 351 674 433 674 q 115 533 195 674 q 64 330 64 444 q 171 56 64 152 q 345 -9 245 -9 q 553 76 461 -9 q 582 106 570 91 l 556 133 q 362 30 477 38 q 347 30 354 30 q 198 91 259 30 q 178 117 186 104 m 502 572 l 502 387 l 178 387 l 178 545 q 351 635 237 635 q 502 572 444 633 z "},"ð":{"ha":605,"x_min":62,"x_max":594,"o":"m 358 -9 q 517 61 486 -9 q 532 146 532 95 l 532 766 q 526 825 532 803 l 594 861 l 566 917 l 498 880 q 365 920 458 920 l 160 918 l 160 831 l 401 831 l 406 831 l 271 758 l 301 703 l 415 765 l 415 640 l 235 640 q 77 570 109 640 q 62 483 62 536 l 62 146 q 142 3 62 31 q 237 -9 180 -9 l 358 -9 m 179 102 l 179 537 q 193 551 182 549 l 416 551 l 416 102 q 403 88 414 90 l 193 88 q 179 102 180 91 z "},"!":{"ha":304,"x_min":102,"x_max":225,"o":"m 198 262 l 225 662 l 225 875 l 102 875 l 102 662 l 129 262 l 198 262 m 222 0 l 222 137 l 106 137 l 106 0 l 222 0 z "},"¡":{"ha":301,"x_min":95,"x_max":218,"o":"m 122 403 l 95 3 l 95 -210 l 218 -210 l 218 3 l 191 403 l 122 403 m 98 665 l 98 528 l 214 528 l 214 665 l 98 665 z "},"f":{"ha":400,"x_min":31,"x_max":420,"o":"m 420 827 l 420 925 l 278 925 q 126 859 156 926 q 111 772 111 825 l 111 665 l 31 665 l 31 574 l 111 574 l 111 0 l 228 0 l 228 574 l 397 574 l 397 665 l 228 665 l 228 814 q 240 827 231 826 l 420 827 z "},"ﬁ":{"ha":674,"x_min":27,"x_max":586,"o":"m 586 0 l 586 665 l 469 665 l 469 0 l 586 0 m 377 574 l 377 665 l 229 665 l 229 810 q 243 823 232 822 l 397 823 l 397 921 l 279 921 q 127 854 157 922 q 113 768 113 821 l 113 665 l 27 665 l 27 574 l 113 574 l 113 0 l 229 0 l 229 574 l 377 574 m 586 808 l 586 921 l 469 921 l 469 808 l 586 808 z "},"ﬂ":{"ha":678,"x_min":27,"x_max":593,"o":"m 388 574 l 388 665 l 227 665 l 227 814 q 240 827 229 826 l 400 827 l 400 925 l 277 925 q 125 859 155 926 q 110 772 110 825 l 110 665 l 27 665 l 27 574 l 110 574 l 110 0 l 227 0 l 227 574 l 388 574 m 593 0 l 593 916 l 476 916 l 476 0 l 593 0 z "},"ƒ":{"ha":533,"x_min":12,"x_max":500,"o":"m 99 -258 q 243 -201 210 -258 q 266 -104 262 -165 l 312 464 l 453 464 l 453 556 l 319 556 l 339 814 q 353 827 343 826 l 500 827 l 500 925 l 391 925 q 247 865 279 926 q 224 772 228 831 l 206 556 l 117 556 l 117 464 l 199 464 l 151 -146 q 137 -160 146 -159 l 12 -160 l 12 -258 l 99 -258 z "},"⁴":{"ha":518,"x_min":24,"x_max":472,"o":"m 393 338 l 393 453 l 472 453 l 472 532 l 393 532 l 393 863 l 286 865 q 208 834 232 865 q 183 795 198 822 l 24 517 l 24 453 l 296 453 l 296 338 l 393 338 m 266 777 q 277 784 273 784 l 296 784 l 296 532 l 122 532 l 266 777 z "},"⁄":{"ha":616,"x_min":16,"x_max":587,"o":"m 490 871 l 16 -9 l 115 -9 l 587 871 l 490 871 z "},"g":{"ha":591,"x_min":62,"x_max":532,"o":"m 414 99 q 400 85 411 87 l 191 85 q 178 99 179 88 l 178 559 q 191 572 180 571 l 414 570 l 414 99 m 400 -171 l 87 -171 l 87 -267 l 355 -267 q 518 -194 486 -267 q 532 -111 532 -160 l 532 665 l 227 669 q 79 609 109 670 q 62 521 62 575 l 62 133 q 136 0 62 26 q 214 -9 167 -9 l 301 -9 q 414 57 391 -8 l 414 -157 q 400 -171 411 -170 z "},"ğ":{"ha":591,"x_min":62,"x_max":532,"o":"m 414 99 q 400 85 411 87 l 191 85 q 178 99 179 88 l 178 559 q 191 572 180 571 l 414 570 l 414 99 m 400 -171 l 87 -171 l 87 -267 l 355 -267 q 518 -194 486 -267 q 532 -111 532 -160 l 532 665 l 227 669 q 79 609 109 670 q 62 521 62 575 l 62 133 q 136 0 62 26 q 214 -9 167 -9 l 301 -9 q 414 57 391 -8 l 414 -157 q 400 -171 411 -170 m 145 924 q 198 780 145 812 q 313 757 237 757 q 457 823 427 757 q 473 924 473 861 l 396 924 q 366 841 396 857 q 313 831 346 831 q 229 876 241 831 q 224 924 224 894 l 145 924 z "},"ß":{"ha":655,"x_min":30,"x_max":600,"o":"m 403 -5 q 598 142 581 -5 q 600 172 600 157 l 600 323 q 513 464 598 431 q 579 590 578 500 l 579 692 q 387 867 576 865 l 293 867 q 103 693 104 864 l 103 665 l 30 665 l 30 574 l 103 574 l 103 0 l 220 0 l 220 751 q 237 769 222 768 l 444 769 q 461 751 460 766 l 461 521 q 439 503 458 505 l 289 503 l 289 408 l 464 408 q 481 391 480 406 l 481 110 q 464 92 479 94 l 289 92 l 289 -5 l 403 -5 z "},"`":{"ha":392,"x_min":49,"x_max":263,"o":"m 49 941 l 172 943 l 263 750 l 178 750 l 49 941 z "},">":{"ha":635,"x_min":77,"x_max":571,"o":"m 571 446 l 77 692 l 77 589 l 456 408 l 77 228 l 77 126 l 571 373 l 571 446 z "},"≥":{"ha":632,"x_min":71,"x_max":563,"o":"m 563 458 l 71 686 l 71 583 l 444 420 l 71 255 l 71 155 l 563 384 l 563 458 m 551 125 l 71 125 l 71 37 l 551 37 l 551 125 z "},"«":{"ha":540,"x_min":43,"x_max":507,"o":"m 57 326 l 195 113 l 294 113 l 165 335 q 165 357 160 346 l 300 578 l 203 578 l 57 362 q 54 330 43 345 q 57 326 56 327 m 264 326 l 399 113 l 502 113 l 373 335 q 373 357 368 346 l 507 578 l 408 578 l 264 362 q 263 328 252 345 q 264 326 264 327 z "},"»":{"ha":541,"x_min":20,"x_max":484,"o":"m 471 365 l 332 578 l 233 578 l 362 355 q 362 334 368 345 l 228 113 l 324 113 l 471 328 q 473 361 484 346 q 471 365 472 363 m 263 365 l 129 578 l 26 578 l 155 355 q 155 334 160 345 l 20 113 l 119 113 l 263 328 q 264 362 275 346 q 263 365 264 363 z "},"‹":{"ha":343,"x_min":42,"x_max":311,"o":"m 56 326 l 194 113 l 305 113 l 175 335 q 175 357 170 347 l 311 578 l 202 578 l 56 362 q 53 330 42 345 q 56 326 54 327 z "},"›":{"ha":343,"x_min":33,"x_max":301,"o":"m 288 365 l 149 578 l 38 578 l 168 355 q 168 334 174 343 l 33 113 l 141 113 l 288 328 q 290 361 301 346 q 288 365 289 363 z "},"h":{"ha":605,"x_min":72,"x_max":541,"o":"m 301 674 q 189 617 216 673 l 189 916 l 72 916 l 73 0 l 189 0 l 189 566 q 202 579 191 578 l 411 579 q 425 566 423 576 l 425 0 l 541 0 l 541 532 q 467 665 541 640 q 388 674 434 674 l 301 674 z "},"˝":{"ha":500,"x_min":71,"x_max":461,"o":"m 71 750 l 153 943 l 273 941 l 156 750 l 71 750 m 255 750 l 340 943 l 461 941 l 340 750 l 255 750 z "},"-":{"ha":435,"x_min":42,"x_max":393,"o":"m 393 435 l 42 435 l 42 339 l 393 339 l 393 435 z "},"i":{"ha":290,"x_min":87,"x_max":203,"o":"m 203 0 l 203 665 l 87 665 l 87 0 l 203 0 m 203 792 l 203 903 l 87 903 l 87 792 l 203 792 z "},"í":{"ha":293,"x_min":88,"x_max":305,"o":"m 205 0 l 205 665 l 88 665 l 88 0 l 205 0 m 98 750 l 183 943 l 305 941 l 186 750 l 98 750 z "},"î":{"ha":293,"x_min":-46,"x_max":328,"o":"m 205 0 l 205 665 l 88 665 l 88 0 l 205 0 m 206 936 l 83 936 l -46 750 l 53 750 l 144 882 l 224 750 l 328 750 l 206 936 z "},"ï":{"ha":293,"x_min":-24,"x_max":324,"o":"m 205 0 l 205 665 l 88 665 l 88 0 l 205 0 m 84 780 l 84 902 l -24 902 l -24 780 l 84 780 m 324 780 l 324 902 l 216 902 l 216 780 l 324 780 z "},"ì":{"ha":293,"x_min":-14,"x_max":205,"o":"m 205 0 l 205 665 l 88 665 l 88 0 l 205 0 m -14 941 l 110 943 l 201 750 l 115 750 l -14 941 z "},"ī":{"ha":293,"x_min":-3,"x_max":296,"o":"m 205 0 l 205 665 l 88 665 l 88 0 l 205 0 m 296 873 l -3 873 l -3 787 l 296 787 l 296 873 z "},"∞":{"ha":1040,"x_min":57,"x_max":983,"o":"m 182 250 q 165 264 167 251 l 165 483 q 182 498 168 496 l 368 498 q 389 483 380 496 l 464 369 l 397 270 q 361 250 373 251 l 182 250 m 822 153 q 983 312 982 156 l 983 437 q 878 589 983 568 q 822 594 853 594 l 701 594 q 635 583 662 594 q 597 557 609 571 q 557 505 585 544 l 556 503 l 526 458 l 499 499 q 423 579 453 564 q 346 594 393 594 l 217 594 q 72 528 102 594 q 57 437 57 492 l 57 312 q 140 163 57 190 q 217 153 172 153 l 338 153 q 446 198 408 153 q 487 254 457 210 l 514 293 l 543 250 q 609 174 587 187 q 699 153 640 153 l 822 153 m 692 250 q 654 263 665 250 q 648 271 651 267 l 575 382 l 642 480 q 670 498 656 498 l 859 498 q 875 483 873 495 l 875 264 q 859 250 872 251 l 692 250 z "},"∫":{"ha":465,"x_min":18,"x_max":435,"o":"m 165 766 l 165 -145 q 152 -159 163 -157 l 18 -159 l 18 -267 l 118 -267 q 277 -182 248 -267 q 286 -109 286 -151 l 286 803 q 300 817 289 815 l 435 817 l 435 925 l 335 925 q 175 837 203 925 q 165 766 165 807 z "},"į":{"ha":293,"x_min":12,"x_max":229,"o":"m 205 0 l 205 665 l 88 665 l 88 0 l 121 0 l 47 -66 q 12 -156 12 -99 l 12 -186 q 84 -277 12 -262 q 149 -282 110 -282 l 229 -282 l 229 -199 l 117 -199 q 107 -190 109 -197 l 107 -123 q 118 -100 109 -110 l 205 0 m 203 776 l 203 910 l 90 910 l 90 776 l 203 776 z "},"j":{"ha":277,"x_min":-43,"x_max":199,"o":"m 199 792 l 199 903 l 84 903 l 84 792 l 199 792 m 71 -170 l -43 -170 l -43 -267 l 24 -267 q 184 -197 153 -267 q 199 -111 199 -163 l 199 665 l 84 665 l 84 -156 q 71 -170 81 -168 z "},"k":{"ha":612,"x_min":85,"x_max":606,"o":"m 370 298 q 384 285 380 296 l 488 0 l 606 0 l 519 236 q 460 340 488 320 q 435 353 449 349 q 488 453 463 372 q 490 457 490 456 l 555 665 l 442 665 l 361 408 q 346 395 355 396 l 201 395 l 201 916 l 85 916 l 85 0 l 201 0 l 201 298 l 370 298 z "},"l":{"ha":289,"x_min":87,"x_max":202,"o":"m 202 0 l 202 916 l 87 916 l 87 0 l 202 0 z "},"ĺ":{"ha":289,"x_min":87,"x_max":297,"o":"m 202 0 l 202 916 l 87 916 l 87 0 l 202 0 m 90 963 l 175 1156 l 297 1154 l 178 963 l 90 963 z "},"ľ":{"ha":373,"x_min":87,"x_max":377,"o":"m 202 0 l 202 916 l 87 916 l 87 0 l 202 0 m 267 784 l 305 784 q 267 682 302 732 l 305 652 q 376 804 376 724 l 376 917 l 267 917 l 267 784 z "},"<":{"ha":629,"x_min":58,"x_max":552,"o":"m 58 345 l 552 99 l 552 202 l 174 382 l 552 563 l 552 665 l 58 418 l 58 345 z "},"≤":{"ha":632,"x_min":71,"x_max":563,"o":"m 71 382 l 563 155 l 563 256 l 189 420 l 563 585 l 563 686 l 71 457 l 71 382 m 563 125 l 76 125 l 76 37 l 563 37 l 563 125 z "},"¬":{"ha":718,"x_min":54,"x_max":644,"o":"m 644 448 l 54 448 l 54 362 l 547 362 l 547 189 l 644 189 l 644 448 z "},"◊":{"ha":675,"x_min":26,"x_max":651,"o":"m 369 -4 l 651 433 l 374 865 l 302 865 l 26 427 l 296 -4 l 369 -4 m 209 334 l 140 435 l 271 640 l 338 750 l 468 530 l 537 426 l 397 214 l 332 109 l 209 334 z "},"ł":{"ha":294,"x_min":-12,"x_max":308,"o":"m 203 0 l 203 430 l 308 468 l 283 544 l 203 515 l 203 916 l 88 916 l 88 473 l -12 438 l 14 361 l 88 388 l 88 0 l 203 0 z "},"m":{"ha":918,"x_min":65,"x_max":859,"o":"m 294 674 q 178 605 199 673 l 168 665 l 65 665 l 66 0 l 182 0 l 182 566 q 195 579 184 578 l 391 579 q 404 566 403 576 l 404 0 l 521 0 l 521 532 q 519 555 521 548 l 521 566 q 534 579 524 578 l 728 579 q 742 566 741 576 l 742 0 l 859 0 l 859 532 q 785 663 859 639 q 705 674 754 674 l 633 674 q 514 594 533 673 q 368 674 477 670 l 294 674 z "},"¯":{"ha":491,"x_min":71,"x_max":420,"o":"m 420 873 l 71 873 l 71 787 l 420 787 l 420 873 z "},"−":{"ha":723,"x_min":73,"x_max":650,"o":"m 650 448 l 73 448 l 73 359 l 650 359 l 650 448 z "},"×":{"ha":618,"x_min":73,"x_max":545,"o":"m 481 637 l 309 467 l 137 639 l 73 574 l 245 401 l 73 231 l 137 167 l 308 339 l 480 167 l 545 231 l 373 403 l 544 575 l 481 637 z "},"n":{"ha":609,"x_min":76,"x_max":545,"o":"m 305 674 q 187 606 212 673 l 178 665 l 76 665 l 77 0 l 193 0 l 193 566 q 205 579 195 578 l 415 579 q 429 566 427 576 l 429 0 l 545 0 l 545 532 q 471 665 545 640 q 392 674 438 674 l 305 674 z "},"ń":{"ha":609,"x_min":76,"x_max":545,"o":"m 305 674 q 187 606 212 673 l 178 665 l 76 665 l 77 0 l 193 0 l 193 566 q 205 579 195 578 l 415 579 q 429 566 427 576 l 429 0 l 545 0 l 545 532 q 471 665 545 640 q 392 674 438 674 l 305 674 m 270 750 l 355 943 l 477 941 l 358 750 l 270 750 z "},"ň":{"ha":609,"x_min":76,"x_max":545,"o":"m 305 674 q 187 606 212 673 l 178 665 l 76 665 l 77 0 l 193 0 l 193 566 q 205 579 195 578 l 415 579 q 429 566 427 576 l 429 0 l 545 0 l 545 532 q 471 665 545 640 q 392 674 438 674 l 305 674 m 259 757 l 382 757 l 511 943 l 412 943 l 321 811 l 241 943 l 137 943 l 259 757 z "},"≠":{"ha":681,"x_min":73,"x_max":609,"o":"m 435 689 l 363 529 l 73 529 l 73 441 l 324 441 l 255 285 l 73 285 l 73 197 l 216 197 l 144 35 l 241 35 l 313 197 l 609 197 l 609 285 l 351 285 l 420 441 l 609 441 l 609 529 l 460 529 l 530 689 l 435 689 z "},"ñ":{"ha":609,"x_min":76,"x_max":545,"o":"m 305 674 q 187 606 212 673 l 178 665 l 76 665 l 77 0 l 193 0 l 193 566 q 205 579 195 578 l 415 579 q 429 566 427 576 l 429 0 l 545 0 l 545 532 q 471 665 545 640 q 392 674 438 674 l 305 674 m 206 781 q 237 834 208 833 q 321 806 255 834 q 408 783 374 783 q 498 872 484 783 q 500 918 500 894 l 423 918 q 387 867 415 871 q 301 895 365 867 q 216 918 250 918 q 136 852 151 918 q 129 783 129 823 l 206 781 z "},"#":{"ha":711,"x_min":23,"x_max":688,"o":"m 88 0 l 178 0 l 221 225 l 408 225 l 365 0 l 454 0 l 498 225 l 624 225 l 624 311 l 514 311 l 562 559 l 688 559 l 688 644 l 578 644 l 620 868 l 532 868 l 488 644 l 301 644 l 343 868 l 255 868 l 212 644 l 87 644 l 87 559 l 195 559 l 148 311 l 23 311 l 23 225 l 132 225 l 88 0 m 472 559 l 425 311 l 237 311 l 285 559 l 472 559 z "},"o":{"ha":605,"x_min":62,"x_max":543,"o":"m 411 576 q 425 563 423 574 l 425 102 q 411 88 422 90 l 193 88 q 180 102 182 91 l 180 563 q 193 576 183 575 l 411 576 m 62 146 q 142 3 62 31 q 237 -9 180 -9 l 366 -9 q 529 64 496 -9 q 543 146 543 98 l 543 518 q 461 662 543 633 q 366 674 423 674 l 237 674 q 77 604 109 674 q 62 518 62 570 l 62 146 z "},"ó":{"ha":605,"x_min":62,"x_max":543,"o":"m 411 576 q 425 563 423 574 l 425 102 q 411 88 422 90 l 193 88 q 180 102 182 91 l 180 563 q 193 576 183 575 l 411 576 m 62 146 q 142 3 62 31 q 237 -9 180 -9 l 366 -9 q 529 64 496 -9 q 543 146 543 98 l 543 518 q 461 662 543 633 q 366 674 423 674 l 237 674 q 77 604 109 674 q 62 518 62 570 l 62 146 m 255 750 l 340 943 l 463 941 l 343 750 l 255 750 z "},"ô":{"ha":605,"x_min":62,"x_max":543,"o":"m 411 576 q 425 563 423 574 l 425 102 q 411 88 422 90 l 193 88 q 180 102 182 91 l 180 563 q 193 576 183 575 l 411 576 m 62 146 q 142 3 62 31 q 237 -9 180 -9 l 366 -9 q 529 64 496 -9 q 543 146 543 98 l 543 518 q 461 662 543 633 q 366 674 423 674 l 237 674 q 77 604 109 674 q 62 518 62 570 l 62 146 m 365 936 l 241 936 l 113 750 l 212 750 l 302 882 l 382 750 l 487 750 l 365 936 z "},"ö":{"ha":605,"x_min":62,"x_max":543,"o":"m 411 576 q 425 563 423 574 l 425 102 q 411 88 422 90 l 193 88 q 180 102 182 91 l 180 563 q 193 576 183 575 l 411 576 m 62 146 q 142 3 62 31 q 237 -9 180 -9 l 366 -9 q 529 64 496 -9 q 543 146 543 98 l 543 518 q 461 662 543 633 q 366 674 423 674 l 237 674 q 77 604 109 674 q 62 518 62 570 l 62 146 m 241 780 l 241 902 l 133 902 l 133 780 l 241 780 m 481 780 l 481 902 l 373 902 l 373 780 l 481 780 z "},"œ":{"ha":943,"x_min":62,"x_max":887,"o":"m 412 576 q 426 563 425 574 l 426 102 q 412 88 423 90 l 193 88 q 180 102 182 91 l 180 563 q 193 576 183 575 l 412 576 m 540 566 q 553 579 543 578 l 758 579 q 772 566 770 576 l 772 345 l 540 345 l 540 566 m 617 -7 l 871 -7 l 871 90 l 553 90 q 540 103 541 92 l 540 259 l 887 259 l 887 524 q 821 659 887 632 q 723 674 785 674 l 601 674 q 481 633 509 674 q 480 631 480 632 q 351 674 446 674 l 237 674 q 77 604 109 674 q 62 518 62 570 l 62 146 q 142 3 62 31 q 237 -9 180 -9 l 351 -9 q 486 41 454 -8 q 617 -7 519 -7 z "},"˛":{"ha":426,"x_min":130,"x_max":347,"o":"m 347 -282 l 347 -199 l 235 -199 q 225 -190 227 -197 l 225 -123 q 236 -100 227 -110 l 323 0 l 248 8 l 165 -66 q 130 -156 130 -99 l 130 -186 q 202 -277 130 -262 q 267 -282 228 -282 l 347 -282 z "},"ò":{"ha":605,"x_min":62,"x_max":543,"o":"m 411 576 q 425 563 423 574 l 425 102 q 411 88 422 90 l 193 88 q 180 102 182 91 l 180 563 q 193 576 183 575 l 411 576 m 62 146 q 142 3 62 31 q 237 -9 180 -9 l 366 -9 q 529 64 496 -9 q 543 146 543 98 l 543 518 q 461 662 543 633 q 366 674 423 674 l 237 674 q 77 604 109 674 q 62 518 62 570 l 62 146 m 144 941 l 267 943 l 358 750 l 273 750 l 144 941 z "},"ő":{"ha":605,"x_min":62,"x_max":556,"o":"m 411 576 q 425 563 423 574 l 425 102 q 411 88 422 90 l 193 88 q 180 102 182 91 l 180 563 q 193 576 183 575 l 411 576 m 62 146 q 142 3 62 31 q 237 -9 180 -9 l 366 -9 q 529 64 496 -9 q 543 146 543 98 l 543 518 q 461 662 543 633 q 366 674 423 674 l 237 674 q 77 604 109 674 q 62 518 62 570 l 62 146 m 165 750 l 248 943 l 368 941 l 251 750 l 165 750 m 350 750 l 435 943 l 556 941 l 435 750 l 350 750 z "},"ō":{"ha":605,"x_min":62,"x_max":543,"o":"m 411 576 q 425 563 423 574 l 425 102 q 411 88 422 90 l 193 88 q 180 102 182 91 l 180 563 q 193 576 183 575 l 411 576 m 62 146 q 142 3 62 31 q 237 -9 180 -9 l 366 -9 q 529 64 496 -9 q 543 146 543 98 l 543 518 q 461 662 543 633 q 366 674 423 674 l 237 674 q 77 604 109 674 q 62 518 62 570 l 62 146 m 480 873 l 130 873 l 130 787 l 480 787 l 480 873 z "},"½":{"ha":1055,"x_min":34,"x_max":1002,"o":"m 393 416 l 296 416 l 296 861 l 203 861 l 34 751 l 76 681 l 198 758 l 198 416 l 58 416 l 58 338 l 393 338 l 393 416 m 731 871 l 258 -9 l 357 -9 l 829 871 l 731 871 m 658 164 l 658 0 l 1000 0 l 1000 79 l 757 79 l 757 153 q 772 180 758 174 l 935 258 q 998 315 989 283 q 1002 345 1002 328 l 1002 423 q 895 528 1002 528 q 892 528 894 528 l 671 524 l 671 445 l 891 445 q 902 434 901 442 l 902 351 q 890 336 899 342 l 726 258 q 667 214 677 235 q 658 164 658 195 z "},"¼":{"ha":1089,"x_min":34,"x_max":1043,"o":"m 964 0 l 964 115 l 1043 115 l 1043 194 l 964 194 l 964 525 l 857 528 q 779 496 803 528 q 754 457 769 484 l 595 179 l 595 115 l 867 115 l 867 0 l 964 0 m 837 439 q 848 446 844 446 l 867 446 l 867 194 l 693 194 l 837 439 m 393 416 l 296 416 l 296 861 l 203 861 l 34 751 l 76 681 l 198 758 l 198 416 l 58 416 l 58 338 l 393 338 l 393 416 m 738 871 l 264 -9 l 363 -9 l 836 871 l 738 871 z "},"¹":{"ha":430,"x_min":34,"x_max":393,"o":"m 393 416 l 296 416 l 296 861 l 203 861 l 34 751 l 76 681 l 198 758 l 198 416 l 58 416 l 58 338 l 393 338 l 393 416 z "},"ª":{"ha":471,"x_min":49,"x_max":410,"o":"m 307 481 l 160 481 q 146 495 148 484 l 146 618 q 160 632 149 631 l 307 632 l 307 481 m 212 395 q 307 453 290 395 q 309 463 308 458 l 320 404 l 410 404 l 410 762 q 362 886 410 859 q 258 905 328 905 l 76 905 l 76 823 l 293 823 q 307 811 305 821 l 307 707 l 198 707 q 66 656 95 707 q 49 566 49 625 l 49 534 q 117 404 49 427 q 184 395 142 395 l 212 395 z "},"º":{"ha":502,"x_min":58,"x_max":446,"o":"m 332 825 q 346 811 345 822 l 346 492 q 332 479 343 480 l 171 479 q 157 492 159 481 l 157 811 q 171 825 160 823 l 332 825 m 58 545 q 136 407 58 434 q 221 396 170 396 l 283 396 q 434 468 406 396 q 446 545 446 499 l 446 755 q 369 898 446 871 q 283 909 335 909 l 221 909 q 73 841 103 909 q 58 755 58 807 l 58 545 z "},"ø":{"ha":605,"x_min":62,"x_max":543,"o":"m 460 745 l 425 670 q 366 674 397 674 l 237 674 q 77 604 109 674 q 62 518 62 570 l 62 146 q 118 15 64 49 l 75 -79 l 145 -79 l 179 -5 q 237 -9 206 -9 l 366 -9 q 529 64 496 -9 q 543 146 543 98 l 543 518 q 486 650 541 616 l 530 745 l 460 745 m 180 563 q 193 576 183 575 l 381 576 l 180 148 l 180 563 m 425 102 q 411 88 422 90 l 224 88 l 425 518 l 425 102 z "},"õ":{"ha":605,"x_min":62,"x_max":543,"o":"m 411 576 q 425 563 423 574 l 425 102 q 411 88 422 90 l 193 88 q 180 102 182 91 l 180 563 q 193 576 183 575 l 411 576 m 62 146 q 142 3 62 31 q 237 -9 180 -9 l 366 -9 q 529 64 496 -9 q 543 146 543 98 l 543 518 q 461 662 543 633 q 366 674 423 674 l 237 674 q 77 604 109 674 q 62 518 62 570 l 62 146 m 193 781 q 224 834 194 833 q 308 806 241 834 q 395 783 361 783 q 484 872 471 783 q 487 918 487 894 l 410 918 q 373 867 401 871 q 288 895 351 867 q 202 918 236 918 q 122 852 137 918 q 115 783 115 823 l 193 781 z "},"p":{"ha":606,"x_min":76,"x_max":545,"o":"m 193 -258 l 193 -1 l 381 -4 q 530 58 499 -4 q 545 144 545 91 l 545 532 q 471 665 545 640 q 392 674 438 674 l 305 674 q 190 597 209 673 l 178 665 l 76 665 l 76 -258 l 193 -258 m 193 566 q 206 579 195 578 l 415 579 q 429 566 427 576 l 429 104 q 415 91 426 92 l 193 94 l 193 566 z "},"¶":{"ha":693,"x_min":41,"x_max":594,"o":"m 488 0 l 594 0 l 594 861 l 232 867 q 41 697 42 867 l 41 610 q 182 442 41 465 q 232 438 206 438 l 294 438 l 293 0 l 399 0 l 399 761 l 488 761 l 488 0 z "},"(":{"ha":380,"x_min":84,"x_max":351,"o":"m 351 -231 l 351 -140 l 217 -140 q 205 -126 206 -137 l 205 818 q 217 831 208 830 l 351 831 l 351 922 l 274 922 q 84 751 85 920 l 84 -60 q 274 -231 87 -229 l 351 -231 z "},")":{"ha":380,"x_min":28,"x_max":296,"o":"m 28 -231 l 28 -140 l 163 -140 q 175 -126 174 -137 l 175 818 q 163 831 172 830 l 28 831 l 28 922 l 106 922 q 296 751 294 920 l 296 -60 q 106 -231 293 -229 l 28 -231 z "},"∂":{"ha":684,"x_min":58,"x_max":586,"o":"m 395 -4 q 581 106 553 -4 q 586 163 586 132 l 586 689 q 456 861 586 834 q 391 867 426 867 l 99 861 l 99 757 l 445 757 q 463 739 461 754 l 463 445 q 343 518 441 517 l 236 518 q 64 407 88 518 q 58 350 58 381 l 58 170 q 250 -4 61 -3 l 395 -4 m 199 104 q 182 122 183 107 l 182 397 q 199 415 184 414 l 449 415 q 463 401 461 412 l 463 122 q 444 104 460 106 l 199 104 z "},"%":{"ha":994,"x_min":41,"x_max":952,"o":"m 41 488 q 142 380 41 388 q 161 380 152 380 l 274 380 q 397 488 396 382 l 395 758 q 302 865 395 854 q 274 867 289 867 l 161 867 q 42 781 53 867 q 41 758 41 770 l 41 488 m 286 781 q 300 769 298 779 l 300 479 q 286 465 297 467 l 151 465 q 137 479 138 468 l 137 769 q 151 781 140 780 l 286 781 m 598 102 q 692 -4 598 5 q 719 -5 705 -5 l 831 -5 q 951 83 943 -5 q 952 102 952 92 l 952 373 q 860 480 952 469 q 831 481 846 481 l 719 481 q 600 396 610 481 q 598 373 598 385 l 598 102 m 844 396 q 857 382 856 393 l 857 92 q 844 80 854 81 l 708 80 q 694 92 696 83 l 694 382 q 708 396 697 395 l 844 396 m 686 871 l 213 -9 l 312 -9 l 784 871 l 686 871 z "},".":{"ha":248,"x_min":64,"x_max":184,"o":"m 184 0 l 184 145 l 64 145 l 64 0 l 184 0 z "},"·":{"ha":259,"x_min":64,"x_max":195,"o":"m 195 312 l 195 463 l 64 463 l 64 312 l 195 312 z "},"‰":{"ha":1430,"x_min":41,"x_max":1389,"o":"m 1035 102 q 1122 -3 1035 9 q 1156 -5 1138 -5 l 1267 -5 q 1388 81 1378 -5 q 1389 102 1389 91 l 1389 373 q 1301 479 1389 467 q 1267 481 1284 481 l 1156 481 q 1038 403 1050 481 q 1035 373 1035 389 l 1035 102 m 1280 396 q 1293 382 1291 393 l 1293 92 q 1280 80 1290 81 l 1143 80 q 1130 92 1131 83 l 1130 382 q 1143 396 1133 395 l 1280 396 m 41 488 q 142 380 41 388 q 161 380 152 380 l 274 380 q 397 488 396 382 l 395 758 q 302 865 395 854 q 274 867 289 867 l 161 867 q 42 781 53 867 q 41 758 41 770 l 41 488 m 286 781 q 300 769 298 779 l 300 479 q 286 465 297 467 l 151 465 q 137 479 138 468 l 137 769 q 151 781 140 780 l 286 781 m 598 102 q 692 -4 598 5 q 719 -5 705 -5 l 831 -5 q 951 83 943 -5 q 952 102 952 92 l 952 373 q 860 480 952 469 q 831 481 846 481 l 719 481 q 600 396 610 481 q 598 373 598 385 l 598 102 m 844 396 q 857 382 856 393 l 857 92 q 844 80 854 81 l 708 80 q 694 92 696 83 l 694 382 q 708 396 697 395 l 844 396 m 686 871 l 213 -9 l 312 -9 l 784 871 l 686 871 z "},"π":{"ha":680,"x_min":24,"x_max":655,"o":"m 222 0 l 222 574 l 457 574 l 457 0 l 574 0 l 574 574 l 655 574 l 655 665 l 24 665 l 24 574 l 106 574 l 106 0 l 222 0 z "},"+":{"ha":723,"x_min":76,"x_max":647,"o":"m 647 448 l 407 448 l 407 682 l 315 682 l 315 448 l 76 448 l 76 359 l 315 359 l 315 126 l 407 126 l 407 359 l 647 359 l 647 448 z "},"±":{"ha":723,"x_min":76,"x_max":647,"o":"m 647 500 l 407 500 l 407 708 l 315 708 l 315 500 l 76 500 l 76 412 l 315 412 l 315 205 l 407 205 l 407 412 l 647 412 l 647 500 m 647 125 l 76 125 l 76 37 l 647 37 l 647 125 z "},"∏":{"ha":768,"x_min":33,"x_max":735,"o":"m 735 861 l 33 861 l 33 757 l 119 757 l 119 0 l 240 0 l 240 757 l 528 757 l 528 0 l 648 0 l 648 757 l 735 757 l 735 861 z "},"q":{"ha":606,"x_min":62,"x_max":532,"o":"m 227 669 q 79 609 109 670 q 62 521 62 575 l 62 133 q 136 0 62 26 q 214 -9 167 -9 l 301 -9 q 414 57 391 -8 l 414 -258 l 532 -258 l 532 665 l 227 669 m 414 99 q 400 85 411 87 l 191 85 q 178 99 179 88 l 178 559 q 191 572 180 571 l 414 570 l 414 99 z "},"?":{"ha":499,"x_min":41,"x_max":431,"o":"m 237 220 l 237 297 q 258 355 239 335 q 262 359 260 358 l 353 454 q 425 551 414 518 q 431 597 431 572 l 431 704 q 331 856 431 831 q 258 864 300 864 l 41 864 l 41 762 l 300 762 q 313 749 312 760 l 313 576 q 304 552 312 562 l 186 430 q 130 357 137 377 q 123 309 123 338 l 123 220 l 237 220 m 239 0 l 239 137 l 122 137 l 122 0 l 239 0 z "},"¿":{"ha":513,"x_min":81,"x_max":472,"o":"m 275 445 l 275 368 q 255 309 274 330 q 251 305 252 307 l 160 210 q 88 114 99 146 q 81 68 81 92 l 81 -39 q 182 -191 81 -167 q 255 -199 213 -199 l 472 -199 l 472 -98 l 213 -98 q 199 -84 201 -95 l 199 88 q 209 113 201 103 l 327 235 q 382 308 376 288 q 389 355 389 327 l 389 445 l 275 445 m 274 665 l 274 528 l 391 528 l 391 665 l 274 665 z "},"\"":{"ha":363,"x_min":50,"x_max":298,"o":"m 50 650 l 50 925 l 144 925 l 144 807 l 107 650 l 50 650 m 203 650 l 203 925 l 298 925 l 298 807 l 260 650 l 203 650 z "},"„":{"ha":399,"x_min":57,"x_max":336,"o":"m 225 9 l 263 9 q 225 -95 260 -43 l 263 -125 q 303 -76 288 -102 q 328 -23 319 -50 q 336 30 336 4 l 336 145 l 225 145 l 225 9 m 58 9 l 96 9 q 58 -95 94 -43 l 96 -125 q 136 -76 121 -102 q 161 -23 152 -50 q 170 30 170 4 l 170 145 l 58 145 l 58 9 z "},"“":{"ha":403,"x_min":64,"x_max":345,"o":"m 179 800 l 138 800 q 179 907 142 854 l 138 939 q 65 779 65 864 l 65 661 l 179 661 l 179 800 m 345 800 l 304 800 q 345 907 308 854 l 304 939 q 231 779 231 864 l 231 661 l 345 661 l 345 800 z "},"”":{"ha":400,"x_min":56,"x_max":336,"o":"m 221 785 l 262 785 q 221 678 258 731 l 262 647 q 335 807 335 722 l 335 925 l 221 925 l 221 785 m 56 785 l 96 785 q 56 678 92 731 l 96 647 q 170 807 170 722 l 170 925 l 56 925 l 56 785 z "},"‘":{"ha":229,"x_min":64,"x_max":179,"o":"m 179 800 l 138 800 q 179 907 142 854 l 138 939 q 65 779 65 864 l 65 661 l 179 661 l 179 800 z "},"’":{"ha":221,"x_min":49,"x_max":164,"o":"m 49 785 l 90 785 q 49 678 85 731 l 90 647 q 163 807 163 722 l 163 925 l 49 925 l 49 785 z "},"‚":{"ha":237,"x_min":58,"x_max":175,"o":"m 58 3 l 99 3 q 58 -107 95 -53 l 99 -138 q 175 24 174 -61 l 175 145 l 58 145 l 58 3 z "},"'":{"ha":213,"x_min":50,"x_max":149,"o":"m 50 648 l 50 925 l 149 925 l 149 807 l 109 648 l 50 648 z "},"r":{"ha":373,"x_min":75,"x_max":373,"o":"m 302 674 q 186 605 208 673 l 176 665 l 75 665 l 75 0 l 191 0 l 190 560 q 203 574 193 572 l 373 574 l 373 674 l 302 674 z "},"ŕ":{"ha":373,"x_min":75,"x_max":373,"o":"m 302 674 q 186 605 208 673 l 176 665 l 75 665 l 75 0 l 191 0 l 190 560 q 203 574 193 572 l 373 574 l 373 674 l 302 674 m 115 750 l 201 943 l 323 941 l 203 750 l 115 750 z "},"√":{"ha":784,"x_min":28,"x_max":750,"o":"m 449 -56 l 750 925 l 647 925 l 395 102 l 205 665 l 28 665 l 28 560 l 121 560 l 335 -56 l 449 -56 z "},"ř":{"ha":374,"x_min":39,"x_max":414,"o":"m 302 674 q 186 605 208 673 l 176 665 l 75 665 l 75 0 l 191 0 l 190 560 q 203 574 193 572 l 373 574 l 373 674 l 302 674 m 161 757 l 285 757 l 414 943 l 315 943 l 224 811 l 144 943 l 39 943 l 161 757 z "},"®":{"ha":712,"x_min":91,"x_max":642,"o":"m 559 814 q 572 802 571 811 l 572 297 q 559 285 570 286 l 172 285 q 160 297 161 288 l 160 802 q 172 814 163 812 l 559 814 m 91 357 q 159 236 91 258 q 233 227 189 227 l 499 227 q 631 288 606 227 q 642 357 642 316 l 642 742 q 574 861 642 840 q 499 871 544 871 l 233 871 q 102 810 126 871 q 91 742 91 783 l 91 357 m 307 326 l 307 491 l 378 491 q 396 479 392 490 l 448 326 l 537 326 l 499 437 q 464 502 481 487 q 528 612 526 529 l 528 651 q 406 766 528 768 q 400 766 401 766 l 216 762 l 216 326 l 307 326 m 420 697 q 434 684 433 694 l 434 574 q 420 560 431 562 l 307 560 l 307 697 l 420 697 z "},"˚":{"ha":453,"x_min":103,"x_max":358,"o":"m 358 852 q 305 963 358 941 q 228 975 277 975 q 114 925 136 975 q 103 852 103 898 q 156 739 103 762 q 228 728 183 728 q 349 788 327 728 q 358 852 358 814 m 167 852 q 186 914 167 905 q 228 921 201 921 q 289 897 279 921 q 294 852 294 882 q 269 788 294 799 q 228 783 254 783 q 170 814 178 783 q 167 852 167 827 z "},"s":{"ha":517,"x_min":45,"x_max":486,"o":"m 332 -4 q 473 64 446 -4 q 486 137 486 94 l 486 236 q 416 370 486 343 q 321 384 381 384 l 176 384 q 163 397 164 387 l 163 563 q 176 576 165 575 l 452 576 l 452 674 l 212 674 q 60 608 90 675 q 45 521 45 574 l 45 441 q 113 305 45 334 q 209 292 149 292 l 355 292 q 369 278 368 289 l 369 103 q 355 90 366 91 l 56 90 l 56 -4 l 332 -4 z "},"ś":{"ha":517,"x_min":45,"x_max":486,"o":"m 332 -4 q 473 64 446 -4 q 486 137 486 94 l 486 236 q 416 370 486 343 q 321 384 381 384 l 176 384 q 163 397 164 387 l 163 563 q 176 576 165 575 l 452 576 l 452 674 l 212 674 q 60 608 90 675 q 45 521 45 574 l 45 441 q 113 305 45 334 q 209 292 149 292 l 355 292 q 369 278 368 289 l 369 103 q 355 90 366 91 l 56 90 l 56 -4 l 332 -4 m 212 750 l 297 943 l 419 941 l 300 750 l 212 750 z "},"š":{"ha":517,"x_min":45,"x_max":486,"o":"m 332 -4 q 473 64 446 -4 q 486 137 486 94 l 486 236 q 416 370 486 343 q 321 384 381 384 l 176 384 q 163 397 164 387 l 163 563 q 176 576 165 575 l 452 576 l 452 674 l 212 674 q 60 608 90 675 q 45 521 45 574 l 45 441 q 113 305 45 334 q 209 292 149 292 l 355 292 q 369 278 368 289 l 369 103 q 355 90 366 91 l 56 90 l 56 -4 l 332 -4 m 212 757 l 335 757 l 464 943 l 365 943 l 274 811 l 194 943 l 90 943 l 212 757 z "},"§":{"ha":610,"x_min":54,"x_max":556,"o":"m 556 30 l 556 321 q 513 438 556 406 q 445 472 491 453 l 193 572 q 175 597 176 582 l 175 739 q 193 757 178 755 l 537 757 l 537 861 l 235 867 q 54 699 56 868 l 54 406 q 99 289 54 321 q 165 255 121 273 l 418 155 q 435 130 434 145 l 435 -12 q 418 -30 433 -28 l 72 -30 l 72 -134 l 376 -138 q 556 30 553 -140 m 198 347 q 175 380 176 357 q 175 395 175 387 l 175 477 l 411 380 q 435 349 434 372 q 435 334 435 342 l 435 251 l 198 347 z "},";":{"ha":293,"x_min":84,"x_max":203,"o":"m 84 3 l 125 3 q 87 -102 119 -50 l 127 -137 q 203 24 203 -58 l 203 145 l 84 145 l 84 3 m 203 362 l 203 507 l 84 507 l 84 362 l 203 362 z "},"අ":{"ha":735,"x_min":30,"x_max":682,"o":"m 407 582 q 461 669 407 650 q 491 674 476 674 l 682 674 l 682 605 l 633 605 q 616 591 616 604 q 642 552 616 586 q 678 458 678 503 l 678 326 q 610 254 675 255 l 507 254 l 507 85 l 675 85 l 675 0 l 507 0 l 507 -190 l 407 -190 l 407 0 l 95 0 q 33 39 41 0 q 30 69 30 52 l 30 404 q 104 480 33 479 l 264 480 l 264 548 q 231 591 264 587 q 217 591 224 591 l 30 591 l 30 674 l 247 674 q 345 585 340 667 l 345 396 l 165 396 q 132 376 136 396 q 130 355 130 368 l 130 119 q 156 87 137 90 l 407 85 l 407 582 m 507 334 l 570 334 q 600 353 597 334 q 601 366 601 359 l 601 463 q 568 543 601 491 q 551 583 551 570 q 553 594 551 589 q 509 566 514 594 q 507 551 507 557 l 507 334 z "},"ආ":{"ha":1061,"x_min":30,"x_max":1009,"o":"m 407 582 q 461 669 407 650 q 491 674 476 674 l 682 674 l 682 605 l 633 605 q 616 591 616 604 q 642 552 616 586 q 678 458 678 503 l 678 326 q 610 254 675 255 l 507 254 l 507 85 l 675 85 l 675 0 l 507 0 l 507 -190 l 407 -190 l 407 0 l 95 0 q 33 39 41 0 q 30 69 30 52 l 30 404 q 104 480 33 479 l 264 480 l 264 548 q 231 591 264 587 q 217 591 224 591 l 30 591 l 30 674 l 247 674 q 345 585 340 667 l 345 396 l 165 396 q 132 376 136 396 q 130 355 130 368 l 130 119 q 156 87 137 90 l 407 85 l 407 582 m 507 334 l 570 334 q 600 353 597 334 q 601 366 601 359 l 601 463 q 568 543 601 491 q 551 583 551 570 q 553 594 551 589 q 509 566 514 594 q 507 551 507 557 l 507 334 m 772 674 l 954 674 q 1009 617 1008 671 l 1009 52 q 954 0 1006 1 l 772 0 l 772 87 l 886 87 q 909 113 907 90 l 909 568 q 886 591 906 590 l 772 591 l 772 674 z "},"ඈ":{"ha":1085,"x_min":30,"x_max":1029,"o":"m 407 582 q 461 669 407 650 q 491 674 476 674 l 682 674 l 682 605 l 633 605 q 616 591 616 604 q 642 552 616 586 q 678 458 678 503 l 678 326 q 610 254 675 255 l 507 254 l 507 85 l 675 85 l 675 0 l 507 0 l 507 -190 l 407 -190 l 407 0 l 95 0 q 33 39 41 0 q 30 69 30 52 l 30 404 q 104 480 33 479 l 264 480 l 264 548 q 231 591 264 587 q 217 591 224 591 l 30 591 l 30 674 l 247 674 q 345 585 340 667 l 345 396 l 165 396 q 132 376 136 396 q 130 355 130 368 l 130 119 q 156 87 137 90 l 407 85 l 407 582 m 507 334 l 570 334 q 600 353 597 334 q 601 366 601 359 l 601 463 q 568 543 601 491 q 551 583 551 570 q 553 594 551 589 q 509 566 514 594 q 507 551 507 557 l 507 334 m 774 674 l 1029 674 l 1029 594 l 888 487 l 1029 487 l 1029 414 l 903 294 q 873 222 875 255 l 873 113 q 882 88 873 90 q 897 87 887 87 l 1029 85 l 1029 0 l 815 0 q 774 49 774 0 l 774 227 q 807 316 776 283 l 913 410 l 774 410 l 774 483 l 909 591 l 774 591 l 774 674 z "},"ඇ":{"ha":1092,"x_min":30,"x_max":1038,"o":"m 783 674 l 1038 674 l 1038 586 l 898 343 q 883 270 883 316 l 883 113 q 910 87 886 88 l 1038 87 l 1038 0 l 830 0 q 783 49 784 3 l 783 270 q 804 370 784 332 l 933 590 l 783 590 l 783 674 m 407 582 q 461 669 407 650 q 491 674 476 674 l 682 674 l 682 605 l 633 605 q 616 591 616 604 q 642 552 616 586 q 678 458 678 503 l 678 326 q 610 254 675 255 l 507 254 l 507 85 l 675 85 l 675 0 l 507 0 l 507 -190 l 407 -190 l 407 0 l 95 0 q 33 39 41 0 q 30 69 30 52 l 30 404 q 104 480 33 479 l 264 480 l 264 548 q 231 591 264 587 q 217 591 224 591 l 30 591 l 30 674 l 247 674 q 345 585 340 667 l 345 396 l 165 396 q 132 376 136 396 q 130 355 130 368 l 130 119 q 156 87 137 90 l 407 85 l 407 582 m 507 334 l 570 334 q 600 353 597 334 q 601 366 601 359 l 601 463 q 568 543 601 491 q 551 583 551 570 q 553 594 551 589 q 509 566 514 594 q 507 551 507 557 l 507 334 z "},"ඓ":{"ha":1237,"x_min":30,"x_max":1190,"o":"m 808 825 l 808 703 q 826 674 808 677 q 841 674 831 674 l 1088 674 l 1088 680 q 1044 732 1088 711 l 1043 732 q 872 815 1043 732 q 819 825 853 825 l 808 825 m 1190 670 l 1190 69 q 1141 1 1190 9 q 1127 0 1134 0 l 640 0 q 575 60 576 3 l 575 224 q 613 300 576 279 l 529 300 l 529 377 l 821 377 l 821 445 q 788 476 818 475 l 579 476 l 579 552 l 840 552 q 921 469 920 549 l 921 296 l 765 296 q 675 227 677 294 l 675 118 q 693 88 675 92 q 708 87 700 87 l 1061 87 q 1089 119 1088 90 l 1089 609 l 779 609 q 719 643 728 609 q 716 674 716 656 l 716 826 l 632 826 l 632 901 l 799 901 q 903 880 856 901 q 914 875 909 878 l 1095 788 q 1181 716 1165 757 q 1190 670 1190 694 m 450 674 l 102 674 q 31 620 41 674 q 30 604 30 612 l 30 62 q 92 0 33 1 l 388 0 q 457 66 454 4 l 457 372 q 385 439 454 438 l 236 439 l 236 358 l 323 358 q 357 335 354 358 q 358 321 358 330 l 358 115 q 328 87 355 88 l 156 87 q 130 115 132 90 l 130 555 q 155 589 130 586 q 167 590 161 590 l 450 590 l 450 674 z "},"ඖ":{"ha":1176,"x_min":30,"x_max":1137,"o":"m 727 674 l 727 387 q 772 342 730 343 l 890 342 q 952 389 951 345 l 952 563 q 974 590 955 589 l 1021 590 q 1042 566 1042 590 l 1042 117 q 1017 87 1039 88 l 861 87 q 836 106 838 87 q 834 117 834 111 l 834 214 l 728 214 l 728 65 q 783 1 734 5 l 1072 1 q 1137 64 1131 11 l 1137 618 q 1100 671 1137 658 q 1080 674 1090 674 l 922 674 q 878 617 879 671 l 878 454 q 854 426 871 429 l 818 426 q 798 441 799 426 q 796 453 796 446 l 796 674 l 727 674 m 389 339 l 271 339 q 224 380 225 342 l 224 522 q 209 538 221 537 l 159 538 q 130 505 132 536 l 130 121 q 148 88 130 91 q 161 87 155 87 l 247 87 q 292 137 289 96 l 292 251 l 377 251 l 377 138 q 423 87 381 88 l 507 87 q 538 122 537 90 l 538 707 q 503 757 538 751 q 486 758 495 758 l 30 758 l 30 849 l 538 849 q 637 760 636 846 l 637 68 q 574 0 635 1 l 400 0 q 334 43 346 1 q 283 1 327 8 q 270 0 277 0 l 94 0 q 30 65 31 3 l 30 534 q 110 623 33 621 l 233 623 q 289 575 288 620 l 289 441 q 305 420 292 422 l 357 420 q 373 441 372 423 l 373 623 l 442 623 l 442 387 q 389 339 439 340 z "},"බ":{"ha":699,"x_min":30,"x_max":639,"o":"m 538 848 l 30 848 l 30 761 l 487 761 q 537 731 530 761 q 538 708 538 722 l 538 117 q 513 87 530 90 l 404 87 q 376 121 378 100 l 376 564 q 301 637 373 636 l 106 637 q 30 563 31 635 l 30 73 q 75 1 30 11 q 98 0 85 0 l 233 0 l 233 87 l 157 87 q 130 121 133 98 l 130 518 q 159 552 138 549 l 252 552 q 281 518 279 549 l 282 73 q 353 0 293 4 l 571 0 q 637 47 629 0 q 639 73 639 60 l 639 741 q 572 845 639 831 q 538 848 556 848 z "},"භ":{"ha":803,"x_min":-8,"x_max":746,"o":"m 30 69 q 65 3 30 14 q 95 0 79 0 l 388 0 q 473 39 458 0 q 479 81 479 57 l 479 340 q 434 391 477 389 l 403 391 l 435 552 q 483 589 444 587 l 610 589 q 647 552 644 582 l 647 132 q 627 88 647 94 q 608 87 618 87 l 529 87 l 529 0 l 661 0 q 739 35 726 0 q 746 87 746 54 l 746 589 q 688 671 746 661 q 655 674 673 674 l 445 674 q 349 605 363 673 l 297 324 l 358 324 q 381 294 380 321 l 381 125 q 361 88 381 92 q 345 87 353 87 l 155 87 q 130 118 132 90 l 130 345 q 178 399 133 397 l 263 399 l 263 585 q 193 671 263 658 q 165 674 179 674 l 30 674 l 30 590 l 137 590 q 182 551 180 587 l 182 481 l -8 481 l -8 401 l 61 401 q 30 346 31 385 l 30 69 z "},"ච":{"ha":731,"x_min":-8,"x_max":688,"o":"m 589 848 l 79 848 l 79 761 l 536 761 q 586 731 579 761 q 587 708 587 722 l 587 122 q 559 87 585 88 l 208 87 q 179 119 180 90 l 179 275 q 248 346 182 345 l 391 346 l 391 563 q 315 637 388 636 l 79 637 l 79 553 l 262 553 q 290 530 289 551 l 290 425 l -8 425 l -8 346 l 103 346 q 79 278 79 320 l 79 73 q 123 1 79 11 q 146 0 134 0 l 620 0 q 686 47 678 0 q 688 73 688 60 l 688 741 q 625 844 688 830 q 589 848 608 848 z "},"ඡ":{"ha":696,"x_min":30,"x_max":699,"o":"m 365 549 q 391 587 365 578 q 403 590 397 590 l 510 590 q 543 555 540 590 q 543 552 543 553 l 543 442 q 495 385 540 387 l 392 385 q 365 415 366 391 l 365 549 m 98 0 l 571 0 q 637 47 629 0 q 639 73 639 60 l 639 245 q 606 342 639 315 q 597 349 601 346 q 639 450 639 378 l 639 591 q 564 674 636 673 l 491 674 q 530 707 514 689 l 699 872 l 585 872 l 419 716 q 353 669 387 686 q 324 650 336 662 q 255 674 302 674 l 31 674 l 31 590 l 227 590 q 263 560 262 587 l 263 481 l 106 481 q 30 407 31 479 l 30 73 q 75 1 30 11 q 98 0 85 0 m 159 87 q 130 123 133 98 l 130 366 q 163 397 133 396 l 290 397 l 290 368 q 346 305 293 307 l 487 305 q 538 254 537 302 l 538 122 q 510 87 536 88 l 159 87 z "},"ද":{"ha":624,"x_min":30,"x_max":597,"o":"m 566 0 l 320 0 q 252 -45 262 0 q 251 -58 251 -53 l 251 -119 q 281 -146 254 -146 l 597 -146 l 597 -232 l 218 -232 q 148 -171 149 -229 l 148 -69 q 187 0 149 -18 l 90 0 q 30 53 35 0 q 30 68 30 61 l 30 403 q 109 480 33 479 l 460 480 l 460 559 q 431 590 457 589 l 30 590 l 30 674 l 488 674 q 560 602 559 671 l 560 396 l 167 396 q 130 359 133 388 l 130 122 q 159 87 134 88 l 566 87 l 566 0 z "},"ඩ":{"ha":697,"x_min":-8,"x_max":637,"o":"m -8 465 l -8 385 l 62 385 q 30 319 31 363 l 30 73 q 68 3 30 12 q 95 0 80 0 l 270 0 q 331 34 315 0 q 334 43 332 39 q 400 0 347 1 l 574 0 q 637 68 636 3 l 637 760 q 538 849 635 848 l 30 849 l 30 758 l 486 758 q 537 726 530 758 q 538 707 538 716 l 538 122 q 507 87 536 88 l 423 87 q 377 138 380 94 l 377 244 l 292 244 l 292 137 q 247 87 285 90 l 156 87 q 130 118 132 90 l 129 317 q 195 381 134 380 l 342 381 l 342 583 q 252 659 335 655 l 31 659 l 31 575 l 206 575 q 245 543 244 572 l 245 465 l -8 465 z "},"ඪ":{"ha":697,"x_min":-8,"x_max":639,"o":"m 373 773 l 500 773 q 536 749 533 773 q 537 736 537 743 l 537 644 l 403 644 q 374 658 377 644 q 373 673 373 663 l 373 773 m 639 534 l 639 758 q 593 844 639 830 q 548 849 574 849 l 203 849 l 203 774 l 281 774 l 281 643 q 316 582 281 590 q 343 579 328 579 l 538 579 l 538 122 q 507 87 536 88 l 423 87 q 377 138 380 94 l 377 208 l 292 208 l 292 137 q 247 87 285 90 l 156 87 q 130 118 132 90 l 129 241 q 195 307 134 305 l 342 307 l 342 492 q 252 568 335 564 l 31 568 l 31 490 l 220 490 q 259 457 258 487 l 259 382 l 106 382 q 96 381 99 382 l -8 381 l -8 309 l 61 309 q 30 243 30 286 l 30 73 q 68 3 30 12 q 95 0 80 0 l 270 0 q 331 34 315 0 q 334 43 332 39 q 400 0 347 1 l 574 0 q 637 68 636 3 l 637 534 l 639 534 z "},"ධ":{"ha":699,"x_min":30,"x_max":639,"o":"m 342 572 l 161 572 q 130 538 132 570 l 130 118 q 159 87 133 88 l 241 87 q 290 155 290 90 l 290 332 l 377 332 l 377 156 q 430 87 380 88 l 513 87 q 538 121 537 90 l 538 709 q 505 757 538 751 q 487 758 496 758 l 30 758 l 30 849 l 540 849 q 639 760 637 846 l 639 68 q 575 0 636 1 l 400 0 q 334 50 349 3 q 292 3 328 16 q 270 0 279 0 l 94 0 q 30 65 31 3 l 30 571 q 110 659 38 655 l 342 659 l 342 572 z "},"එ":{"ha":724,"x_min":5,"x_max":666,"o":"m 285 825 l 285 703 q 302 674 285 677 q 317 674 308 674 l 564 674 l 564 680 q 526 730 564 711 q 519 732 522 731 q 350 815 519 732 q 297 825 330 825 l 285 825 m 666 670 l 666 69 q 617 1 666 9 q 604 0 610 0 l 117 0 q 52 60 53 3 l 52 224 q 90 300 53 278 l 5 300 l 5 377 l 298 377 l 298 445 q 264 476 296 475 l 56 476 l 56 552 l 316 552 q 397 469 396 549 l 397 296 l 241 296 q 152 227 153 294 l 152 118 q 172 88 152 91 q 184 87 179 87 l 538 87 q 566 119 564 90 l 566 609 l 255 609 q 195 644 205 609 q 193 674 193 656 l 193 826 l 109 826 l 109 901 l 275 901 q 382 879 334 901 q 391 875 387 876 l 571 788 q 659 713 643 757 q 666 670 666 693 z "},"ඒ":{"ha":724,"x_min":5,"x_max":666,"o":"m 285 825 l 297 825 q 350 815 331 825 q 519 732 519 732 q 563 693 557 715 q 564 680 564 686 l 564 674 l 317 674 q 286 686 290 674 q 285 703 285 693 l 285 825 m 571 960 l 571 788 l 391 875 q 275 901 331 901 l 109 901 l 109 826 l 193 826 l 193 674 q 231 612 193 618 q 255 609 241 609 l 566 609 l 566 119 q 538 87 563 88 l 184 87 q 152 118 155 96 l 152 227 q 241 296 155 294 l 397 296 l 397 469 q 316 552 395 551 l 56 552 l 56 476 l 264 476 q 298 445 297 473 l 298 377 l 5 377 l 5 300 l 90 300 q 52 224 53 275 l 52 60 q 117 0 54 1 l 604 0 q 665 53 656 0 q 666 69 666 61 l 666 960 l 571 960 z "},"ෆ":{"ha":765,"x_min":30,"x_max":707,"o":"m 416 87 l 572 87 q 606 125 605 90 l 606 553 q 575 590 604 589 l 456 590 q 414 534 415 589 l 414 227 l 321 227 l 321 533 q 281 590 317 586 l 163 590 q 130 553 132 587 l 130 123 q 163 87 136 88 l 317 87 l 317 0 l 99 0 q 30 84 34 9 l 30 598 q 72 669 30 650 q 103 674 87 674 l 293 674 q 366 636 353 674 q 369 628 368 632 q 448 674 384 673 l 633 674 q 704 627 690 674 q 707 604 707 614 l 707 83 q 655 3 707 18 q 633 0 644 0 l 416 0 l 416 87 z "},"ග":{"ha":802,"x_min":30,"x_max":743,"o":"m 259 674 l 259 590 l 165 590 q 132 572 136 590 q 130 553 130 564 l 130 119 q 157 87 136 88 l 316 87 q 354 106 350 87 q 357 126 357 114 l 357 294 q 334 321 354 320 l 289 321 l 338 605 q 435 674 350 674 l 652 674 q 741 616 730 674 q 743 589 743 604 l 743 85 q 697 4 743 16 q 658 0 681 0 l 533 0 l 533 87 l 604 87 q 642 107 637 87 q 644 133 644 117 l 644 547 q 602 589 636 586 l 469 589 q 422 555 431 587 l 392 388 l 412 388 q 454 336 453 385 l 454 81 q 410 5 454 18 q 363 0 391 0 l 98 0 q 30 79 31 3 l 30 595 q 107 674 35 671 l 259 674 z "},"ඝ":{"ha":774,"x_min":-8,"x_max":705,"o":"m 446 0 l 637 0 q 704 47 696 0 q 705 73 705 60 l 705 403 q 625 480 697 477 l 477 480 l 477 557 q 518 590 480 589 l 704 590 l 704 674 l 484 674 q 395 598 397 670 l 395 396 l 575 396 q 606 370 605 393 l 606 118 q 581 87 604 88 l 473 87 q 441 119 442 92 l 441 138 q 463 168 441 153 l 464 170 q 495 199 492 193 q 498 214 498 206 l 498 273 q 463 308 495 307 l 271 308 q 236 273 237 305 l 236 214 q 259 178 236 195 q 263 175 260 176 q 270 170 267 171 q 293 138 293 152 l 293 119 q 259 87 288 88 l 155 87 q 130 118 132 90 l 129 332 q 195 396 134 395 l 342 396 l 342 598 q 252 674 335 670 l 31 674 l 31 590 l 220 590 q 259 557 258 587 l 259 480 l -8 480 l -8 400 l 62 400 q 30 334 31 378 l 30 73 q 75 1 30 11 q 98 0 85 0 l 288 0 q 351 38 334 0 q 357 65 357 52 l 357 151 q 330 190 355 170 q 304 227 305 216 l 304 247 q 320 259 305 259 l 414 259 q 429 247 427 256 l 429 227 q 406 191 429 209 l 404 190 q 376 151 377 165 l 376 65 q 423 4 376 19 q 446 0 435 0 z "},"හ":{"ha":802,"x_min":30,"x_max":743,"o":"m 130 119 q 157 87 136 88 l 327 87 q 365 106 361 87 q 368 126 368 114 l 368 294 q 345 321 365 320 l 300 321 l 349 605 q 446 674 361 674 l 652 674 q 741 616 730 674 q 743 589 743 604 l 743 87 q 697 4 743 16 q 658 0 681 0 l 533 0 l 533 87 l 606 87 q 643 109 639 87 q 644 130 644 118 l 644 547 q 602 589 636 586 l 480 589 q 433 555 442 587 l 403 388 l 423 388 q 465 336 464 385 l 465 81 q 420 5 465 18 q 374 0 401 0 l 95 0 q 31 53 37 0 q 30 69 30 61 l 30 404 q 104 480 33 479 l 178 480 l 178 548 q 149 589 178 585 q 134 590 142 590 l 30 590 l 30 674 l 165 674 q 258 585 256 671 l 258 396 l 165 396 q 132 378 136 396 q 130 359 130 370 l 130 119 z "},"්":{"ha":3,"x_min":-155,"x_max":-56,"o":"m -155 667 l -155 880 l -56 880 l -56 587 q -84 639 -79 633 q -133 667 -106 667 l -155 667 z "},"ඉ":{"ha":704,"x_min":30,"x_max":644,"o":"m 378 469 l 378 279 q 307 212 376 213 l 106 212 q 30 285 31 214 l 30 600 q 94 673 30 663 q 113 674 103 674 l 560 674 q 644 600 643 671 l 644 129 q 593 46 643 61 q 621 -19 621 26 l 621 -134 q 559 -214 621 -209 q 544 -216 551 -216 l 62 -216 l 62 -129 l 484 -129 q 519 -113 517 -129 q 521 -102 521 -107 l 521 -31 q 481 0 518 -1 l 64 0 l 64 87 l 476 87 q 543 118 534 87 q 544 137 544 126 l 544 557 q 509 590 541 589 l 170 590 q 130 557 132 587 l 130 330 q 146 296 130 301 q 164 294 155 294 l 259 294 q 286 328 285 301 l 286 469 l 378 469 z "},"ඊ":{"ha":612,"x_min":30,"x_max":549,"o":"m 30 65 q 92 0 39 4 l 475 0 q 548 61 543 0 q 549 83 549 71 l 549 594 q 467 674 547 673 l 213 674 l 457 899 l 334 899 l 85 675 q 30 583 33 620 l 30 65 m 130 537 q 175 590 134 587 l 407 590 q 450 564 445 590 q 452 545 452 556 l 452 126 q 435 88 452 92 q 416 87 427 87 l 171 87 q 133 102 137 87 q 130 129 130 110 l 130 537 m 69 899 l 69 803 l 168 803 l 168 899 l 69 899 m 435 815 l 435 719 l 534 719 l 534 815 l 435 815 z "},"ජ":{"ha":694,"x_min":30,"x_max":700,"o":"m 509 87 l 160 87 q 130 122 132 95 l 130 361 q 165 396 133 395 l 308 396 l 308 598 q 218 674 301 670 l 31 674 l 31 590 l 187 590 q 224 556 222 587 l 224 480 l 106 480 q 30 406 31 477 l 30 73 q 79 1 30 9 q 99 0 88 0 l 570 0 q 637 53 631 0 q 639 73 639 62 l 639 406 q 563 480 636 479 l 445 480 l 445 556 q 481 590 448 589 l 637 590 l 637 674 l 534 674 q 568 708 555 692 l 700 872 l 586 872 l 453 715 q 437 696 444 704 q 422 682 430 688 q 413 673 415 675 q 403 667 411 671 l 395 662 q 361 598 362 642 l 361 396 l 503 396 q 540 361 538 393 l 540 122 q 509 87 537 88 z "},"ඣ":{"ha":1242,"x_min":16,"x_max":1191,"o":"m 16 293 l 62 293 q 30 202 30 270 l 30 65 q 91 0 39 5 l 216 0 q 267 35 258 0 q 269 39 269 38 q 319 0 281 1 l 438 0 q 505 45 490 0 q 509 71 509 57 l 509 418 q 441 490 498 483 l 301 490 l 372 545 q 448 579 418 579 q 487 576 458 579 l 589 564 q 582 521 582 543 l 582 65 q 646 0 585 1 l 822 0 q 880 35 864 0 q 886 50 884 43 q 952 0 902 1 l 1127 0 q 1191 68 1190 3 l 1191 760 q 1092 849 1188 848 l 582 849 l 582 758 l 1039 758 q 1090 728 1084 758 q 1092 709 1092 719 l 1092 121 q 1065 87 1089 88 l 982 87 q 929 156 930 90 l 929 332 l 844 332 l 844 155 q 795 87 841 88 l 711 87 q 682 118 684 90 l 682 495 q 715 529 685 528 l 894 529 l 894 614 l 887 614 l 894 616 l 510 658 q 438 663 461 663 q 339 625 391 662 l 278 579 l 278 610 q 233 673 278 665 q 221 674 227 674 l 42 674 l 42 590 l 161 590 q 198 556 197 587 l 198 511 l 16 357 l 16 293 m 418 381 l 418 125 q 389 87 415 88 l 342 87 q 304 123 307 87 q 302 145 302 133 l 302 255 l 235 255 l 235 145 q 212 90 235 98 q 193 87 202 87 l 145 87 q 122 117 125 98 l 122 218 q 146 298 122 278 q 159 307 153 302 l 159 336 l 122 336 l 210 411 l 389 411 q 418 381 416 408 z "},"ඥ":{"ha":1367,"x_min":30,"x_max":1343,"o":"m 1312 0 l 1312 87 l 906 87 q 876 122 879 98 l 876 359 q 913 396 884 393 l 1306 396 l 1306 602 q 1234 674 1303 673 l 655 674 q 557 605 570 674 l 509 321 l 553 321 q 576 294 575 319 l 576 126 q 557 88 576 94 q 536 87 548 87 l 377 87 q 350 119 351 95 l 350 528 q 391 589 350 583 q 404 590 397 590 l 479 590 l 479 674 l 145 674 q 37 608 61 674 q 30 564 30 587 l 30 0 l 126 0 l 126 537 q 182 593 140 589 l 251 593 q 250 576 250 586 l 250 73 q 296 1 250 9 q 315 0 305 0 l 583 0 q 669 39 654 0 q 674 81 674 57 l 674 336 q 633 388 671 387 l 612 388 l 644 557 q 690 590 654 589 l 1177 590 q 1206 559 1204 587 l 1206 480 l 854 480 q 776 403 777 477 l 776 68 q 823 1 776 7 q 836 0 829 0 l 933 0 q 894 -69 894 -19 l 894 -171 q 964 -232 897 -231 l 1343 -232 l 1343 -146 l 1027 -146 q 997 -119 998 -144 l 997 -58 q 1048 -1 997 -11 q 1066 0 1058 0 l 1312 0 z "},"ක":{"ha":803,"x_min":16,"x_max":743,"o":"m 418 381 q 389 411 415 410 l 210 411 l 122 336 l 159 336 l 159 307 q 123 243 126 288 q 122 218 122 232 l 122 117 q 145 85 129 88 l 193 85 q 235 126 231 85 q 235 145 235 134 l 235 255 l 302 255 l 302 145 q 326 88 302 96 q 342 85 334 85 l 389 85 q 418 125 418 88 l 418 381 m 278 579 l 353 643 q 439 674 392 674 l 666 674 q 741 621 727 674 q 743 600 743 610 l 743 71 q 690 1 743 14 q 671 0 681 0 l 532 0 l 532 85 l 614 85 q 643 121 642 88 l 643 553 q 606 590 640 589 l 458 590 q 391 564 419 589 l 301 490 l 441 490 q 507 431 500 490 q 509 418 509 425 l 509 71 q 460 3 509 16 q 438 0 449 0 l 319 0 q 269 39 279 3 q 216 0 258 3 l 91 0 q 30 65 37 11 l 30 202 q 62 293 31 271 l 16 293 l 16 357 q 198 511 16 357 l 198 556 q 161 590 195 589 l 42 590 l 42 674 l 221 674 q 277 621 270 674 q 278 609 278 616 l 278 579 z "},"ඛ":{"ha":701,"x_min":30,"x_max":637,"o":"m 30 572 l 30 65 q 88 0 33 1 l 194 0 l 198 87 l 153 87 q 130 115 132 90 l 130 530 q 164 570 133 568 l 278 570 q 311 534 309 567 l 311 336 l 235 -7 l 317 -7 l 347 99 q 384 43 368 58 q 458 0 418 1 l 576 0 q 637 69 633 8 l 637 768 q 571 846 637 833 q 543 849 557 849 l 30 849 l 30 758 l 479 758 q 538 711 537 755 l 538 129 q 518 95 536 96 q 512 96 517 95 q 500 97 507 96 q 485 99 492 98 q 471 101 477 100 q 458 103 464 102 l 454 104 q 377 183 423 104 q 370 197 373 193 l 403 319 l 404 585 q 346 658 404 647 q 328 659 336 659 l 110 659 q 31 594 43 659 q 30 572 30 583 z "},"ල":{"ha":755,"x_min":30,"x_max":696,"o":"m 309 65 l 309 347 l 222 347 l 222 423 l 496 423 l 496 347 l 410 347 l 410 114 q 438 87 412 88 l 570 87 q 597 122 595 90 l 597 541 q 555 590 594 589 l 167 590 q 130 547 132 587 l 130 -68 q 159 -127 130 -118 q 187 -130 170 -130 l 696 -130 l 696 -221 l 125 -221 q 30 -123 31 -218 l 30 589 q 76 669 30 648 q 103 674 90 674 l 613 674 q 686 623 665 674 q 696 581 696 602 l 696 83 q 625 0 693 1 l 376 0 q 311 52 319 0 q 309 65 309 60 z "},"ළ":{"ha":750,"x_min":30,"x_max":693,"o":"m 130 335 q 159 382 132 373 l 159 132 q 220 72 159 80 q 237 71 229 71 l 690 71 l 690 164 l 255 164 q 214 201 216 167 l 214 384 l 693 384 l 693 604 q 614 674 692 673 l 454 674 q 406 646 422 673 q 359 674 392 673 l 191 674 q 118 598 119 671 l 118 457 q 37 399 56 454 q 30 362 30 381 l 30 -100 q 136 -206 33 -205 l 693 -206 l 693 -115 l 187 -115 q 130 -56 133 -107 l 130 335 m 593 461 l 446 461 l 446 562 q 475 595 449 594 l 564 595 q 593 563 591 593 l 593 461 m 214 461 l 214 562 q 243 595 217 594 l 335 595 q 362 563 361 593 l 362 461 l 214 461 z "},"ම":{"ha":699,"x_min":30,"x_max":639,"o":"m 538 848 l 30 848 l 30 761 l 487 761 q 537 731 530 761 q 538 708 538 722 l 538 125 q 506 87 536 88 l 159 87 q 130 123 132 90 l 130 220 l 346 220 q 415 281 410 220 q 416 298 416 289 l 416 568 q 336 637 414 636 l 113 637 q 33 579 45 637 q 30 559 30 570 l 30 77 q 102 0 33 1 l 563 0 q 639 80 637 3 l 639 741 q 572 845 639 831 q 538 848 556 848 m 130 519 q 161 553 133 552 l 289 553 q 320 524 319 551 l 320 332 q 296 302 317 304 l 130 302 l 130 519 z "},"ා":{"ha":315,"x_min":28,"x_max":266,"o":"m 28 674 l 210 674 q 266 617 264 671 l 266 52 q 210 0 263 1 l 28 0 l 28 87 l 142 87 q 165 113 164 90 l 165 568 q 142 591 163 590 l 28 591 l 28 674 z "},"ෑ":{"ha":336,"x_min":30,"x_max":285,"o":"m 30 674 l 285 674 l 285 594 l 144 487 l 285 487 l 285 414 l 159 294 q 130 222 132 256 l 130 113 q 137 88 130 90 q 153 87 144 87 l 285 85 l 285 0 l 71 0 q 30 49 30 0 l 30 227 q 62 316 31 283 l 168 410 l 30 410 l 30 483 l 165 591 l 30 591 l 30 674 z "},"ැ":{"ha":339,"x_min":30,"x_max":285,"o":"m 30 674 l 285 674 l 285 586 l 145 343 q 130 270 130 316 l 130 111 q 157 85 133 87 l 285 85 l 285 0 l 77 0 q 30 49 31 3 l 30 270 q 52 370 31 332 l 180 590 l 30 590 l 30 674 z "},"ෛ":{"ha":1021,"x_min":30,"x_max":972,"o":"m 450 674 l 102 674 q 31 620 41 674 q 30 604 30 612 l 30 62 q 92 0 33 1 l 388 0 q 457 66 454 4 l 457 372 q 385 439 454 438 l 236 439 l 236 358 l 323 358 q 357 335 354 358 q 358 321 358 330 l 358 115 q 328 87 355 88 l 156 87 q 130 115 132 90 l 130 555 q 155 589 130 586 q 167 590 161 590 l 450 590 l 450 674 m 966 674 l 617 674 q 547 620 556 674 q 545 604 545 612 l 545 62 q 608 0 548 1 l 903 0 q 972 66 970 4 l 972 372 q 901 439 970 438 l 751 439 l 751 358 l 838 358 q 872 335 869 358 q 873 321 873 328 l 873 115 q 844 87 871 88 l 671 87 q 646 115 647 90 l 646 555 q 670 589 646 586 q 682 590 677 590 l 966 590 l 966 674 z "},"ෞ":{"ha":1793,"x_min":30,"x_max":1651,"o":"m 450 674 l 102 674 q 31 620 41 674 q 30 604 30 612 l 30 62 q 92 0 33 1 l 388 0 q 457 66 454 4 l 457 372 q 385 439 454 438 l 236 439 l 236 358 l 323 358 q 357 335 354 358 q 358 321 358 330 l 358 115 q 328 87 355 88 l 156 87 q 130 115 132 90 l 130 555 q 155 589 130 586 q 167 590 161 590 l 450 590 l 450 674 m 1241 674 l 1241 387 q 1286 342 1244 343 l 1404 342 q 1466 389 1465 345 l 1466 563 q 1488 590 1469 589 l 1535 590 q 1556 566 1556 590 l 1556 117 q 1531 85 1553 87 l 1375 85 q 1348 115 1351 96 l 1348 214 l 1242 214 l 1242 64 q 1297 0 1248 4 l 1586 0 q 1649 46 1638 0 q 1651 62 1651 54 l 1651 618 q 1614 671 1651 658 q 1594 674 1605 674 l 1436 674 q 1392 617 1393 671 l 1392 453 q 1369 425 1388 426 l 1331 425 q 1312 439 1313 425 q 1310 453 1310 445 l 1310 674 l 1241 674 z "},"ෙ":{"ha":510,"x_min":30,"x_max":457,"o":"m 450 674 l 102 674 q 31 620 41 674 q 30 604 30 612 l 30 62 q 92 0 33 1 l 388 0 q 457 66 454 4 l 457 372 q 385 439 454 438 l 236 439 l 236 358 l 323 358 q 357 335 354 358 q 358 321 358 330 l 358 115 q 328 87 355 88 l 156 87 q 130 115 132 90 l 130 555 q 155 589 130 586 q 167 590 161 590 l 450 590 l 450 674 z "},"ේ":{"ha":1378,"x_min":30,"x_max":1263,"o":"m 450 674 l 102 674 q 31 620 41 674 q 30 604 30 612 l 30 62 q 92 0 33 1 l 388 0 q 457 66 454 4 l 457 372 q 385 439 454 438 l 236 439 l 236 358 l 323 358 q 357 335 354 358 q 358 321 358 330 l 358 115 q 328 87 355 88 l 156 87 q 130 115 132 90 l 130 555 q 155 589 130 586 q 167 590 161 590 l 450 590 l 450 674 m 1162 667 l 1162 880 l 1263 880 l 1263 587 q 1255 602 1261 590 q 1233 639 1240 631 q 1184 667 1211 667 l 1162 667 z "},"ි":{"ha":3,"x_min":-777,"x_max":-91,"o":"m -777 693 l -777 808 q -718 868 -774 867 l -146 868 q -91 810 -92 865 l -91 693 l -191 693 l -191 762 q -214 789 -194 788 l -656 789 q -678 764 -677 787 l -678 693 l -777 693 z "},"ී":{"ha":699,"x_min":-773,"x_max":-84,"o":"m -315 810 q -335 793 -335 810 l -335 768 q -317 750 -332 751 l -184 750 q -167 769 -168 753 l -167 791 q -190 810 -170 808 l -315 810 m -651 789 q -673 765 -671 787 l -673 693 l -773 693 l -773 808 q -713 868 -770 867 l -141 868 q -84 814 -85 865 l -84 745 q -125 704 -84 704 l -380 704 q -418 736 -416 705 l -418 779 q -414 789 -416 787 l -651 789 z "},"ෳ":{"ha":490,"x_min":26,"x_max":437,"o":"m 26 674 l 26 387 q 71 342 28 343 l 190 342 q 252 389 251 345 l 252 563 q 274 590 255 589 l 321 590 q 342 566 342 590 l 342 117 q 317 85 339 87 l 161 85 q 133 115 136 94 l 133 214 l 28 214 l 28 64 q 83 0 34 4 l 372 0 q 435 46 425 0 q 437 62 437 54 l 437 618 q 400 671 437 658 q 380 674 389 674 l 221 674 q 178 617 179 671 l 178 453 q 155 425 175 426 l 117 425 q 98 439 99 425 q 96 453 96 445 l 96 674 l 26 674 z "},"ෟ":{"ha":490,"x_min":26,"x_max":437,"o":"m 26 674 l 26 387 q 71 342 28 343 l 190 342 q 252 389 251 345 l 252 563 q 274 590 255 589 l 321 590 q 342 566 342 590 l 342 117 q 317 85 339 87 l 161 85 q 133 115 136 94 l 133 214 l 28 214 l 28 64 q 83 0 34 4 l 372 0 q 435 46 425 0 q 437 62 437 54 l 437 618 q 400 671 437 658 q 380 674 389 674 l 221 674 q 178 617 179 671 l 178 453 q 155 425 175 426 l 117 425 q 98 439 99 425 q 96 453 96 445 l 96 674 l 26 674 z "},"ො":{"ha":1412,"x_min":30,"x_max":1265,"o":"m 450 674 l 102 674 q 31 620 41 674 q 30 604 30 612 l 30 62 q 92 0 33 1 l 388 0 q 457 66 454 4 l 457 372 q 385 439 454 438 l 236 439 l 236 358 l 323 358 q 357 335 354 358 q 358 321 358 330 l 358 115 q 328 87 355 88 l 156 87 q 130 115 132 90 l 130 555 q 155 589 130 586 q 167 590 161 590 l 450 590 l 450 674 m 1028 674 l 1210 674 q 1265 617 1264 671 l 1265 52 q 1210 0 1263 1 l 1028 0 l 1028 87 l 1143 87 q 1165 113 1164 90 l 1165 568 q 1142 591 1162 590 l 1028 591 l 1028 674 z "},"ෝ":{"ha":1424,"x_min":30,"x_max":1294,"o":"m 450 674 l 102 674 q 31 620 41 674 q 30 604 30 612 l 30 62 q 92 0 33 1 l 388 0 q 457 66 454 4 l 457 372 q 385 439 454 438 l 236 439 l 236 358 l 323 358 q 357 335 354 358 q 358 321 358 330 l 358 115 q 328 87 355 88 l 156 87 q 130 115 132 90 l 130 555 q 155 589 130 586 q 167 590 161 590 l 450 590 l 450 674 m 1058 674 l 1058 591 l 1172 591 q 1195 568 1194 589 l 1195 113 q 1172 87 1192 88 l 1058 87 l 1058 0 l 1238 0 q 1294 52 1293 3 l 1294 880 l 1195 880 l 1195 674 l 1058 674 z "},"ෘ":{"ha":469,"x_min":30,"x_max":415,"o":"m 30 674 l 349 674 q 415 610 414 671 l 415 0 l 336 0 l 323 53 q 254 0 300 1 l 80 0 q 30 57 31 3 l 30 380 q 76 437 30 430 q 87 438 83 438 l 315 438 l 315 557 q 300 589 315 586 q 283 590 293 590 l 30 590 l 30 674 m 315 357 l 152 357 q 130 330 132 349 l 130 110 q 141 88 130 90 q 152 87 146 87 l 247 87 q 315 186 313 90 l 315 357 z "},"ෲ":{"ha":925,"x_min":30,"x_max":865,"o":"m 30 674 l 349 674 q 415 610 414 671 l 415 0 l 336 0 l 323 53 q 254 0 300 1 l 80 0 q 30 57 31 3 l 30 380 q 76 437 30 430 q 87 438 83 438 l 315 438 l 315 557 q 300 589 315 586 q 283 590 293 590 l 30 590 l 30 674 m 315 357 l 152 357 q 130 330 132 349 l 130 110 q 141 88 130 90 q 152 87 146 87 l 247 87 q 315 186 313 90 l 315 357 m 481 674 l 799 674 q 865 610 864 671 l 865 0 l 788 0 l 773 53 q 704 0 751 1 l 532 0 q 481 57 483 3 l 481 380 q 528 437 481 430 q 538 438 534 438 l 766 438 l 766 557 q 750 589 766 586 q 734 590 743 590 l 481 590 l 481 674 m 766 357 l 602 357 q 581 330 582 349 l 581 110 q 604 87 589 88 l 697 87 q 766 186 765 90 l 766 357 z "},"ු":{"ha":3,"x_min":-671,"x_max":-66,"o":"m -66 -216 l -671 -216 l -671 -130 l -165 -130 l -165 38 l -121 38 q -69 80 -83 38 q -66 90 -68 85 l -66 -216 z "},"ූ":{"ha":3,"x_min":-681,"x_max":-75,"o":"m -75 -216 l -165 -216 q -197 -182 -178 -198 q -252 -168 -218 -168 l -312 -168 q -372 -182 -338 -168 l -433 -208 q -525 -221 -472 -221 l -616 -221 q -681 -165 -680 -218 l -681 -39 l -586 -39 l -586 -118 q -563 -142 -583 -141 l -517 -142 q -435 -127 -473 -142 l -385 -107 q -315 -91 -342 -91 l -248 -91 q -189 -106 -212 -91 q -174 -118 -179 -113 l -174 35 l -119 35 q -76 81 -87 35 q -75 92 -76 88 l -75 -216 z "},"ඹ":{"ha":699,"x_min":30,"x_max":639,"o":"m 277 434 l 130 435 l 130 524 q 161 555 133 553 l 271 555 q 302 528 301 552 l 302 465 q 277 434 301 435 m 30 73 q 73 1 30 9 q 91 0 81 0 l 259 0 q 317 38 301 0 q 323 64 323 52 l 323 152 q 317 170 323 161 q 307 183 312 179 q 293 193 302 187 l 285 198 q 258 232 259 217 l 258 250 q 275 264 259 263 l 393 264 q 411 250 410 262 l 411 231 q 384 199 408 217 q 346 152 347 176 l 346 64 q 384 5 346 22 q 410 0 397 0 l 576 0 q 636 45 628 0 q 639 73 639 58 l 639 741 q 572 845 639 831 q 538 848 556 848 l 30 848 l 30 761 l 487 761 q 537 731 530 761 q 538 708 538 722 l 538 119 q 513 87 536 88 l 425 87 q 400 107 401 90 l 400 140 q 426 175 401 161 q 467 214 464 194 q 468 221 468 218 l 468 277 q 431 312 465 311 l 236 312 q 201 277 202 309 l 201 221 q 239 175 201 194 l 240 175 q 269 140 267 157 l 269 107 q 243 87 267 87 l 152 87 q 130 119 132 90 l 130 373 l 328 373 q 397 434 392 373 q 399 452 399 442 l 399 568 q 319 637 396 636 l 113 637 q 33 583 47 637 q 30 560 30 571 l 30 73 z "},"න":{"ha":802,"x_min":30,"x_max":743,"o":"m 408 0 q 494 39 479 0 q 499 81 499 57 l 499 369 q 448 434 499 429 q 434 434 441 434 l 342 434 l 448 555 q 518 589 479 589 l 604 589 q 643 551 642 586 l 643 132 q 628 90 643 96 q 606 87 618 87 l 533 87 l 533 0 l 658 0 q 738 41 724 0 q 743 90 743 60 l 743 589 q 681 673 743 662 q 652 674 667 674 l 483 674 q 435 663 457 674 q 402 640 414 651 q 370 605 391 628 l 319 545 l 319 591 q 233 674 305 669 l 30 674 l 30 590 l 202 590 q 240 552 239 587 l 240 453 l 152 351 q 134 339 141 340 q 125 342 132 339 l 123 343 l 123 463 l 30 463 l 30 69 q 65 3 30 14 q 95 0 79 0 l 408 0 m 175 244 l 274 357 l 372 357 q 401 326 400 354 l 401 127 q 385 90 401 94 q 363 87 376 87 l 156 87 q 129 115 132 98 l 129 228 q 142 225 136 225 q 175 244 159 227 z "},"ඳ":{"ha":844,"x_min":30,"x_max":817,"o":"m 785 0 l 785 87 l 380 87 q 350 122 351 92 l 350 359 q 388 396 361 392 l 780 396 l 780 602 q 708 674 777 673 l 145 674 q 37 608 61 674 q 30 564 30 587 l 30 0 l 126 0 l 126 541 q 164 595 126 590 q 182 597 172 597 l 250 597 l 250 590 l 651 590 q 680 559 677 582 l 680 480 l 328 480 q 250 403 251 477 l 250 68 q 309 0 255 3 l 407 0 q 368 -69 368 -19 l 368 -171 q 438 -232 370 -231 l 817 -232 l 817 -146 l 502 -146 q 471 -119 472 -144 l 471 -58 q 522 -1 471 -11 q 540 0 532 0 l 785 0 z "},"ඦ":{"ha":926,"x_min":30,"x_max":924,"o":"m 732 87 l 384 87 q 353 122 354 90 l 353 361 q 389 396 355 395 l 532 396 l 532 598 q 442 674 525 670 l 145 674 q 37 608 61 674 q 30 564 30 587 l 30 0 l 126 0 l 126 544 q 164 597 126 591 q 182 598 172 598 l 255 598 l 255 590 l 411 590 q 448 556 446 587 l 448 480 l 330 480 q 254 406 255 477 l 254 73 q 302 1 254 9 q 323 0 312 0 l 793 0 q 861 53 854 0 q 863 73 863 62 l 863 406 q 787 480 860 479 l 669 480 l 669 556 q 705 590 671 589 l 861 590 l 861 674 l 758 674 q 792 708 779 692 l 924 872 l 810 872 l 677 715 q 661 696 667 704 q 646 682 654 688 q 637 673 639 675 q 627 667 635 671 l 618 662 q 585 598 586 642 l 585 396 l 727 396 q 762 361 760 391 l 762 122 q 732 87 757 90 z "},"ඞ":{"ha":784,"x_min":19,"x_max":723,"o":"m 19 572 q 94 639 31 632 l 365 639 q 454 576 445 639 q 456 555 456 566 l 456 304 l 266 304 q 216 273 221 304 q 214 252 214 263 l 214 118 q 240 87 217 88 l 331 87 q 376 137 373 96 l 376 233 l 461 233 l 461 138 q 507 87 465 88 l 591 87 q 623 122 620 95 l 623 707 q 587 757 623 753 q 571 758 579 758 l 114 758 l 114 849 l 624 849 q 723 760 722 846 l 723 68 q 659 0 720 1 l 484 0 q 418 43 430 1 q 368 1 411 8 q 354 0 361 0 l 179 0 q 117 43 125 0 q 114 73 114 57 l 114 282 q 167 365 114 346 q 198 369 182 369 l 368 369 l 368 540 q 330 578 361 575 l 260 578 q 271 562 270 574 l 271 467 q 233 429 267 431 l 81 429 q 19 492 20 431 l 19 572 m 84 559 l 84 505 q 102 486 87 487 l 189 486 q 205 500 203 488 l 205 562 q 193 578 203 575 l 107 578 q 84 559 85 575 z "},"ණ":{"ha":1146,"x_min":30,"x_max":1089,"o":"m 164 381 l 164 556 q 205 593 167 591 l 346 593 l 167 351 q 164 381 164 369 m 458 87 l 222 87 q 191 118 194 87 q 190 146 190 127 q 163 194 189 190 l 205 252 l 378 252 l 378 326 l 259 326 l 453 593 q 499 551 488 593 q 500 534 500 541 l 500 138 q 458 87 498 88 m 518 674 l 511 674 l 629 836 l 525 836 l 406 674 l 152 674 q 69 601 72 669 l 69 354 q 106 267 71 294 l 30 165 l 30 58 l 87 122 q 114 87 111 113 q 148 4 114 16 q 174 0 160 0 l 503 0 q 601 102 600 3 l 601 534 q 637 589 601 582 q 647 590 643 590 l 703 590 q 745 528 743 587 l 745 245 l 837 245 l 837 530 q 871 589 837 578 q 882 590 876 590 l 952 590 q 987 564 983 590 q 989 544 989 555 l 989 125 q 970 88 989 92 q 956 87 963 87 l 656 87 l 656 0 l 990 0 q 1089 88 1084 12 l 1089 595 q 1006 674 1086 673 l 872 674 q 793 629 814 673 q 728 674 777 673 l 654 674 q 581 633 601 673 q 518 674 559 673 z "},"ඬ":{"ha":947,"x_min":30,"x_max":887,"o":"m 240 465 l 240 385 l 312 385 q 278 319 278 365 l 278 73 q 316 3 278 12 q 343 0 328 0 l 518 0 q 579 34 563 0 q 582 43 581 39 q 648 0 595 1 l 823 0 q 887 68 886 3 l 887 760 q 788 849 884 848 l 278 849 l 278 758 l 735 758 q 785 723 780 758 q 787 707 787 715 l 787 122 q 755 87 781 88 l 671 87 q 625 138 628 94 l 625 244 l 540 244 l 540 137 q 495 87 533 90 l 404 87 q 378 118 380 90 l 378 317 q 445 381 381 380 l 590 381 l 590 583 q 500 659 583 655 l 145 659 q 37 593 61 659 q 30 549 30 572 l 30 0 l 126 0 l 126 529 q 182 585 140 581 l 279 585 l 279 575 l 454 575 q 495 543 494 572 l 495 465 l 240 465 z "},"ඟ":{"ha":1029,"x_min":30,"x_max":963,"o":"m 479 674 l 145 674 q 37 608 61 674 q 30 564 30 587 l 30 0 l 126 0 l 126 537 q 182 593 140 589 l 251 593 q 250 576 250 586 l 250 73 q 296 1 250 9 q 315 0 305 0 l 583 0 q 669 39 654 0 q 674 81 674 57 l 674 336 q 633 388 671 387 l 612 388 l 643 555 q 689 589 651 587 l 823 589 q 864 547 861 581 l 864 133 q 845 90 864 94 q 823 87 836 87 l 753 87 l 753 0 l 878 0 q 958 43 944 0 q 963 85 963 61 l 963 589 q 905 671 963 661 q 872 674 891 674 l 655 674 q 557 605 570 674 l 509 321 l 553 321 q 576 294 575 319 l 576 126 q 557 88 576 94 q 536 87 548 87 l 377 87 q 350 119 351 95 l 350 528 q 391 589 350 583 q 404 590 397 590 l 479 590 l 479 674 z "},"ඤ":{"ha":1374,"x_min":30,"x_max":1350,"o":"m 1318 0 l 1318 87 l 911 87 q 882 122 883 92 l 882 359 q 920 396 890 393 l 1313 396 l 1313 602 q 1241 674 1310 673 l 700 674 q 610 661 648 674 q 552 628 583 650 l 488 579 l 487 610 q 431 674 479 669 l 145 674 q 37 608 61 674 q 30 564 30 587 l 30 0 l 126 0 l 126 544 q 164 598 126 593 q 182 600 172 600 l 252 600 l 252 590 l 372 590 q 408 556 407 587 l 408 511 l 227 357 l 227 293 l 273 293 q 240 202 240 271 l 240 65 q 300 0 245 3 l 426 0 q 479 39 468 1 q 529 0 491 1 l 648 0 q 715 45 700 0 q 719 71 719 57 l 719 418 q 651 490 708 483 l 511 490 l 579 543 q 648 582 618 574 q 719 590 673 590 l 1183 590 q 1213 559 1211 585 l 1213 480 l 861 480 q 783 403 784 477 l 783 68 q 830 1 783 7 q 842 0 836 0 l 940 0 q 901 -69 901 -19 l 901 -171 q 971 -232 903 -231 l 1350 -232 l 1350 -146 l 1034 -146 q 1004 -119 1005 -144 l 1004 -58 q 1055 -1 1004 -11 q 1073 0 1065 0 l 1318 0 m 627 381 l 627 125 q 600 87 623 90 l 551 87 q 513 127 517 87 q 513 146 513 136 l 513 255 l 445 255 l 445 145 q 422 90 445 98 q 403 87 412 87 l 355 87 q 331 117 332 92 l 331 218 q 358 300 331 279 q 369 307 363 304 l 369 336 l 332 336 l 420 411 l 600 411 q 627 381 625 408 z "},"ඕ":{"ha":699,"x_min":19,"x_max":639,"o":"m 639 543 l 639 640 q 598 741 639 723 q 545 750 576 750 l 244 750 q 172 792 180 750 q 171 812 171 802 q 198 840 176 838 l 636 840 l 636 913 l 134 913 q 68 857 69 910 l 68 812 q 118 746 71 758 l 19 746 l 19 671 l 495 671 q 537 643 533 671 q 538 632 538 637 l 538 122 q 507 87 536 88 l 423 87 q 377 138 380 94 l 377 221 l 292 221 l 292 137 q 247 87 285 90 l 161 87 q 132 107 134 87 q 130 121 130 114 l 130 463 q 156 494 133 492 l 210 494 q 224 479 222 491 l 224 343 q 271 302 227 304 l 389 302 q 442 350 441 305 l 442 579 l 373 579 l 373 396 q 357 377 370 378 l 305 377 q 289 397 290 380 l 289 532 q 233 579 286 578 l 110 579 q 30 491 35 567 l 30 65 q 94 0 33 1 l 270 0 q 331 34 315 0 q 334 43 332 39 q 400 0 347 1 l 574 0 q 637 68 636 3 l 637 543 l 639 543 z "},"ඔ":{"ha":699,"x_min":30,"x_max":637,"o":"m 389 339 l 271 339 q 224 380 225 342 l 224 522 q 209 538 221 537 l 159 538 q 130 505 132 536 l 130 121 q 148 88 130 91 q 161 87 155 87 l 247 87 q 292 137 289 96 l 292 251 l 377 251 l 377 138 q 423 87 381 88 l 507 87 q 538 122 537 90 l 538 707 q 503 757 538 751 q 486 758 495 758 l 30 758 l 30 849 l 538 849 q 637 760 636 846 l 637 68 q 574 0 635 1 l 400 0 q 334 43 346 1 q 283 1 327 8 q 270 0 277 0 l 94 0 q 30 65 31 3 l 30 534 q 110 623 33 621 l 233 623 q 289 575 288 620 l 289 441 q 305 420 292 422 l 357 420 q 373 441 372 423 l 373 623 l 442 623 l 442 387 q 389 339 439 340 z "},"ප":{"ha":693,"x_min":30,"x_max":639,"o":"m 30 73 l 30 406 q 106 480 33 479 l 224 480 l 224 556 q 187 590 221 589 l 31 590 l 31 674 l 218 674 q 308 598 305 670 l 308 396 l 165 396 q 130 361 132 393 l 130 122 q 160 87 136 90 l 509 87 q 540 122 538 90 l 540 361 q 503 396 534 395 l 361 396 l 361 598 q 450 674 368 670 l 637 674 l 637 590 l 481 590 q 445 556 446 587 l 445 480 l 563 480 q 639 406 637 477 l 639 73 q 590 1 639 9 q 570 0 581 0 l 99 0 q 31 53 38 0 q 30 73 30 62 z "},"ඵ":{"ha":697,"x_min":30,"x_max":639,"o":"m 373 773 l 502 773 q 537 736 534 764 l 537 644 l 404 644 q 374 658 378 644 q 373 673 373 665 l 373 773 m 98 0 l 570 0 q 637 53 631 0 q 639 73 639 62 l 639 758 q 595 844 639 830 q 549 849 576 849 l 203 849 l 203 774 l 282 774 l 282 643 q 319 582 282 589 q 343 579 330 579 l 540 579 l 540 122 q 511 87 537 88 l 155 87 q 130 119 130 90 l 130 281 q 164 313 133 312 l 342 313 l 342 487 q 266 560 339 559 l 30 560 l 30 481 l 213 481 q 241 457 240 479 l 241 385 l 106 385 q 30 311 31 382 l 30 73 q 75 1 30 11 q 98 0 85 0 z "},"ර":{"ha":620,"x_min":30,"x_max":557,"o":"m 30 579 q 85 675 31 633 l 355 887 l 498 887 l 228 674 l 475 674 q 557 594 556 671 l 557 76 q 488 0 555 1 l 91 0 q 30 65 31 3 l 30 579 m 130 536 l 130 134 q 149 90 130 95 q 172 87 159 87 l 423 87 q 457 106 452 87 q 460 129 460 115 l 460 543 q 427 589 460 585 q 415 590 420 590 l 178 590 q 130 536 133 582 z "},"ස":{"ha":766,"x_min":-8,"x_max":705,"o":"m 30 334 l 30 73 q 75 1 30 11 q 98 0 85 0 l 297 0 q 362 35 340 0 q 369 53 366 45 q 420 3 377 15 q 439 0 430 0 l 637 0 q 704 47 696 0 q 705 73 705 60 l 705 403 q 625 480 697 477 l 479 480 l 479 557 q 518 590 481 589 l 704 590 l 704 674 l 484 674 q 395 598 397 670 l 395 396 l 575 396 q 606 370 605 393 l 606 118 q 581 87 604 88 l 468 87 q 415 149 416 90 l 415 239 l 321 239 l 321 149 q 270 87 317 90 l 155 87 q 130 118 132 90 l 129 332 q 195 396 134 395 l 342 396 l 342 598 q 252 674 335 670 l 31 674 l 31 590 l 218 590 q 258 557 256 587 l 258 480 l -8 480 l -8 400 l 62 400 q 30 334 31 378 z "},"ශ":{"ha":803,"x_min":30,"x_max":743,"o":"m 601 80 l 498 80 l 498 0 l 658 0 q 738 43 724 0 q 743 85 743 61 l 743 589 q 681 673 743 662 q 652 674 667 674 l 423 674 q 326 605 338 674 l 277 321 l 321 321 q 345 294 343 319 l 345 126 q 326 88 345 94 q 304 87 316 87 l 157 87 q 130 119 132 95 l 130 553 q 149 589 130 585 q 165 590 157 590 l 254 590 l 254 674 l 107 674 q 30 595 33 669 l 30 79 q 98 0 33 1 l 351 0 q 437 39 422 0 q 442 81 442 57 l 442 336 q 400 388 439 387 l 380 388 l 411 555 q 457 589 419 587 l 605 589 q 646 547 644 586 l 646 426 l 557 426 q 498 372 499 423 l 498 214 q 601 80 499 111 m 650 357 l 650 117 q 559 214 560 141 l 559 339 q 572 357 562 355 l 650 357 z "},"ෂ":{"ha":693,"x_min":30,"x_max":639,"o":"m 30 73 q 79 1 30 9 q 99 0 88 0 l 570 0 q 637 53 631 0 q 639 73 639 62 l 639 401 q 595 472 637 457 l 618 492 q 639 543 639 514 l 639 605 q 587 673 639 665 q 576 674 582 674 l 435 674 q 346 598 349 670 l 346 396 l 426 396 l 301 288 q 277 216 277 264 l 277 157 l 370 157 l 370 208 q 393 271 372 250 l 525 392 q 540 361 540 384 l 540 122 q 509 87 537 88 l 160 87 q 130 122 132 95 l 130 361 q 165 396 133 395 l 296 396 l 296 598 q 205 674 293 673 l 31 674 l 31 590 l 174 590 q 212 556 210 587 l 212 480 l 106 480 q 30 406 31 477 l 30 73 m 429 476 l 429 556 q 467 590 431 589 l 537 590 q 563 553 562 583 q 538 505 562 526 l 507 476 l 429 476 z "},"ත":{"ha":803,"x_min":16,"x_max":743,"o":"m 401 381 q 373 411 399 410 l 210 411 l 122 336 l 165 336 l 167 307 q 130 245 133 288 q 129 218 129 235 l 129 117 q 153 85 136 88 l 373 85 q 401 125 401 88 l 401 381 m 278 579 l 353 643 q 439 674 392 674 l 666 674 q 741 621 727 674 q 743 600 743 610 l 743 71 q 690 1 743 14 q 671 0 681 0 l 532 0 l 532 85 l 614 85 q 643 121 642 88 l 643 553 q 606 590 640 589 l 458 590 q 391 564 419 589 l 301 490 l 431 490 q 498 431 491 490 q 499 418 499 425 l 499 71 q 448 3 499 14 q 429 0 438 0 l 91 0 q 30 65 37 11 l 30 202 q 62 293 31 271 l 16 293 l 16 357 q 198 511 16 357 l 198 556 q 161 590 195 589 l 42 590 l 42 674 l 221 674 q 277 621 270 674 q 278 609 278 616 l 278 579 z "},"ථ":{"ha":696,"x_min":30,"x_max":639,"o":"m 373 773 l 502 773 q 537 736 534 764 l 537 644 l 404 644 q 374 658 378 644 q 373 673 373 665 l 373 773 m 300 449 l 300 534 l 106 534 q 30 460 31 532 l 30 73 q 75 1 30 11 q 98 0 85 0 l 570 0 q 637 53 631 0 q 639 73 639 62 l 639 758 q 595 844 639 830 q 549 849 576 849 l 203 849 l 203 774 l 282 774 l 282 643 q 319 582 282 589 q 343 579 330 579 l 538 579 l 538 122 q 511 87 536 88 l 155 87 q 130 119 130 90 l 130 415 q 164 449 133 448 l 300 449 z "},"ට":{"ha":699,"x_min":30,"x_max":639,"o":"m 334 533 l 334 620 l 106 620 q 30 545 31 617 l 30 73 q 75 1 30 11 q 98 0 85 0 l 568 0 q 637 54 631 0 q 639 73 639 64 l 639 741 q 572 845 639 831 q 538 848 556 848 l 30 848 l 30 761 l 487 761 q 537 731 530 761 q 538 708 538 722 l 538 122 q 511 87 536 88 l 155 87 q 130 119 130 90 l 130 500 q 164 533 133 532 l 334 533 z "},"ඨ":{"ha":699,"x_min":30,"x_max":639,"o":"m 373 773 l 502 773 q 537 749 534 773 q 538 736 538 743 l 538 644 l 404 644 q 374 658 378 644 q 373 673 373 665 l 373 773 m 270 0 q 328 35 312 0 q 334 50 332 43 q 400 0 350 1 l 575 0 q 639 68 637 3 l 639 758 q 595 844 639 830 q 549 849 576 849 l 203 849 l 203 774 l 282 774 l 282 643 q 319 582 282 589 q 343 579 330 579 l 540 579 l 540 119 q 513 87 537 88 l 429 87 q 377 156 377 90 l 377 283 l 290 283 l 290 155 q 241 87 288 88 l 159 87 q 130 118 132 92 l 130 381 q 161 415 133 414 l 342 415 l 342 502 l 110 502 q 30 414 31 499 l 30 65 q 94 0 33 1 l 270 0 z "},"උ":{"ha":707,"x_min":30,"x_max":656,"o":"m 126 674 l 564 674 q 652 594 651 671 l 652 396 l 184 396 q 133 373 141 396 q 130 346 130 362 l 130 -69 q 148 -117 130 -111 q 170 -119 157 -119 l 524 -119 q 556 -85 556 -117 l 556 133 l 656 133 l 656 -125 q 598 -206 656 -198 q 576 -208 587 -208 l 103 -208 q 30 -117 31 -205 l 30 382 q 130 480 33 479 l 552 480 l 552 556 q 517 590 549 589 l 126 590 l 126 674 z "},"ඌ":{"ha":1206,"x_min":30,"x_max":1172,"o":"m 126 674 l 564 674 q 652 594 651 671 l 652 396 l 184 396 q 133 373 141 396 q 130 346 130 362 l 130 -69 q 148 -117 130 -111 q 170 -119 157 -119 l 524 -119 q 556 -85 556 -117 l 556 133 l 656 133 l 656 -125 q 598 -206 656 -198 q 576 -208 587 -208 l 103 -208 q 30 -117 31 -205 l 30 382 q 130 480 33 479 l 552 480 l 552 556 q 517 590 549 589 l 126 590 l 126 674 m 762 674 l 762 387 q 807 342 765 343 l 925 342 q 987 389 986 345 l 987 563 q 1009 590 990 589 l 1057 590 q 1077 566 1077 590 l 1077 117 q 1053 85 1074 87 l 897 85 q 869 115 872 96 l 869 214 l 764 214 l 764 64 q 818 0 769 4 l 1107 0 q 1171 46 1160 0 q 1172 62 1172 54 l 1172 618 q 1135 671 1172 658 q 1115 674 1126 674 l 958 674 q 913 617 914 671 l 913 453 q 890 425 909 426 l 852 425 q 833 439 834 425 q 831 453 831 445 l 831 674 l 762 674 z "},"ව":{"ha":697,"x_min":30,"x_max":639,"o":"m 538 848 l 30 848 l 30 761 l 487 761 q 537 731 530 761 q 538 708 538 722 l 538 122 q 511 87 536 88 l 155 87 q 130 119 130 90 l 130 354 q 164 388 133 387 l 342 388 l 342 585 q 266 659 339 658 l 30 659 l 30 575 l 213 575 q 241 551 240 572 l 241 467 l 106 467 q 30 392 31 464 l 30 73 q 75 1 30 11 q 98 0 85 0 l 568 0 q 637 54 631 0 q 639 73 639 64 l 639 741 q 572 845 639 831 q 538 848 556 848 z "},"ය":{"ha":766,"x_min":30,"x_max":705,"o":"m 301 674 l 301 590 l 161 590 q 130 551 132 587 l 130 117 q 155 87 133 88 l 270 87 q 321 149 319 91 l 321 239 l 415 239 l 415 149 q 468 87 418 88 l 581 87 q 606 118 605 90 l 606 370 q 575 396 604 395 l 365 396 l 365 594 q 454 674 368 673 l 704 674 l 704 590 l 499 590 q 458 557 460 587 l 458 480 l 625 480 q 705 403 703 475 l 705 73 q 661 1 705 11 q 637 0 650 0 l 439 0 q 376 35 396 0 q 369 53 370 45 q 316 3 359 14 q 297 0 305 0 l 98 0 q 31 47 39 0 q 30 73 30 58 l 30 594 q 106 674 33 673 l 301 674 z "},"෴":{"ha":2493,"x_min":62,"x_max":2435,"o":"m 194 271 l 243 186 l 189 153 l 221 96 q 258 96 232 81 l 449 208 q 524 209 494 231 q 548 189 524 209 l 651 339 q 678 336 666 354 l 724 271 l 854 437 q 882 437 869 453 q 886 430 884 433 l 943 334 l 1077 503 q 1105 503 1092 519 q 1109 495 1108 499 l 1169 349 l 1320 529 q 1347 529 1337 545 q 1350 522 1348 525 l 1397 330 l 1550 463 q 1579 460 1571 477 q 1581 446 1581 453 l 1606 278 l 1750 387 q 1778 378 1771 399 q 1778 366 1778 372 l 1801 220 l 1917 305 q 1942 301 1937 317 q 1942 289 1944 294 l 1954 194 q 1978 203 1972 202 q 2049 202 2014 221 l 2234 92 q 2275 92 2265 79 l 2306 152 l 2253 184 l 2302 269 l 2413 198 q 2418 155 2433 183 l 2345 20 q 2264 -4 2319 -20 q 2246 3 2254 -1 l 2044 117 q 1971 122 2003 138 l 1860 68 l 1853 184 l 1695 80 l 1685 254 l 1522 134 l 1491 313 l 1324 170 l 1278 369 l 1120 195 l 1055 358 l 902 179 l 837 302 l 701 138 l 652 203 l 570 88 l 507 133 q 452 127 488 148 l 239 5 q 160 11 193 -23 q 151 23 155 16 l 77 156 q 83 202 62 187 l 194 271 z "},"ඏ":{"ha":1175,"x_min":30,"x_max":1120,"o":"m 1038 182 l 1038 125 q 1010 91 1035 92 l 955 91 q 936 107 937 92 l 936 197 q 958 218 939 217 l 1000 218 q 1038 182 1036 216 m 879 406 q 803 480 876 479 l 685 480 l 685 556 q 722 590 688 589 l 878 590 l 878 674 l 834 674 l 834 711 q 859 743 834 741 q 872 745 865 745 l 983 745 q 1035 704 1029 745 q 1036 693 1036 699 l 1036 274 q 1006 286 1023 286 l 944 286 q 879 237 890 283 l 879 406 m 810 0 q 878 49 869 0 q 879 64 879 56 q 945 19 890 20 l 1047 19 q 1120 106 1118 24 l 1120 715 q 1059 808 1120 785 q 1013 815 1038 815 l 844 815 q 755 765 768 815 q 753 730 753 750 l 753 674 l 690 674 q 601 598 604 670 l 601 396 l 743 396 q 780 361 779 393 l 780 122 q 749 87 777 88 l 400 87 q 370 122 372 95 l 370 361 q 406 396 373 395 l 548 396 l 548 598 q 458 674 541 670 l 397 674 l 397 730 q 355 808 397 795 q 307 815 335 815 l 137 815 q 34 747 54 815 q 30 715 30 731 l 30 106 q 103 19 33 20 l 205 19 q 270 58 259 20 q 339 0 283 3 l 810 0 m 113 182 q 151 218 115 217 l 193 218 q 214 197 213 216 l 214 107 q 195 91 212 92 l 140 91 q 113 125 114 96 l 113 182 m 270 406 l 270 244 q 208 286 256 285 l 144 286 q 114 275 125 286 l 114 693 q 167 745 122 739 l 278 745 q 315 722 312 745 q 316 711 316 716 l 316 674 l 271 674 l 271 590 l 427 590 q 464 556 463 587 l 464 480 l 346 480 q 270 406 271 477 z "},"ඐ":{"ha":1655,"x_min":30,"x_max":1591,"o":"m 1038 182 l 1038 125 q 1010 91 1035 92 l 955 91 q 936 107 937 92 l 936 197 q 958 218 939 217 l 1000 218 q 1038 182 1036 216 m 879 406 q 803 480 876 479 l 685 480 l 685 556 q 722 590 688 589 l 878 590 l 878 674 l 834 674 l 834 711 q 859 743 834 741 q 872 745 865 745 l 983 745 q 1035 704 1029 745 q 1036 693 1036 699 l 1036 274 q 1006 286 1023 286 l 944 286 q 879 237 890 283 l 879 406 m 810 0 q 878 49 869 0 q 879 64 879 56 q 945 19 890 20 l 1047 19 q 1120 106 1118 24 l 1120 715 q 1059 808 1120 785 q 1013 815 1038 815 l 844 815 q 755 765 768 815 q 753 730 753 750 l 753 674 l 690 674 q 601 598 604 670 l 601 396 l 743 396 q 780 361 779 393 l 780 122 q 749 87 777 88 l 400 87 q 370 122 372 95 l 370 361 q 406 396 373 395 l 548 396 l 548 598 q 458 674 541 670 l 397 674 l 397 730 q 355 808 397 795 q 307 815 335 815 l 137 815 q 34 747 54 815 q 30 715 30 731 l 30 106 q 103 19 33 20 l 205 19 q 270 58 259 20 q 339 0 283 3 l 810 0 m 113 182 q 151 218 115 217 l 193 218 q 214 197 213 216 l 214 107 q 195 91 212 92 l 140 91 q 113 125 114 96 l 113 182 m 270 406 l 270 244 q 208 286 256 285 l 144 286 q 114 275 125 286 l 114 693 q 167 745 122 739 l 278 745 q 315 722 312 745 q 316 711 316 716 l 316 674 l 271 674 l 271 590 l 427 590 q 464 556 463 587 l 464 480 l 346 480 q 270 406 271 477 m 1192 674 l 1192 387 q 1237 342 1195 343 l 1341 342 q 1398 389 1397 345 l 1398 563 q 1419 590 1401 589 l 1469 590 q 1491 566 1489 587 l 1491 117 q 1465 87 1488 88 l 1318 87 q 1291 115 1294 96 l 1291 214 l 1192 214 l 1192 64 q 1246 0 1200 5 l 1526 0 q 1590 46 1579 0 q 1591 62 1591 54 l 1591 618 q 1554 671 1591 658 q 1534 674 1544 674 l 1394 674 q 1344 617 1345 671 l 1344 454 q 1321 425 1340 426 l 1282 425 q 1263 439 1264 425 q 1261 453 1261 445 l 1261 674 l 1192 674 z "},"ඍ":{"ha":1232,"x_min":30,"x_max":1180,"o":"m 795 674 l 795 590 l 1048 590 q 1078 574 1076 590 q 1080 557 1080 567 l 1080 438 l 853 438 q 796 393 803 438 q 795 380 795 387 l 795 57 q 845 0 798 1 l 1019 0 q 1088 53 1066 1 l 1103 0 l 1180 0 l 1180 610 q 1114 674 1177 673 l 795 674 m 1080 357 l 1080 186 q 1012 87 1078 88 l 917 87 q 895 110 897 95 l 895 330 q 917 357 899 355 l 1080 357 m 368 53 q 419 3 376 15 q 439 0 430 0 l 637 0 q 704 47 696 0 q 705 73 705 60 l 705 403 q 625 480 697 477 l 477 480 l 477 557 q 518 590 480 589 l 704 590 l 704 674 l 484 674 q 395 598 397 670 l 395 396 l 575 396 q 606 370 605 393 l 606 118 q 581 87 604 88 l 468 87 q 415 149 416 90 l 415 239 l 321 239 l 321 149 q 269 87 319 88 l 155 87 q 130 118 132 90 l 130 370 q 161 396 133 395 l 340 396 l 340 598 q 251 674 334 670 l 31 674 l 31 590 l 217 590 q 258 557 256 587 l 258 480 l 110 480 q 30 403 33 475 l 30 73 q 75 1 30 11 q 98 0 85 0 l 297 0 q 359 34 338 0 q 368 53 365 43 z "},"ඎ":{"ha":1686,"x_min":30,"x_max":1625,"o":"m 1240 673 l 1240 590 l 1493 590 q 1523 572 1520 590 q 1525 556 1525 566 l 1525 437 l 1298 437 q 1240 378 1242 431 l 1240 56 q 1290 -1 1242 0 l 1463 -1 q 1533 53 1510 0 l 1548 -1 l 1625 -1 l 1625 609 q 1558 673 1622 671 l 1240 673 m 1525 355 l 1525 184 q 1457 85 1523 87 l 1362 85 q 1340 110 1341 94 l 1340 330 q 1362 355 1347 354 l 1525 355 m 789 673 l 789 590 l 1042 590 q 1073 572 1070 590 q 1074 556 1074 566 l 1074 437 l 846 437 q 789 378 791 434 l 789 56 q 840 -1 792 0 l 1012 -1 q 1081 53 1061 0 l 1096 -1 l 1173 -1 l 1173 609 q 1107 673 1171 671 l 789 673 m 1074 355 l 1074 184 q 1005 85 1073 87 l 911 85 q 888 110 890 94 l 888 330 q 910 355 895 354 l 1074 355 m 368 53 q 419 3 376 15 q 439 0 430 0 l 637 0 q 704 47 696 0 q 705 73 705 60 l 705 403 q 625 480 697 477 l 477 480 l 477 557 q 518 590 480 589 l 704 590 l 704 674 l 484 674 q 395 598 397 670 l 395 396 l 575 396 q 606 370 605 393 l 606 118 q 581 87 604 88 l 468 87 q 415 149 416 90 l 415 239 l 321 239 l 321 149 q 269 87 319 88 l 155 87 q 130 118 132 90 l 130 370 q 161 396 133 395 l 340 396 l 340 598 q 251 674 334 670 l 31 674 l 31 590 l 217 590 q 258 557 256 587 l 258 480 l 110 480 q 30 403 33 475 l 30 73 q 75 1 30 11 q 98 0 85 0 l 297 0 q 359 34 338 0 q 368 53 365 43 z "},"/":{"ha":572,"x_min":22,"x_max":562,"o":"m 450 916 l 22 -130 l 136 -130 l 562 916 l 450 916 z "}," ":{"ha":271,"x_min":0,"x_max":0,"o":""},"£":{"ha":585,"x_min":56,"x_max":543,"o":"m 543 0 l 543 106 l 231 106 q 259 167 259 122 l 259 376 l 486 376 l 486 465 l 259 465 l 259 696 q 273 708 262 707 l 533 708 l 533 817 l 319 817 q 145 715 171 817 q 138 655 138 688 l 138 465 l 56 465 l 56 376 l 138 376 l 138 121 q 123 106 136 107 l 56 106 l 56 0 l 543 0 z "},"∑":{"ha":594,"x_min":28,"x_max":553,"o":"m 28 0 l 553 0 l 553 106 l 170 106 l 384 446 l 187 755 l 553 755 l 553 861 l 41 861 l 41 774 l 256 442 l 28 87 l 28 0 z "},"t":{"ha":389,"x_min":31,"x_max":384,"o":"m 384 665 l 228 665 l 228 834 l 111 834 l 111 665 l 31 665 l 31 574 l 111 574 l 111 156 q 194 12 111 41 q 286 0 231 0 l 384 0 l 384 98 l 241 98 q 228 111 229 100 l 228 574 l 384 574 l 384 665 z "},"ť":{"ha":403,"x_min":31,"x_max":403,"o":"m 384 665 l 228 665 l 228 834 l 111 834 l 111 665 l 31 665 l 31 574 l 111 574 l 111 156 q 194 12 111 41 q 286 0 231 0 l 384 0 l 384 98 l 241 98 q 228 111 229 100 l 228 574 l 384 574 l 384 665 m 300 827 l 335 827 q 300 731 331 779 l 335 703 q 401 846 401 770 l 401 954 l 300 954 l 300 827 z "},"þ":{"ha":609,"x_min":79,"x_max":548,"o":"m 195 -258 l 195 -1 l 384 -4 q 533 58 502 -4 q 548 144 548 91 l 548 532 q 473 665 548 640 q 395 674 441 674 l 308 674 q 195 608 218 673 l 195 916 l 79 916 l 79 -258 l 195 -258 m 195 566 q 209 579 198 578 l 418 579 q 431 566 430 576 l 431 104 q 418 91 429 92 l 195 94 l 195 566 z "},"¾":{"ha":1093,"x_min":34,"x_max":1047,"o":"m 381 444 l 381 526 q 331 609 380 590 q 377 688 376 633 l 377 758 q 260 865 374 867 l 38 861 l 38 783 l 266 783 q 277 772 275 780 l 277 658 q 266 648 274 650 l 83 648 l 83 571 l 271 571 q 281 560 279 568 l 281 427 q 271 416 279 418 l 34 416 l 34 338 l 262 336 q 381 444 380 336 m 738 871 l 264 -9 l 363 -9 l 836 871 l 738 871 m 968 0 l 968 115 l 1047 115 l 1047 194 l 968 194 l 968 525 l 861 528 q 783 496 807 528 q 758 457 773 484 l 600 179 l 600 115 l 871 115 l 871 0 l 968 0 m 841 439 q 852 446 848 446 l 871 446 l 871 194 l 697 194 l 841 439 z "},"³":{"ha":472,"x_min":34,"x_max":381,"o":"m 381 444 l 381 526 q 331 609 380 590 q 377 688 376 633 l 377 758 q 260 865 374 867 l 38 861 l 38 783 l 266 783 q 277 772 275 780 l 277 658 q 266 648 274 650 l 83 648 l 83 571 l 271 571 q 281 560 279 568 l 281 427 q 271 416 279 418 l 34 416 l 34 338 l 262 336 q 381 444 380 336 z "},"˜":{"ha":519,"x_min":71,"x_max":442,"o":"m 148 781 q 179 834 149 833 q 263 806 197 834 q 350 783 316 783 q 439 872 426 783 q 442 918 442 894 l 365 918 q 328 867 357 871 q 243 895 307 867 q 157 918 191 918 q 77 852 92 918 q 71 783 71 823 l 148 781 z "},"™":{"ha":899,"x_min":22,"x_max":834,"o":"m 780 871 l 747 871 l 609 605 l 488 838 q 452 869 472 867 q 438 871 445 871 l 384 871 l 384 332 l 472 332 l 472 703 l 576 499 l 629 499 l 739 709 l 739 332 l 834 332 l 834 819 q 780 871 826 868 m 236 332 l 236 795 l 351 795 l 351 871 l 22 871 l 22 795 l 140 795 l 140 332 l 236 332 z "},"²":{"ha":448,"x_min":52,"x_max":396,"o":"m 52 502 l 52 338 l 393 338 l 393 416 l 151 416 l 151 491 q 165 518 152 511 l 328 595 q 392 652 382 621 q 396 682 396 666 l 396 761 q 289 865 396 865 q 286 865 288 865 l 65 861 l 65 783 l 285 783 q 296 772 294 780 l 296 689 q 283 674 293 680 l 119 595 q 61 552 71 572 q 52 502 52 533 z "},"u":{"ha":610,"x_min":65,"x_max":534,"o":"m 307 -9 q 422 68 403 -8 l 433 0 l 534 0 l 534 665 l 418 665 l 419 85 l 195 85 q 182 99 183 88 l 182 665 l 65 665 l 65 133 q 138 1 65 26 q 218 -9 170 -9 l 307 -9 z "},"ú":{"ha":610,"x_min":65,"x_max":534,"o":"m 307 -9 q 422 68 403 -8 l 433 0 l 534 0 l 534 665 l 418 665 l 419 85 l 195 85 q 182 99 183 88 l 182 665 l 65 665 l 65 133 q 138 1 65 26 q 218 -9 170 -9 l 307 -9 m 247 750 l 332 943 l 454 941 l 335 750 l 247 750 z "},"û":{"ha":610,"x_min":65,"x_max":534,"o":"m 307 -9 q 422 68 403 -8 l 433 0 l 534 0 l 534 665 l 418 665 l 419 85 l 195 85 q 182 99 183 88 l 182 665 l 65 665 l 65 133 q 138 1 65 26 q 218 -9 170 -9 l 307 -9 m 355 936 l 232 936 l 103 750 l 202 750 l 293 882 l 373 750 l 477 750 l 355 936 z "},"ü":{"ha":610,"x_min":65,"x_max":534,"o":"m 307 -9 q 422 68 403 -8 l 433 0 l 534 0 l 534 665 l 418 665 l 419 85 l 195 85 q 182 99 183 88 l 182 665 l 65 665 l 65 133 q 138 1 65 26 q 218 -9 170 -9 l 307 -9 m 232 780 l 232 902 l 123 902 l 123 780 l 232 780 m 472 780 l 472 902 l 363 902 l 363 780 l 472 780 z "},"ù":{"ha":610,"x_min":65,"x_max":534,"o":"m 307 -9 q 422 68 403 -8 l 433 0 l 534 0 l 534 665 l 418 665 l 419 85 l 195 85 q 182 99 183 88 l 182 665 l 65 665 l 65 133 q 138 1 65 26 q 218 -9 170 -9 l 307 -9 m 136 941 l 259 943 l 350 750 l 264 750 l 136 941 z "},"ű":{"ha":610,"x_min":65,"x_max":548,"o":"m 307 -9 q 422 68 403 -8 l 433 0 l 534 0 l 534 665 l 418 665 l 419 85 l 195 85 q 182 99 183 88 l 182 665 l 65 665 l 65 133 q 138 1 65 26 q 218 -9 170 -9 l 307 -9 m 157 750 l 240 943 l 359 941 l 243 750 l 157 750 m 342 750 l 427 943 l 548 941 l 427 750 l 342 750 z "},"ū":{"ha":610,"x_min":65,"x_max":534,"o":"m 307 -9 q 422 68 403 -8 l 433 0 l 534 0 l 534 665 l 418 665 l 419 85 l 195 85 q 182 99 183 88 l 182 665 l 65 665 l 65 133 q 138 1 65 26 q 218 -9 170 -9 l 307 -9 m 471 873 l 121 873 l 121 787 l 471 787 l 471 873 z "},"_":{"ha":601,"x_min":27,"x_max":574,"o":"m 574 -58 l 27 -58 l 27 -134 l 574 -134 l 574 -58 z "}," ":{"ha":259,"x_min":0,"x_max":0,"o":""},"­":{"ha":435,"x_min":42,"x_max":393,"o":"m 393 435 l 42 435 l 42 339 l 393 339 l 393 435 z "},"µ":{"ha":610,"x_min":65,"x_max":534,"o":"m 180 -258 l 171 11 q 244 -9 193 -9 l 324 -9 q 422 65 406 -7 l 433 0 l 534 0 l 534 665 l 418 665 l 419 85 l 195 85 q 182 99 183 88 l 182 665 l 65 665 l 65 -258 l 180 -258 z "},"Ģ":{"ha":722,"x_min":83,"x_max":652,"o":"m 471 -9 q 647 98 623 -9 q 652 152 652 122 l 652 456 l 388 456 l 388 354 l 534 354 l 534 113 q 521 99 532 100 l 220 99 q 206 113 208 102 l 206 749 q 220 762 209 761 l 637 762 l 637 871 l 263 871 q 90 769 115 871 q 83 709 83 742 l 83 152 q 194 -3 83 22 q 263 -9 225 -9 l 471 -9 m 323 -201 l 363 -201 q 323 -308 359 -255 l 363 -339 q 437 -179 437 -264 l 437 -61 l 323 -61 l 323 -201 z "},"ģ":{"ha":591,"x_min":62,"x_max":532,"o":"m 252 825 l 293 825 q 264 739 290 789 l 305 711 q 366 848 366 777 l 366 962 l 252 962 l 252 825 m 414 99 q 400 85 411 87 l 191 85 q 178 99 179 88 l 178 559 q 191 572 180 571 l 414 570 l 414 99 m 400 -171 l 87 -171 l 87 -267 l 355 -267 q 518 -194 486 -267 q 532 -111 532 -160 l 532 665 l 227 669 q 79 609 109 670 q 62 521 62 575 l 62 133 q 136 0 62 26 q 214 -9 167 -9 l 301 -9 q 414 57 391 -8 l 414 -157 q 400 -171 411 -170 z "},"Ķ":{"ha":745,"x_min":103,"x_max":736,"o":"m 414 384 q 427 372 422 384 l 427 370 l 608 0 l 736 0 l 575 326 q 510 425 537 406 q 488 437 499 433 q 553 518 524 453 q 566 547 559 530 l 703 861 l 582 861 l 427 502 q 414 488 419 490 l 224 488 l 224 861 l 103 861 l 103 0 l 224 0 l 224 384 l 414 384 m 324 -201 l 365 -201 q 324 -308 361 -255 l 365 -339 q 438 -179 438 -264 l 438 -61 l 324 -61 l 324 -201 z "},"ķ":{"ha":612,"x_min":85,"x_max":606,"o":"m 370 298 q 384 285 380 296 l 488 0 l 606 0 l 519 236 q 460 340 488 320 q 435 353 449 349 q 488 453 463 372 q 490 457 490 456 l 555 665 l 442 665 l 361 408 q 346 395 355 396 l 201 395 l 201 916 l 85 916 l 85 0 l 201 0 l 201 298 l 370 298 m 260 -197 l 300 -197 q 260 -301 296 -250 l 300 -331 q 372 -176 370 -258 l 372 -61 l 260 -61 l 260 -197 z "},"Ļ":{"ha":551,"x_min":96,"x_max":536,"o":"m 536 104 l 217 104 l 217 861 l 96 861 l 96 0 l 536 0 l 536 104 m 252 -201 l 293 -201 q 252 -308 289 -255 l 293 -339 q 366 -179 366 -264 l 366 -61 l 252 -61 l 252 -201 z "},"ļ":{"ha":289,"x_min":87,"x_max":202,"o":"m 202 0 l 202 916 l 87 916 l 87 0 l 202 0 m 90 -197 l 129 -197 q 90 -301 125 -250 l 129 -331 q 201 -176 199 -258 l 201 -61 l 90 -61 l 90 -197 z "},"Ņ":{"ha":779,"x_min":90,"x_max":689,"o":"m 605 0 l 689 0 l 689 861 l 583 861 l 583 224 l 174 861 l 90 861 l 90 0 l 195 0 l 195 636 l 605 0 m 328 -201 l 369 -201 q 328 -308 365 -255 l 369 -339 q 442 -179 442 -264 l 442 -61 l 328 -61 l 328 -201 z "},"ņ":{"ha":609,"x_min":76,"x_max":545,"o":"m 305 674 q 187 606 212 673 l 178 665 l 76 665 l 77 0 l 193 0 l 193 566 q 205 579 195 578 l 415 579 q 429 566 427 576 l 429 0 l 545 0 l 545 532 q 471 665 545 640 q 392 674 438 674 l 305 674 m 255 -197 l 294 -197 q 255 -301 290 -250 l 294 -331 q 366 -176 365 -258 l 366 -61 l 255 -61 l 255 -197 z "},"Ŗ":{"ha":727,"x_min":99,"x_max":681,"o":"m 220 0 l 220 346 l 425 346 q 446 330 441 343 l 559 0 l 681 0 l 585 275 q 534 357 563 336 q 654 525 652 392 l 654 692 q 461 867 651 868 l 99 861 l 99 0 l 220 0 m 511 761 q 529 745 528 758 l 529 467 q 511 449 526 450 l 220 449 l 220 761 l 511 761 m 324 -201 l 365 -201 q 324 -308 361 -255 l 365 -339 q 438 -179 438 -264 l 438 -61 l 324 -61 l 324 -201 z "},"ŗ":{"ha":373,"x_min":75,"x_max":373,"o":"m 302 674 q 186 605 208 673 l 176 665 l 75 665 l 75 0 l 191 0 l 190 560 q 203 574 193 572 l 373 574 l 373 674 l 302 674 m 81 -197 l 121 -197 q 81 -301 117 -250 l 121 -331 q 193 -176 191 -258 l 193 -61 l 81 -61 l 81 -197 z "},"Ş":{"ha":646,"x_min":56,"x_max":595,"o":"m 197 487 q 179 505 180 490 l 179 739 q 197 757 182 755 l 571 757 l 571 861 l 251 867 q 61 745 92 869 q 56 689 56 718 l 56 548 q 206 380 56 396 q 247 378 227 378 l 454 378 q 472 361 471 376 l 472 122 q 454 104 469 106 l 69 104 l 69 0 l 262 -3 l 235 -130 l 347 -130 q 357 -140 355 -133 l 357 -202 q 347 -212 354 -210 l 218 -212 l 218 -283 l 316 -283 q 437 -175 435 -281 l 437 -152 q 353 -66 437 -75 q 328 -65 340 -65 l 312 -65 l 324 -4 l 404 -5 q 595 170 594 -7 l 595 316 q 400 487 593 486 l 197 487 z "},"ş":{"ha":517,"x_min":45,"x_max":486,"o":"m 332 -4 q 473 64 446 -4 q 486 137 486 94 l 486 236 q 416 370 486 343 q 321 384 381 384 l 176 384 q 163 397 164 387 l 163 563 q 176 576 165 575 l 452 576 l 452 674 l 212 674 q 60 608 90 675 q 45 521 45 574 l 45 441 q 113 305 45 334 q 209 292 149 292 l 355 292 q 369 278 368 289 l 369 103 q 355 90 366 91 l 56 90 l 56 -4 l 206 -4 l 179 -129 l 292 -129 q 301 -138 300 -132 l 301 -201 q 292 -210 298 -209 l 163 -210 l 163 -282 l 260 -282 q 381 -174 380 -279 l 381 -151 q 297 -65 381 -73 q 273 -64 285 -64 l 256 -64 l 269 -4 l 332 -4 z "},"Ţ":{"ha":562,"x_min":7,"x_max":555,"o":"m 340 0 l 340 757 l 555 757 l 555 861 l 7 861 l 7 757 l 220 757 l 220 0 l 232 0 l 203 -129 l 316 -129 q 326 -138 324 -132 l 326 -201 q 316 -210 323 -209 l 187 -210 l 187 -282 l 285 -282 q 406 -174 404 -279 l 406 -151 q 321 -65 406 -73 q 297 -64 309 -64 l 281 -64 l 293 0 l 340 0 z "},"ţ":{"ha":389,"x_min":31,"x_max":384,"o":"m 384 665 l 228 665 l 228 834 l 111 834 l 111 665 l 31 665 l 31 574 l 111 574 l 111 156 q 190 14 113 43 l 159 -129 l 271 -129 q 281 -138 279 -132 l 281 -201 q 271 -210 278 -209 l 142 -210 l 142 -282 l 240 -282 q 361 -174 359 -279 l 361 -151 q 277 -65 361 -73 q 252 -64 264 -64 l 236 -64 l 248 1 q 286 0 262 0 l 384 0 l 384 98 l 241 98 q 228 111 229 100 l 228 574 l 384 574 l 384 665 z "},"Ș":{"ha":654,"x_min":56,"x_max":595,"o":"m 197 487 q 179 505 180 490 l 179 739 q 197 757 182 755 l 571 757 l 571 861 l 251 867 q 61 745 92 869 q 56 689 56 718 l 56 548 q 206 380 56 396 q 247 378 227 378 l 454 378 q 472 361 471 376 l 472 122 q 454 104 469 106 l 69 104 l 69 0 l 404 -5 q 595 170 594 -7 l 595 316 q 400 487 593 486 l 197 487 m 262 -201 l 302 -201 q 262 -308 298 -255 l 302 -339 q 376 -179 376 -264 l 376 -61 l 262 -61 l 262 -201 z "},"ș":{"ha":517,"x_min":45,"x_max":486,"o":"m 332 -4 q 473 64 446 -4 q 486 137 486 94 l 486 236 q 416 370 486 343 q 321 384 381 384 l 176 384 q 163 397 164 387 l 163 563 q 176 576 165 575 l 452 576 l 452 674 l 212 674 q 60 608 90 675 q 45 521 45 574 l 45 441 q 113 305 45 334 q 209 292 149 292 l 355 292 q 369 278 368 289 l 369 103 q 355 90 366 91 l 56 90 l 56 -4 l 332 -4 m 210 -197 l 250 -197 q 210 -301 245 -250 l 250 -331 q 321 -176 320 -258 l 321 -61 l 210 -61 l 210 -197 z "},"Ț":{"ha":562,"x_min":7,"x_max":555,"o":"m 340 0 l 340 757 l 555 757 l 555 861 l 7 861 l 7 757 l 220 757 l 220 0 l 340 0 m 224 -201 l 264 -201 q 224 -308 260 -255 l 264 -339 q 338 -179 338 -264 l 338 -61 l 224 -61 l 224 -201 z "},"ț":{"ha":389,"x_min":31,"x_max":384,"o":"m 384 665 l 228 665 l 228 834 l 111 834 l 111 665 l 31 665 l 31 574 l 111 574 l 111 156 q 194 12 111 41 q 286 0 231 0 l 384 0 l 384 98 l 241 98 q 228 111 229 100 l 228 574 l 384 574 l 384 665 m 197 -197 l 236 -197 q 197 -301 232 -250 l 236 -331 q 308 -176 307 -258 l 308 -61 l 197 -61 l 197 -197 z "},"ˉ":{"ha":491,"x_min":71,"x_max":420,"o":"m 420 873 l 71 873 l 71 787 l 420 787 l 420 873 z "},"₺":{"ha":708,"x_min":49,"x_max":654,"o":"m 472 -7 q 648 99 624 -8 q 654 155 654 125 l 654 349 l 530 349 l 530 115 q 517 102 528 103 l 267 102 l 267 328 l 457 397 l 457 469 l 267 400 l 267 480 l 457 549 l 457 621 l 267 552 l 267 814 l 145 814 l 145 507 l 49 472 l 49 400 l 145 434 l 145 355 l 49 320 l 49 248 l 145 282 l 145 -5 l 472 -7 z "},"₽":{"ha":718,"x_min":37,"x_max":656,"o":"m 244 0 l 244 180 l 437 180 l 437 266 l 244 266 l 244 338 l 472 338 q 654 472 635 338 q 656 514 656 492 l 656 644 q 469 819 656 821 q 467 819 468 819 l 123 814 l 123 425 l 37 425 l 37 338 l 123 338 l 123 266 l 37 266 l 37 180 l 123 180 l 123 0 l 244 0 m 517 712 q 534 694 533 709 l 534 442 q 517 425 532 426 l 244 425 l 244 712 l 517 712 z "},"ℓ":{"ha":590,"x_min":15,"x_max":552,"o":"m 552 -9 l 552 99 l 273 99 q 259 113 260 102 l 259 296 l 449 427 q 537 507 518 475 q 552 578 552 537 l 552 764 q 426 921 552 902 q 376 925 403 925 l 311 925 q 138 806 157 925 q 136 764 136 785 l 136 339 l 15 255 l 68 163 l 136 210 l 136 152 q 252 -4 136 19 q 317 -9 281 -9 l 552 -9 m 259 803 q 273 817 262 815 l 414 817 q 427 803 426 814 l 427 555 q 414 532 427 543 q 410 529 411 530 l 259 425 l 259 803 z "},"Ω":{"ha":745,"x_min":43,"x_max":701,"o":"m 302 0 l 302 103 l 217 127 q 203 144 205 134 l 203 749 q 217 762 206 761 l 526 762 q 540 749 538 760 l 540 144 q 525 127 537 132 l 439 103 l 439 0 l 701 0 l 701 104 l 602 104 q 663 240 663 145 l 663 709 q 547 865 663 842 q 481 871 517 871 l 260 871 q 84 764 109 871 q 79 709 79 739 l 79 240 q 140 104 80 144 l 43 104 l 43 0 l 302 0 z "},"∆":{"ha":705,"x_min":9,"x_max":696,"o":"m 696 0 l 418 861 l 290 861 l 9 0 l 696 0 m 548 104 l 155 104 l 353 734 l 548 104 z "},"∕":{"ha":616,"x_min":16,"x_max":587,"o":"m 490 871 l 16 -9 l 115 -9 l 587 871 l 490 871 z "},"∙":{"ha":399,"x_min":102,"x_max":296,"o":"m 102 336 q 189 259 104 260 l 210 259 q 296 336 292 266 l 296 427 q 210 505 285 500 l 189 505 q 102 427 103 502 l 102 336 z "},"ų":{"ha":610,"x_min":65,"x_max":560,"o":"m 560 -282 l 560 -199 l 448 -199 q 438 -190 439 -197 l 438 -123 q 449 -100 439 -110 l 536 0 l 534 0 l 534 665 l 418 665 l 419 85 l 195 85 q 182 99 183 88 l 182 665 l 65 665 l 65 133 q 138 1 65 26 q 218 -9 170 -9 l 307 -9 q 422 68 403 -8 l 433 0 l 452 0 l 378 -66 q 343 -156 343 -99 l 343 -186 q 415 -277 343 -262 q 480 -282 441 -282 l 560 -282 z "},"ů":{"ha":610,"x_min":65,"x_max":534,"o":"m 307 -9 q 422 68 403 -8 l 433 0 l 534 0 l 534 665 l 418 665 l 419 85 l 195 85 q 182 99 183 88 l 182 665 l 65 665 l 65 133 q 138 1 65 26 q 218 -9 170 -9 l 307 -9 m 426 852 q 373 963 426 941 q 296 975 345 975 q 182 925 203 975 q 171 852 171 898 q 224 739 171 762 q 296 728 251 728 q 416 788 395 728 q 426 852 426 814 m 235 852 q 254 914 235 905 q 296 921 269 921 q 357 897 347 921 q 362 852 362 882 q 336 788 362 799 q 296 783 321 783 q 237 814 245 783 q 235 852 235 827 z "},"v":{"ha":563,"x_min":5,"x_max":557,"o":"m 435 129 l 557 665 l 445 665 l 324 99 q 311 85 319 87 l 247 85 l 122 665 l 5 665 l 152 0 l 283 -7 q 403 37 373 -11 q 435 129 420 65 z "},"ඃ":{"ha":323,"x_min":35,"x_max":269,"o":"m 35 222 l 35 18 q 56 0 38 1 l 250 0 q 269 16 267 3 l 269 224 q 247 243 266 241 l 57 243 q 35 222 37 240 m 115 174 l 186 174 q 195 164 195 171 l 195 81 q 186 72 193 72 l 115 72 q 106 81 106 75 l 106 164 q 115 174 109 172 m 35 656 l 35 450 q 56 433 38 434 l 250 433 q 269 449 267 435 l 269 656 q 247 675 266 674 l 57 675 q 35 656 37 674 m 115 606 l 186 606 q 195 598 195 604 l 195 514 q 186 505 193 505 l 115 505 q 106 514 106 507 l 106 598 q 115 606 109 606 z "},"w":{"ha":924,"x_min":69,"x_max":854,"o":"m 327 -9 q 461 64 433 -8 q 595 -9 491 -8 l 701 -9 q 841 54 814 -9 q 854 133 854 85 l 853 665 l 736 665 l 738 99 q 724 85 735 87 l 532 85 q 518 99 519 88 l 518 665 l 404 665 l 404 99 q 391 85 401 87 l 198 85 q 186 99 187 88 l 186 665 l 69 665 l 69 125 q 132 3 69 27 q 221 -9 164 -9 l 327 -9 z "},"x":{"ha":601,"x_min":9,"x_max":595,"o":"m 132 0 l 250 274 q 263 285 256 285 l 335 285 q 349 273 346 282 l 471 0 l 595 0 l 490 222 q 430 323 452 304 q 404 336 418 331 q 465 429 434 354 q 472 445 468 435 l 567 665 l 453 665 l 340 393 q 326 382 334 382 l 279 382 q 264 395 269 385 l 153 665 l 34 665 l 127 445 q 193 339 163 359 q 197 336 195 338 q 136 271 161 324 q 114 222 127 254 l 9 0 l 132 0 z "},"y":{"ha":608,"x_min":65,"x_max":533,"o":"m 404 -171 l 88 -171 l 88 -267 l 358 -267 q 518 -197 487 -267 q 533 -111 533 -163 l 532 665 l 416 665 l 418 85 l 194 85 q 180 99 182 88 l 180 665 l 65 665 l 65 133 q 138 0 65 26 q 217 -9 170 -9 l 304 -9 q 418 57 395 -8 l 418 -157 q 404 -171 415 -170 z "},"ý":{"ha":608,"x_min":65,"x_max":533,"o":"m 404 -171 l 88 -171 l 88 -267 l 358 -267 q 518 -197 487 -267 q 533 -111 533 -163 l 532 665 l 416 665 l 418 85 l 194 85 q 180 99 182 88 l 180 665 l 65 665 l 65 133 q 138 0 65 26 q 217 -9 170 -9 l 304 -9 q 418 57 395 -8 l 418 -157 q 404 -171 415 -170 m 247 750 l 332 943 l 454 941 l 335 750 l 247 750 z "},"ÿ":{"ha":608,"x_min":65,"x_max":533,"o":"m 404 -171 l 88 -171 l 88 -267 l 358 -267 q 518 -197 487 -267 q 533 -111 533 -163 l 532 665 l 416 665 l 418 85 l 194 85 q 180 99 182 88 l 180 665 l 65 665 l 65 133 q 138 0 65 26 q 217 -9 170 -9 l 304 -9 q 418 57 395 -8 l 418 -157 q 404 -171 415 -170 m 232 780 l 232 902 l 123 902 l 123 780 l 232 780 m 472 780 l 472 902 l 363 902 l 363 780 l 472 780 z "},"¥":{"ha":727,"x_min":37,"x_max":689,"o":"m 606 164 l 606 239 l 422 239 l 422 311 l 606 311 l 606 384 l 506 384 q 521 418 510 395 l 689 814 l 568 814 l 410 412 q 393 399 403 400 l 340 399 q 324 412 328 401 l 164 815 l 37 815 l 203 418 q 218 384 214 393 l 119 384 l 119 311 l 302 311 l 302 239 l 119 239 l 119 164 l 302 164 l 302 0 l 422 0 l 422 164 l 606 164 z "},"z":{"ha":490,"x_min":18,"x_max":460,"o":"m 456 91 l 165 91 q 155 106 149 91 q 157 111 156 109 l 460 557 q 347 665 457 663 l 46 665 l 46 574 l 317 574 q 330 560 332 574 q 327 555 330 557 l 18 96 q 123 0 20 1 l 456 0 l 456 91 z "},"ź":{"ha":490,"x_min":18,"x_max":460,"o":"m 456 91 l 165 91 q 155 106 149 91 q 157 111 156 109 l 460 557 q 347 665 457 663 l 46 665 l 46 574 l 317 574 q 330 560 332 574 q 327 555 330 557 l 18 96 q 123 0 20 1 l 456 0 l 456 91 m 194 750 l 279 943 l 401 941 l 282 750 l 194 750 z "},"ž":{"ha":490,"x_min":18,"x_max":460,"o":"m 456 91 l 165 91 q 155 106 149 91 q 157 111 156 109 l 460 557 q 347 665 457 663 l 46 665 l 46 574 l 317 574 q 330 560 332 574 q 327 555 330 557 l 18 96 q 123 0 20 1 l 456 0 l 456 91 m 190 757 l 313 757 l 442 943 l 343 943 l 252 811 l 172 943 l 68 943 l 190 757 z "},"ż":{"ha":490,"x_min":18,"x_max":460,"o":"m 456 91 l 165 91 q 155 106 149 91 q 157 111 156 109 l 460 557 q 347 665 457 663 l 46 665 l 46 574 l 317 574 q 330 560 332 574 q 327 555 330 557 l 18 96 q 123 0 20 1 l 456 0 l 456 91 m 300 776 l 300 910 l 186 910 l 186 776 l 300 776 z "},"‍":{"ha":0,"x_min":-221,"x_max":221,"o":"m 53 888 l 221 722 l 168 669 l 38 799 l 38 1 l -38 1 l -38 799 l -168 669 l -221 722 l -53 888 l -221 1054 l -168 1105 l 0 937 l 168 1105 l 221 1054 l 53 888 z "},"‌":{"ha":0,"x_min":-38,"x_max":38,"o":"m -38 1 l -38 1043 l 38 1043 l 38 1 l -38 1 z "}}}
